g Ball_circle1_bottom
v -21.89714 -0.6092202 21.89714
v -17.87894 -8.01492 17.87894
v -24.42309 -8.014919 6.544123
v -29.91208 -0.6092198 8.014886
v -24.42308 8.014897 24.42308
v -24.42311 -8.014917 -6.544161
v -33.36258 8.014897 8.939458
v -29.91206 -0.6092182 -8.014914
v -17.87894 -8.014915 -17.87894
v -33.36256 8.014899 -8.939472
v -21.89714 -0.6092145 -21.89715
v -6.544161 -8.014915 -24.42311
v -24.42309 8.014901 -24.42309
v -8.014911 -0.6092108 -29.91206
v 6.544132 -8.01491 -24.4231
v -8.939471 8.014906 -33.36256
v 8.014893 -0.6092076 -29.91208
v 17.87895 -8.014911 -17.87894
v 8.939454 8.01491 -33.36258
v 21.89714 -0.6092055 -21.89714
v 24.42308 -8.014908 -6.544149
v 24.42309 8.014913 -24.42308
v 29.91206 -0.6092059 -8.014916
v 24.42306 -8.01491 6.544119
v 33.36256 8.014913 -8.939476
v 29.91206 -0.6092076 8.014909
v 17.87894 -8.014914 17.87893
v 33.36256 8.014911 8.939463
v 21.89714 -0.6092112 21.89714
v 6.54412 -8.014915 24.42306
v 24.42309 8.014909 24.42308
v 8.014913 -0.6092149 29.91205
v -6.544141 -8.014917 24.42308
v 8.939468 8.014904 33.36255
v -8.014911 -0.6092182 29.91205
v -17.87894 -8.01492 17.87894
v -8.939479 8.0149 33.36256
v -21.89714 -0.6092202 21.89714
v -24.42308 8.014897 24.42308
v 8.939468 8.014904 33.36255
v -2.997886E-06 8.03076 -4.612019E-06
v 24.42309 8.014909 24.42308
v -8.939479 8.0149 33.36256
v 33.36256 8.014911 8.939463
v -24.42308 8.014897 24.42308
v 33.36256 8.014913 -8.939476
v -33.36258 8.014897 8.939458
v 24.42309 8.014913 -24.42308
v -33.36256 8.014899 -8.939472
v 8.939454 8.01491 -33.36258
v -24.42309 8.014901 -24.42309
v -8.939471 8.014906 -33.36256
v 17.87894 -8.014914 17.87893
v -5.096868E-06 -8.030769 -1.170946E-05
v 6.54412 -8.014915 24.42306
v 24.42306 -8.01491 6.544119
v -6.544141 -8.014917 24.42308
v 24.42308 -8.014908 -6.544149
v -17.87894 -8.01492 17.87894
v 17.87895 -8.014911 -17.87894
v -24.42309 -8.014919 6.544123
v 6.544132 -8.01491 -24.4231
v -24.42311 -8.014917 -6.544161
v -6.544161 -8.014915 -24.42311
v -17.87894 -8.014915 -17.87894
vt 0.2343853 0.9763166
vt 0.2556884 0.9761369
vt 0.2556885 0.9340701
vt 0.2343853 0.9341848
vt 0.2130608 0.9765254
vt 0.2556884 0.8925079
vt 0.2130608 0.934335
vt 0.2343853 0.8925079
vt 0.2556885 0.8521625
vt 0.2130608 0.8925079
vt 0.2343853 0.8520123
vt 0.2556884 0.809814
vt 0.2130608 0.8520762
vt 0.2343853 0.80978
vt 0.2556884 0.7684138
vt 0.2130608 0.8099497
vt 0.2343853 0.7684829
vt 0.2556884 0.7270786
vt 0.2130608 0.768477
vt 0.2343853 0.727109
vt 0.2556884 0.6859444
vt 0.2130608 0.7270662
vt 0.2343853 0.6860009
vt 0.2556884 0.6445319
vt 0.2130608 0.6859636
vt 0.2343853 0.6444886
vt 0.2556884 0.602771
vt 0.2130608 0.6443743
vt 0.2343853 0.6026062
vt 0.2556884 0.561308
vt 0.2130608 0.6022854
vt 0.2343853 0.5613373
vt 0.2556884 0.5197316
vt 0.2130608 0.561103
vt 0.2343853 0.5198977
vt 0.2556884 0.4781043
vt 0.2130608 0.5198081
vt 0.2343853 0.4781043
vt 0.2130608 0.4781043
vt 0.833748 0.1799017
vt 0.888415 0.1031796
vt 0.80288 0.1422349
vt 0.8824998 0.196969
vt 0.7948502 0.09415711
vt 0.9301869 0.1873612
vt 0.8118371 0.04841603
vt 0.9666814 0.155197
vt 0.8494301 0.01739173
vt 0.9820666 0.1122451
vt 0.8974259 0.009441567
vt 0.9740466 0.06411799
vt 0.943001 0.02651137
vt 0.8821988 0.1965493
vt 0.888415 0.1031795
vt 0.8335237 0.1793992
vt 0.9298898 0.1871366
vt 0.8027927 0.1417843
vt 0.9664677 0.1552279
vt 0.7949232 0.09387919
vt 0.9819937 0.1125231
vt 0.8120508 0.04838507
vt 0.974134 0.06456854
vt 0.8497272 0.01761615
vt 0.9432251 0.0270138
vt 0.8977268 0.00986128
vn -0.6160488 -0.4908844 0.6160491
vn -0.560985 -0.6087618 0.5609854
vn -0.7663202 -0.6087617 0.2053349
vn -0.8415385 -0.4908842 0.2254893
vn -0.6532814 -0.3826832 0.6532816
vn -0.7663203 -0.6087613 -0.2053357
vn -0.8923992 -0.3826832 0.2391177
vn -0.8415385 -0.490884 -0.2254901
vn -0.5609857 -0.6087609 -0.5609859
vn -0.8923991 -0.382683 -0.2391183
vn -0.6160491 -0.4908839 -0.6160492
vn -0.2053357 -0.6087613 -0.7663205
vn -0.6532815 -0.3826832 -0.6532816
vn -0.2254899 -0.4908839 -0.8415387
vn 0.205335 -0.6087615 -0.7663203
vn -0.2391181 -0.3826828 -0.8923992
vn 0.2254895 -0.490884 -0.8415387
vn 0.5609857 -0.6087615 -0.5609852
vn 0.2391177 -0.3826828 -0.8923994
vn 0.6160493 -0.490884 -0.6160489
vn 0.7663199 -0.6087621 -0.2053346
vn 0.6532818 -0.3826829 -0.6532815
vn 0.8415385 -0.4908843 -0.2254896
vn 0.7663196 -0.6087627 0.2053342
vn 0.8923993 -0.3826828 -0.2391178
vn 0.8415384 -0.4908845 0.2254896
vn 0.5609847 -0.608763 0.5609845
vn 0.8923994 -0.3826827 0.2391176
vn 0.6160489 -0.4908847 0.6160488
vn 0.2053343 -0.6087629 0.7663196
vn 0.6532818 -0.3826827 0.6532816
vn 0.2254898 -0.4908847 0.8415383
vn -0.2053344 -0.6087623 0.7663199
vn 0.2391179 -0.3826829 0.8923993
vn -0.2254894 -0.4908846 0.8415384
vn -0.560985 -0.6087618 0.5609854
vn -0.2391178 -0.3826833 0.8923991
vn -0.6160488 -0.4908844 0.6160491
vn -0.6532814 -0.3826832 0.6532816
vn 0.0001185791 0.9999999 0.0004434964
vn 0 1 0
vn 0.0003243623 0.9999999 0.0003246693
vn -0.0001190162 0.9999999 0.0004434892
vn 0.0004431922 0.9999999 0.0001188756
vn -0.0003247923 0.9999999 0.000324689
vn 0.0004431926 0.9999999 -0.0001187119
vn -0.0004435953 0.9999999 0.0001189022
vn 0.0003243819 0.9999999 -0.0003244851
vn -0.000443596 0.9999999 -0.0001187387
vn 0.0001185979 0.9999999 -0.0004432987
vn -0.0003248118 0.9999999 -0.0003245047
vn -0.0001190353 0.9999999 -0.0004432917
vn 0.0004435726 -0.9999999 0.0004432863
vn 0 -1 0
vn 0.0001624497 -0.9999999 0.0006056384
vn 0.0006059351 -0.9999999 0.0001621246
vn -0.000162039 -0.9999999 0.0006056381
vn 0.0006059633 -0.9999999 -0.0001623355
vn -0.000443162 -0.9999999 0.0004432866
vn 0.0004435728 -0.9999999 -0.0004434482
vn -0.0006055241 -0.9999999 0.0001621248
vn 0.0001624943 -0.9999999 -0.0006058298
vn -0.0006055327 -0.9999999 -0.0001624092
vn -0.0001620646 -0.9999999 -0.0006057565
vn -0.0004432691 -0.9999999 -0.0004434487
g Ball_circle1_bottom_0
f 3/3/3 2/2/2 1/1/1
f 4/4/4 3/3/3 1/1/1
f 4/4/4 1/1/1 5/5/5
f 6/6/6 3/3/3 4/4/4
f 7/7/7 4/4/4 5/5/5
f 8/8/8 6/6/6 4/4/4
f 8/8/8 4/4/4 7/7/7
f 9/9/9 6/6/6 8/8/8
f 10/10/10 8/8/8 7/7/7
f 11/11/11 9/9/9 8/8/8
f 11/11/11 8/8/8 10/10/10
f 12/12/12 9/9/9 11/11/11
f 13/13/13 11/11/11 10/10/10
f 14/14/14 12/12/12 11/11/11
f 14/14/14 11/11/11 13/13/13
f 15/15/15 12/12/12 14/14/14
f 16/16/16 14/14/14 13/13/13
f 17/17/17 15/15/15 14/14/14
f 17/17/17 14/14/14 16/16/16
f 18/18/18 15/15/15 17/17/17
f 19/19/19 17/17/17 16/16/16
f 20/20/20 18/18/18 17/17/17
f 20/20/20 17/17/17 19/19/19
f 21/21/21 18/18/18 20/20/20
f 22/22/22 20/20/20 19/19/19
f 23/23/23 21/21/21 20/20/20
f 23/23/23 20/20/20 22/22/22
f 24/24/24 21/21/21 23/23/23
f 25/25/25 23/23/23 22/22/22
f 26/26/26 24/24/24 23/23/23
f 26/26/26 23/23/23 25/25/25
f 27/27/27 24/24/24 26/26/26
f 28/28/28 26/26/26 25/25/25
f 29/29/29 27/27/27 26/26/26
f 29/29/29 26/26/26 28/28/28
f 30/30/30 27/27/27 29/29/29
f 31/31/31 29/29/29 28/28/28
f 32/32/32 30/30/30 29/29/29
f 32/32/32 29/29/29 31/31/31
f 33/33/33 30/30/30 32/32/32
f 34/34/34 32/32/32 31/31/31
f 35/35/35 33/33/33 32/32/32
f 35/35/35 32/32/32 34/34/34
f 36/36/36 33/33/33 35/35/35
f 37/37/37 35/35/35 34/34/34
f 38/38/38 36/36/36 35/35/35
f 38/38/38 35/35/35 37/37/37
f 39/39/39 38/38/38 37/37/37
f 42/42/42 41/41/41 40/40/40
f 40/40/40 41/41/41 43/43/43
f 44/44/44 41/41/41 42/42/42
f 43/43/43 41/41/41 45/45/45
f 46/46/46 41/41/41 44/44/44
f 45/45/45 41/41/41 47/47/47
f 48/48/48 41/41/41 46/46/46
f 47/47/47 41/41/41 49/49/49
f 50/50/50 41/41/41 48/48/48
f 49/49/49 41/41/41 51/51/51
f 52/52/52 41/41/41 50/50/50
f 51/51/51 41/41/41 52/52/52
f 55/55/55 54/54/54 53/53/53
f 53/53/53 54/54/54 56/56/56
f 57/57/57 54/54/54 55/55/55
f 56/56/56 54/54/54 58/58/58
f 59/59/59 54/54/54 57/57/57
f 58/58/58 54/54/54 60/60/60
f 61/61/61 54/54/54 59/59/59
f 60/60/60 54/54/54 62/62/62
f 63/63/63 54/54/54 61/61/61
f 62/62/62 54/54/54 64/64/64
f 65/65/65 54/54/54 63/63/63
f 64/64/64 54/54/54 65/65/65
