g Ball_circle2_top
v -12.64231 4.389819 12.64232
v -17.87894 -1.292774 17.87895
v -24.42309 -1.292775 6.544132
v -17.26973 4.389819 4.62742
v -9.575614 6.18625 9.575624
v -24.4231 -1.292772 -6.544152
v -13.08053 6.186252 3.504931
v -17.26972 4.389822 -4.627404
v -17.87893 -1.292771 -17.87893
v -13.08053 6.186251 -3.504905
v -12.64231 4.389822 -12.64231
v -6.544157 -1.292767 -24.4231
v -9.575613 6.186255 -9.57561
v -4.627405 4.389824 -17.26972
v 6.544132 -1.292765 -24.42309
v -3.504907 6.186256 -13.08053
v 4.627418 4.389826 -17.26972
v 17.87894 -1.292763 -17.87893
v 3.504922 6.186257 -13.08052
v 12.64232 4.389829 -12.64231
v 24.42308 -1.292762 -6.544138
v 9.575622 6.186259 -9.57561
v 17.26974 4.389829 -4.627404
v 24.42307 -1.292765 6.544129
v 13.08053 6.186257 -3.504911
v 17.26973 4.389826 4.627419
v 17.87894 -1.292766 17.87894
v 13.08054 6.186258 3.50492
v 12.64232 4.389826 12.64232
v 6.544119 -1.29277 24.42307
v 9.575623 6.186254 9.575626
v 4.627413 4.389823 17.26973
v -6.544138 -1.292772 24.42308
v 3.504915 6.186253 13.08054
v -4.627409 4.389822 17.26974
v -17.87894 -1.292774 17.87895
v -3.504921 6.186252 13.08054
v -12.64231 4.389819 12.64232
v -9.575614 6.18625 9.575624
v -2.313826 -6.186264 8.635333
v -9.575614 6.18625 9.575624
v -6.321492 -6.186265 6.321504
v -3.504921 6.186252 13.08054
v 2.313831 -6.186263 8.635334
v 3.504915 6.186253 13.08054
v 6.321503 -6.186262 6.321503
v 9.575623 6.186254 9.575626
v 8.635328 -6.18626 2.313835
v 13.08054 6.186258 3.50492
v 8.635335 -6.186261 -2.313826
v 13.08053 6.186257 -3.504911
v 6.321505 -6.18626 -6.321493
v 9.575622 6.186259 -9.57561
v 2.313839 -6.186261 -8.635322
v 3.504922 6.186257 -13.08052
v -2.313829 -6.186262 -8.635324
v -3.504907 6.186256 -13.08053
v -6.321501 -6.186262 -6.321503
v -9.575613 6.186255 -9.57561
v -8.635327 -6.186264 -2.313826
v -13.08053 6.186251 -3.504905
v -8.635321 -6.186264 2.313837
v -13.08053 6.186252 3.504931
v -6.321492 -6.186265 6.321504
v -9.575614 6.18625 9.575624
v 2.313831 -6.186263 8.635334
v 17.87894 -1.292766 17.87894
v 6.321503 -6.186262 6.321503
v 6.544119 -1.29277 24.42307
v 24.42307 -1.292765 6.544129
v -2.313826 -6.186264 8.635333
v 8.635328 -6.18626 2.313835
v -6.544138 -1.292772 24.42308
v 24.42308 -1.292762 -6.544138
v -6.321492 -6.186265 6.321504
v 8.635335 -6.186261 -2.313826
v -17.87894 -1.292774 17.87895
v 17.87894 -1.292763 -17.87893
v -8.635321 -6.186264 2.313837
v 6.321505 -6.18626 -6.321493
v -24.42309 -1.292775 6.544132
v 6.544132 -1.292765 -24.42309
v -8.635327 -6.186264 -2.313826
v 2.313839 -6.186261 -8.635322
v -24.4231 -1.292772 -6.544152
v -6.544157 -1.292767 -24.4231
v -6.321501 -6.186262 -6.321503
v -2.313829 -6.186262 -8.635324
v -17.87893 -1.292771 -17.87893
vt 0.07032418 0.976459
vt 0.09365027 0.976459
vt 0.09365037 0.9344513
vt 0.070324 0.9344513
vt 0.05857846 0.976459
vt 0.09365037 0.8925785
vt 0.05857846 0.9344513
vt 0.07032418 0.8925785
vt 0.09365037 0.8524872
vt 0.05857857 0.8925785
vt 0.07032418 0.8524872
vt 0.09365037 0.8092784
vt 0.05857857 0.8524872
vt 0.07032418 0.8092784
vt 0.09365037 0.7709001
vt 0.05857846 0.8092784
vt 0.07032418 0.7709001
vt 0.09365037 0.7298078
vt 0.05857846 0.7709001
vt 0.07032429 0.7298078
vt 0.09365037 0.6890873
vt 0.05857857 0.7298078
vt 0.07032429 0.6890873
vt 0.09365037 0.6507697
vt 0.05857846 0.6890873
vt 0.07032429 0.6507697
vt 0.09365037 0.6026654
vt 0.05857846 0.6507697
vt 0.07032429 0.6026654
vt 0.09365037 0.562143
vt 0.05857857 0.6026654
vt 0.07032418 0.562143
vt 0.09365037 0.521872
vt 0.05857857 0.562143
vt 0.07032429 0.521872
vt 0.09365037 0.4784921
vt 0.05857857 0.521872
vt 0.07032418 0.4784921
vt 0.05857857 0.4784921
vt 0.02719525 0.521872
vt 0.05857857 0.4784921
vt 0.02719537 0.4784921
vt 0.05857857 0.521872
vt 0.02719525 0.562143
vt 0.05857857 0.562143
vt 0.02719537 0.6026654
vt 0.05857857 0.6026654
vt 0.02719525 0.6507697
vt 0.05857846 0.6507697
vt 0.02719525 0.6890873
vt 0.05857846 0.6890873
vt 0.02719525 0.7298078
vt 0.05857857 0.7298078
vt 0.02719537 0.7709001
vt 0.05857846 0.7709001
vt 0.02719525 0.8092784
vt 0.05857846 0.8092784
vt 0.02719525 0.8524872
vt 0.05857857 0.8524872
vt 0.02719525 0.8925785
vt 0.05857857 0.8925785
vt 0.02719537 0.9344513
vt 0.05857846 0.9344513
vt 0.02719525 0.976459
vt 0.05857846 0.976459
vt 0.8698782 0.1295913
vt 0.8796617 0.1968843
vt 0.8855069 0.1354882
vt 0.8339361 0.1799748
vt 0.9277571 0.1889084
vt 0.8592041 0.1167263
vt 0.9019681 0.1326506
vt 0.8029644 0.1423173
vt 0.9652784 0.1577696
vt 0.8564056 0.1002363
vt 0.914878 0.1220276
vt 0.7949241 0.09426669
vt 0.9822406 0.1120979
vt 0.8622344 0.08455078
vt 0.9207375 0.1063595
vt 0.8119673 0.04865462
vt 0.9741098 0.06408826
vt 0.8751291 0.07387263
vt 0.9179728 0.08985468
vt 0.8495087 0.01768568
vt 0.9430847 0.02659182
vt 0.8916404 0.0710556
vt 0.9073244 0.07693538
vt 0.8974828 0.009676379
vn -0.3648109 0.8566365 0.3648109
vn -0.4304594 0.7933533 0.4304595
vn -0.5880181 0.7933536 0.1575589
vn -0.4983405 0.8566366 0.1335303
vn -0.2705981 0.9238795 0.270598
vn -0.5880176 0.7933539 -0.157559
vn -0.3696437 0.9238796 0.09904593
vn -0.4983403 0.8566369 -0.1335299
vn -0.430459 0.7933538 -0.4304588
vn -0.3696437 0.9238796 -0.09904547
vn -0.3648106 0.8566368 -0.3648103
vn -0.1575593 0.7933539 -0.5880175
vn -0.2705981 0.9238796 -0.2705978
vn -0.1335301 0.8566369 -0.4983402
vn 0.1575587 0.7933538 -0.5880179
vn -0.09904569 0.9238797 -0.3696435
vn 0.1335301 0.8566368 -0.4983403
vn 0.4304594 0.7933533 -0.4304593
vn 0.09904548 0.9238797 -0.3696433
vn 0.3648105 0.8566368 -0.3648105
vn 0.5880187 0.7933531 -0.1575588
vn 0.2705976 0.9238798 -0.2705977
vn 0.4983408 0.8566365 -0.1335297
vn 0.5880192 0.7933527 0.1575593
vn 0.369643 0.9238798 -0.09904549
vn 0.498341 0.8566363 0.1335305
vn 0.4304597 0.7933528 0.4304599
vn 0.3696433 0.9238797 0.09904571
vn 0.3648109 0.8566363 0.3648111
vn 0.1575588 0.7933526 0.5880195
vn 0.2705977 0.9238796 0.270598
vn 0.1335301 0.8566363 0.4983412
vn -0.157559 0.7933529 0.588019
vn 0.0990454 0.9238797 0.3696435
vn -0.1335301 0.8566363 0.4983411
vn -0.4304594 0.7933533 0.4304595
vn -0.099046 0.9238797 0.3696434
vn -0.3648109 0.8566365 0.3648109
vn -0.2705981 0.9238795 0.270598
vn 0.2425819 0.3486202 -0.9053276
vn 0.6627458 0.3486204 -0.6627457
vn 0.6627458 0.3486203 -0.6627457
vn 0.2425819 0.3486202 -0.9053276
vn -0.2425815 0.34862 -0.9053277
vn -0.2425815 0.34862 -0.9053278
vn -0.6627459 0.3486201 -0.6627457
vn -0.6627459 0.3486201 -0.6627457
vn -0.9053278 0.3486198 -0.2425815
vn -0.9053278 0.3486198 -0.2425814
vn -0.9053279 0.3486196 0.2425816
vn -0.9053278 0.3486196 0.2425816
vn -0.662746 0.3486196 0.662746
vn -0.662746 0.3486196 0.662746
vn -0.2425821 0.3486195 0.9053277
vn -0.242582 0.3486196 0.9053278
vn 0.2425811 0.3486195 0.9053281
vn 0.2425809 0.3486194 0.9053281
vn 0.6627458 0.3486193 0.6627461
vn 0.6627458 0.3486193 0.6627461
vn 0.905328 0.3486196 0.2425813
vn 0.905328 0.3486196 0.2425812
vn 0.9053276 0.3486202 -0.2425821
vn 0.9053276 0.3486201 -0.2425821
vn 0.6627458 0.3486203 -0.6627457
vn 0.6627458 0.3486204 -0.6627457
vn 0.07423335 -0.957986 0.2770421
vn 0.202809 -0.957986 0.2028087
vn 0.2028091 -0.957986 0.2028088
vn 0.07423326 -0.957986 0.2770421
vn 0.2770424 -0.9579859 0.0742331
vn -0.07423278 -0.9579861 0.2770419
vn 0.2770424 -0.9579859 0.0742332
vn -0.0742328 -0.9579861 0.2770419
vn 0.2770422 -0.957986 -0.07423308
vn -0.2028084 -0.9579861 0.2028086
vn 0.2770422 -0.957986 -0.07423303
vn -0.2028084 -0.9579861 0.2028086
vn 0.202809 -0.957986 -0.2028088
vn -0.2770415 -0.9579861 0.07423324
vn 0.202809 -0.957986 -0.2028088
vn -0.2770415 -0.9579861 0.07423306
vn 0.07423333 -0.957986 -0.2770418
vn -0.2770414 -0.9579862 -0.07423311
vn 0.07423353 -0.957986 -0.2770418
vn -0.2770414 -0.9579862 -0.07423317
vn -0.07423294 -0.9579861 -0.2770417
vn -0.2028085 -0.9579861 -0.2028088
vn -0.07423288 -0.9579861 -0.2770417
vn -0.2028085 -0.9579861 -0.2028088
g Ball_circle2_top_0
f 3/3/3 2/2/2 1/1/1
f 4/4/4 3/3/3 1/1/1
f 4/4/4 1/1/1 5/5/5
f 6/6/6 3/3/3 4/4/4
f 7/7/7 4/4/4 5/5/5
f 8/8/8 6/6/6 4/4/4
f 8/8/8 4/4/4 7/7/7
f 9/9/9 6/6/6 8/8/8
f 10/10/10 8/8/8 7/7/7
f 11/11/11 9/9/9 8/8/8
f 11/11/11 8/8/8 10/10/10
f 12/12/12 9/9/9 11/11/11
f 13/13/13 11/11/11 10/10/10
f 14/14/14 12/12/12 11/11/11
f 14/14/14 11/11/11 13/13/13
f 15/15/15 12/12/12 14/14/14
f 16/16/16 14/14/14 13/13/13
f 17/17/17 15/15/15 14/14/14
f 17/17/17 14/14/14 16/16/16
f 18/18/18 15/15/15 17/17/17
f 19/19/19 17/17/17 16/16/16
f 20/20/20 18/18/18 17/17/17
f 20/20/20 17/17/17 19/19/19
f 21/21/21 18/18/18 20/20/20
f 22/22/22 20/20/20 19/19/19
f 23/23/23 21/21/21 20/20/20
f 23/23/23 20/20/20 22/22/22
f 24/24/24 21/21/21 23/23/23
f 25/25/25 23/23/23 22/22/22
f 26/26/26 24/24/24 23/23/23
f 26/26/26 23/23/23 25/25/25
f 27/27/27 24/24/24 26/26/26
f 28/28/28 26/26/26 25/25/25
f 29/29/29 27/27/27 26/26/26
f 29/29/29 26/26/26 28/28/28
f 30/30/30 27/27/27 29/29/29
f 31/31/31 29/29/29 28/28/28
f 32/32/32 30/30/30 29/29/29
f 32/32/32 29/29/29 31/31/31
f 33/33/33 30/30/30 32/32/32
f 34/34/34 32/32/32 31/31/31
f 35/35/35 33/33/33 32/32/32
f 35/35/35 32/32/32 34/34/34
f 36/36/36 33/33/33 35/35/35
f 37/37/37 35/35/35 34/34/34
f 38/38/38 36/36/36 35/35/35
f 38/38/38 35/35/35 37/37/37
f 39/39/39 38/38/38 37/37/37
f 42/42/42 41/41/41 40/40/40
f 41/41/41 43/43/43 40/40/40
f 40/40/40 43/43/43 44/44/44
f 43/43/43 45/45/45 44/44/44
f 44/44/44 45/45/45 46/46/46
f 45/45/45 47/47/47 46/46/46
f 46/46/46 47/47/47 48/48/48
f 47/47/47 49/49/49 48/48/48
f 48/48/48 49/49/49 50/50/50
f 49/49/49 51/51/51 50/50/50
f 50/50/50 51/51/51 52/52/52
f 51/51/51 53/53/53 52/52/52
f 52/52/52 53/53/53 54/54/54
f 53/53/53 55/55/55 54/54/54
f 54/54/54 55/55/55 56/56/56
f 55/55/55 57/57/57 56/56/56
f 56/56/56 57/57/57 58/58/58
f 57/57/57 59/59/59 58/58/58
f 58/58/58 59/59/59 60/60/60
f 59/59/59 61/61/61 60/60/60
f 60/60/60 61/61/61 62/62/62
f 61/61/61 63/63/63 62/62/62
f 62/62/62 63/63/63 64/64/64
f 63/63/63 65/65/65 64/64/64
f 68/68/68 67/67/67 66/66/66
f 67/67/67 69/69/69 66/66/66
f 70/70/70 67/67/67 68/68/68
f 66/66/66 69/69/69 71/71/71
f 72/72/72 70/70/70 68/68/68
f 69/69/69 73/73/73 71/71/71
f 74/74/74 70/70/70 72/72/72
f 71/71/71 73/73/73 75/75/75
f 76/76/76 74/74/74 72/72/72
f 73/73/73 77/77/77 75/75/75
f 78/78/78 74/74/74 76/76/76
f 75/75/75 77/77/77 79/79/79
f 80/80/80 78/78/78 76/76/76
f 77/77/77 81/81/81 79/79/79
f 82/82/82 78/78/78 80/80/80
f 79/79/79 81/81/81 83/83/83
f 84/84/84 82/82/82 80/80/80
f 81/81/81 85/85/85 83/83/83
f 86/86/86 82/82/82 84/84/84
f 83/83/83 85/85/85 87/87/87
f 88/88/88 86/86/86 84/84/84
f 85/85/85 89/89/89 87/87/87
f 89/89/89 86/86/86 88/88/88
f 87/87/87 89/89/89 88/88/88
