g Cheat_Ring3
v 0.08778862 0.0004597091 0.03637558
v 0.02008247 0.02604369 0.001480331
v 0.02008267 0.000450021 -0.02210014
v 0.06357602 0.02605334 0.04425911
v 0.02042683 -0.0004525936 0.02517837
v 0.08778856 0.0004598832 0.1623871
v 0.04019415 -0.0004499996 0.05004486
v 0.06357597 0.02605349 0.154503
v 2.384186E-07 0.0004593277 0.2298627
v 0.0401941 -0.0004498672 0.1487173
v 5.245209E-08 0.02605309 0.2033595
v 2.682209E-07 -0.000450114 0.1777657
v 0.08778862 0.0004597091 0.03637558
v 0.02008267 0.000450021 -0.02210014
v 0.02008286 -0.0260532 0.0006712341
v 0.06440725 -0.02604374 0.04425918
v 0.02042683 -0.0004525936 0.02517837
v 0.04019415 -0.0004499996 0.05004486
v 0.0401941 -0.0004498672 0.1487173
v 0.0644072 -0.02604359 0.1545032
v 0.08778856 0.0004598832 0.1623871
v 2.384186E-07 0.0004593277 0.2298627
v 4.529953E-07 -0.02604401 0.204269
v 2.682209E-07 -0.000450114 0.1777657
v -0.02008272 0.02604338 0.001480255
v -0.08778856 0.0004583752 0.03637543
v -0.02008251 0.0004497159 -0.02210022
v -0.06357632 0.02605238 0.04425903
v -0.02042666 -0.0004528987 0.0251783
v -0.08778862 0.000458548 0.162387
v -0.04019399 -0.0004506087 0.05004486
v -0.06357637 0.02605254 0.154503
v 2.384186E-07 0.0004593277 0.2298627
v -0.04019404 -0.0004504764 0.1487173
v 5.245209E-08 0.02605309 0.2033595
v 2.682209E-07 -0.000450114 0.1777657
v -0.08778856 0.0004583752 0.03637543
v -0.02008232 -0.02605351 0.0006712341
v -0.02008251 0.0004497159 -0.02210022
v -0.06440675 -0.02604473 0.04425918
v -0.02042666 -0.0004528987 0.0251783
v -0.04019399 -0.0004506087 0.05004486
v -0.04019404 -0.0004504764 0.1487173
v -0.06440629 -0.02604458 0.1545031
v -0.08778862 0.000458548 0.162387
v 2.682209E-07 -0.000450114 0.1777657
v 2.384186E-07 0.0004593277 0.2298627
v 4.529953E-07 -0.02604401 0.204269
vt 0.9428915 0.2536376
vt 0.9063801 0.2277484
vt 0.9161006 0.2114354
vt 0.9235784 0.257615
vt 0.8968679 0.244515
vt 0.941684 0.3221496
vt 0.9043428 0.2604131
vt 0.9224672 0.3176189
vt 0.9056191 0.3725178
vt 0.9032815 0.3143184
vt 0.8957718 0.3549958
vt 0.8859277 0.3374798
vt 0.9429405 0.2535625
vt 0.9160979 0.2112794
vt 0.906359 0.2276235
vt 0.9235901 0.2575477
vt 0.8968284 0.2444225
vt 0.9043176 0.260351
vt 0.9032542 0.31436
vt 0.9224768 0.3176667
vt 0.9417306 0.3222063
vt 0.9055964 0.3726713
vt 0.89573 0.3551154
vt 0.8858669 0.337566
vt 0.9063807 0.2277503
vt 0.9428907 0.2536388
vt 0.9161006 0.2114381
vt 0.9235784 0.2576161
vt 0.8968687 0.2445166
vt 0.9416834 0.3221487
vt 0.9043434 0.2604139
vt 0.922467 0.3176181
vt 0.9056196 0.3725151
vt 0.9032818 0.3143176
vt 0.8957725 0.3549937
vt 0.8859286 0.3374784
vt 0.9429412 0.2535611
vt 0.9063585 0.2276214
vt 0.9160979 0.2112767
vt 0.9235905 0.2575466
vt 0.8968276 0.2444209
vt 0.9043173 0.2603499
vt 0.9032536 0.3143608
vt 0.9224769 0.3176676
vt 0.9417315 0.3222073
vt 0.8858658 0.3375676
vt 0.905596 0.372674
vt 0.8957291 0.3551176
vn 0.9173844 0.01460669 -0.3977342
vn 0.2247088 0.9274665 -0.2988508
vn 0.6733367 0.00917914 -0.739279
vn 0.1305632 0.9856982 -0.1065473
vn -0.7300445 -0.01948777 0.6831216
vn 0.9060102 0.01455629 0.4230056
vn -0.9174244 -0.01948316 0.3974327
vn 0.1505527 0.9818345 0.1154768
vn 8.109955E-07 0.01242496 0.9999229
vn -0.8672552 -0.02114928 -0.4974144
vn -6.701043E-06 0.967553 0.2526682
vn -1.666856E-06 -0.02362813 -0.9997208
vn 0.9173844 0.01460669 -0.3977342
vn 0.6733367 0.00917914 -0.739279
vn 0.2479889 -0.9137374 -0.3218471
vn 0.1603194 -0.9800997 -0.117056
vn -0.7300445 -0.01948777 0.6831216
vn -0.9174244 -0.01948316 0.3974327
vn -0.8672552 -0.02114928 -0.4974144
vn 0.1784109 -0.975643 0.1276336
vn 0.9060102 0.01455629 0.4230056
vn 8.109955E-07 0.01242496 0.9999229
vn 8.566922E-06 -0.9595689 0.2814737
vn -1.666856E-06 -0.02362813 -0.9997208
vn -0.2247217 0.9274633 -0.2988509
vn -0.9173841 0.0145909 -0.3977355
vn -0.6733362 0.009168462 -0.7392796
vn -0.1305782 0.9856962 -0.1065474
vn 0.730045 -0.01947562 0.6831215
vn -0.9060105 0.01454082 0.4230052
vn 0.917425 -0.01946729 0.3974321
vn -0.1505684 0.9818319 0.1154782
vn 8.109955E-07 0.01242496 0.9999229
vn 0.8672546 -0.02113242 -0.4974162
vn -6.701043E-06 0.967553 0.2526682
vn -1.666856E-06 -0.02362813 -0.9997208
vn -0.9173841 0.0145909 -0.3977355
vn -0.2479727 -0.9137421 -0.321846
vn -0.6733362 0.009168462 -0.7392796
vn -0.160302 -0.9801027 -0.1170554
vn 0.730045 -0.01947562 0.6831215
vn 0.917425 -0.01946729 0.3974321
vn 0.8672546 -0.02113242 -0.4974162
vn -0.1783905 -0.9756469 0.1276322
vn -0.9060105 0.01454082 0.4230052
vn -1.666856E-06 -0.02362813 -0.9997208
vn 8.109955E-07 0.01242496 0.9999229
vn 8.566922E-06 -0.9595689 0.2814737
g Cheat_Ring3_0
f 3/3/3 2/2/2 1/1/1
f 2/2/2 4/4/4 1/1/1
f 4/4/4 2/2/2 5/5/5
f 6/6/6 1/1/1 4/4/4
f 7/7/7 4/4/4 5/5/5
f 8/8/8 6/6/6 4/4/4
f 8/8/8 4/4/4 7/7/7
f 6/6/6 8/8/8 9/9/9
f 10/10/10 8/8/8 7/7/7
f 8/8/8 11/11/11 9/9/9
f 8/8/8 10/10/10 11/11/11
f 10/10/10 12/12/12 11/11/11
f 15/15/15 14/14/14 13/13/13
f 16/16/16 15/15/15 13/13/13
f 15/15/15 16/16/16 17/17/17
f 16/16/16 18/18/18 17/17/17
f 19/19/19 18/18/18 16/16/16
f 20/20/20 16/16/16 13/13/13
f 20/20/20 19/19/19 16/16/16
f 21/21/21 20/20/20 13/13/13
f 20/20/20 21/21/21 22/22/22
f 23/23/23 20/20/20 22/22/22
f 19/19/19 20/20/20 23/23/23
f 24/24/24 19/19/19 23/23/23
f 27/27/27 26/26/26 25/25/25
f 26/26/26 28/28/28 25/25/25
f 25/25/25 28/28/28 29/29/29
f 28/28/28 26/26/26 30/30/30
f 28/28/28 31/31/31 29/29/29
f 32/32/32 28/28/28 30/30/30
f 31/31/31 28/28/28 32/32/32
f 30/30/30 33/33/33 32/32/32
f 34/34/34 31/31/31 32/32/32
f 33/33/33 35/35/35 32/32/32
f 36/36/36 34/34/34 32/32/32
f 35/35/35 36/36/36 32/32/32
f 39/39/39 38/38/38 37/37/37
f 38/38/38 40/40/40 37/37/37
f 40/40/40 38/38/38 41/41/41
f 42/42/42 40/40/40 41/41/41
f 40/40/40 42/42/42 43/43/43
f 37/37/37 40/40/40 44/44/44
f 44/44/44 40/40/40 43/43/43
f 45/45/45 37/37/37 44/44/44
f 43/43/43 46/46/46 44/44/44
f 45/45/45 44/44/44 47/47/47
f 46/46/46 48/48/48 44/44/44
f 44/44/44 48/48/48 47/47/47
