g Chest_Lock
v 0.0116959 -0.004260178 -0.005219955
v 0.0116705 -0.04074078 0.09464084
v 0.01170562 -0.004264317 0.06295656
v -0.02173143 -0.004260178 -0.005219955
v -0.02174114 -0.004264317 0.06295656
v -0.02170557 -0.04074078 0.09464084
v 0.0116705 -0.04074078 0.09464084
v 0.0116959 -0.004260178 -0.005219955
v -0.02173143 -0.004260178 -0.005219955
v -0.02170557 -0.04074078 0.09464084
v 0.06017124 -0.003004494 0.1867604
v 0.0788343 -0.003004513 0.1227772
v 0.03647988 -0.05208828 0.1504276
v 0.03647988 -0.05208828 0.09646308
v 0.06017124 -0.003004513 0.06033331
v -0.03648002 -0.05208828 0.09646324
v 0.03647988 -0.05208828 0.09646308
v 0.06017124 -0.003004513 0.06033331
v -0.0601716 -0.003004513 0.06033331
v -0.0601716 -0.003004494 0.1867604
v -0.03648002 -0.05208828 0.1504278
v -0.0788343 -0.003004513 0.1227772
v -0.03648002 -0.05208828 0.09646324
v -0.0601716 -0.003004513 0.06033331
v -0.03648002 -0.05208828 0.1504278
v 0.03647988 -0.05208828 0.1504276
v 0.03647988 -0.05208828 0.09646308
v -0.03648002 -0.05208828 0.09646324
v 0.06017124 -0.003004494 0.1867604
v 0.03647988 -0.05208828 0.1504276
v -0.03648002 -0.05208828 0.1504278
v -0.0601716 -0.003004494 0.1867604
v -0.01668568 0.007474117 0.274819
v -0.0167141 0.03173597 0.2614527
v 0.01671323 0.03173597 0.2614527
v 0.01668506 0.007474117 0.274819
v -0.01668311 -0.03245159 0.2611334
v 0.01668269 -0.03245159 0.2611334
v 0.01668691 -0.008889389 0.2183548
v -0.01668773 -0.008889389 0.2183548
v 0.01668783 -0.03259735 0.161424
v -0.01668824 -0.03259735 0.161424
v -0.01668568 0.007474117 0.274819
v -0.01671318 0.01621454 0.2270378
v -0.0167141 0.03173597 0.2614527
v -0.01668773 -0.008889389 0.2183548
v -0.01668311 -0.03245159 0.2611334
v -0.01670346 -0.007123584 0.156968
v -0.01668824 -0.03259735 0.161424
v 0.01671323 0.03173597 0.2614527
v 0.01671281 0.01621454 0.2270378
v 0.01668506 0.007474117 0.274819
v 0.01668691 -0.008889389 0.2183548
v 0.01668269 -0.03245159 0.2611334
v 0.01670305 -0.007123603 0.1569675
v 0.01668783 -0.03259735 0.161424
v -0.01668824 -0.03259735 0.161424
v 0.01668783 -0.03259735 0.161424
v 0.01670305 -0.007123603 0.1569675
v -0.01670346 -0.007123584 0.156968
vt 0.8204337 0.6967505
vt 0.8776092 0.6861676
vt 0.8599093 0.7017965
vt 0.8205036 0.6967495
vt 0.8598908 0.7017844
vt 0.8774222 0.6859558
vt 0.8715913 0.6567419
vt 0.8071531 0.656742
vt 0.8071543 0.6768552
vt 0.8715937 0.6768551
vt 0.9241517 0.88861
vt 0.9401567 0.84936
vt 0.9078224 0.8626682
vt 0.9078693 0.8362875
vt 0.9241214 0.8085794
vt 0.8669744 0.8362881
vt 0.9078693 0.8362875
vt 0.9241214 0.8085794
vt 0.8507216 0.8085815
vt 0.8506924 0.888611
vt 0.8670218 0.8626688
vt 0.8346881 0.8493609
vt 0.8669744 0.8362881
vt 0.8507216 0.8085815
vt 0.8670218 0.8626688
vt 0.9078224 0.8626682
vt 0.9078693 0.8362875
vt 0.8669744 0.8362881
vt 0.9241517 0.88861
vt 0.9078224 0.8626682
vt 0.8670218 0.8626688
vt 0.8506924 0.888611
vt 0.6823415 0.7210271
vt 0.6667318 0.7210271
vt 0.6667318 0.7407454
vt 0.6823415 0.7407454
vt 0.702608 0.7210271
vt 0.7026092 0.7407454
vt 0.7295827 0.7407453
vt 0.7295804 0.721027
vt 0.7617505 0.7407453
vt 0.7617494 0.721027
vt 0.8591092 0.7489219
vt 0.8389432 0.7553774
vt 0.8572453 0.7649785
vt 0.8307247 0.7407516
vt 0.8545579 0.7297834
vt 0.7947025 0.7486558
vt 0.7970508 0.7365576
vt 0.8572453 0.7649788
vt 0.8389432 0.7553774
vt 0.8591093 0.7489219
vt 0.8307247 0.7407516
vt 0.8545581 0.7297834
vt 0.7947024 0.7486559
vt 0.7970508 0.7365576
vt 0.7617494 0.721027
vt 0.7617505 0.7407453
vt 0.7732728 0.7407453
vt 0.7732728 0.721027
vn 0.9999994 -0.001086512 -0.0001425893
vn 0.9999994 -0.001086512 -0.0001425893
vn 0.9999994 -0.001086512 -0.0001425893
vn -0.9999994 -0.001099017 -0.0001425376
vn -0.9999994 -0.001099016 -0.0001425376
vn -0.9999994 -0.001099017 -0.0001425376
vn 0 -0.9392862 -0.3431348
vn 0 -0.9392862 -0.3431348
vn 0 -0.9392862 -0.3431348
vn 0 -0.9392862 -0.3431348
vn 0.7972996 -0.5569813 0.2325622
vn 0.8019713 -0.5973551 -0.002969263
vn 0.7822138 -0.6133226 0.1094391
vn 0.7808746 -0.6149673 -0.1097726
vn 0.7947847 -0.5584717 -0.2375428
vn -6.394905E-07 -0.592804 -0.8053467
vn -6.394905E-07 -0.592804 -0.8053467
vn -6.394905E-07 -0.592804 -0.8053467
vn -6.394905E-07 -0.592804 -0.8053467
vn -0.7973008 -0.5569813 0.2325581
vn -0.7822147 -0.6133218 0.1094372
vn -0.8019716 -0.5973548 -0.002969559
vn -0.7808751 -0.6149671 -0.1097703
vn -0.7947851 -0.558473 -0.2375384
vn 0 -1 0
vn 0 -1 0
vn 0 -1 0
vn 0 -1 0
vn 9.533039E-07 -0.5949562 0.8037581
vn 9.533039E-07 -0.5949562 0.803758
vn 9.533039E-07 -0.5949562 0.8037581
vn 9.533039E-07 -0.5949562 0.8037581
vn 0 0.08670536 0.996234
vn 0 0.4825345 0.875877
vn 0 0.4825345 0.875877
vn 0 0.0867034 0.9962341
vn 0 -0.9328518 0.3602604
vn 0 -0.9328514 0.3602616
vn 0 -0.99852 -0.05438736
vn 0 -0.99852 -0.05438708
vn 0 -0.923153 0.3844329
vn 0 -0.923153 0.3844329
vn -0.9999998 -0.000629159 0.000253311
vn -0.9999994 -0.001015456 0.0003354683
vn -0.9999995 -0.0009502298 0.0004017517
vn -0.9999998 -0.0007549028 0.0002310085
vn -1 -8.527541E-05 6.115312E-05
vn -0.9999996 -0.0008234371 0.0002325324
vn -0.9999996 -0.0008234371 0.0002325325
vn 0.9999995 -0.0009354054 0.0004097527
vn 0.9999994 -0.001025485 0.000339757
vn 0.9999998 -0.0006243205 0.0002543688
vn 0.9999998 -0.000763491 0.0002340112
vn 1 -7.817536E-05 5.542194E-05
vn 0.9999996 -0.0008330744 0.0002390115
vn 0.9999996 -0.0008330743 0.0002390115
vn -7.363273E-06 -0.1723204 -0.985041
vn -7.363273E-06 -0.1723204 -0.985041
vn -7.363273E-06 -0.1723204 -0.985041
vn -7.363273E-06 -0.1723204 -0.985041
g Chest_Lock_0
f 3/3/3 2/2/2 1/1/1
f 6/6/6 5/5/5 4/4/4
f 9/9/9 8/8/8 7/7/7
f 10/10/10 9/9/9 7/7/7
f 13/13/13 12/12/12 11/11/11
f 14/14/14 12/12/12 13/13/13
f 15/15/15 12/12/12 14/14/14
f 18/18/18 17/17/17 16/16/16
f 19/19/19 18/18/18 16/16/16
f 22/22/22 21/21/21 20/20/20
f 23/23/23 21/21/21 22/22/22
f 22/22/22 24/24/24 23/23/23
f 27/27/27 26/26/26 25/25/25
f 28/28/28 27/27/27 25/25/25
f 31/31/31 30/30/30 29/29/29
f 32/32/32 31/31/31 29/29/29
f 35/35/35 34/34/34 33/33/33
f 36/36/36 35/35/35 33/33/33
f 36/36/36 33/33/33 37/37/37
f 38/38/38 36/36/36 37/37/37
f 39/39/39 38/38/38 37/37/37
f 40/40/40 39/39/39 37/37/37
f 41/41/41 39/39/39 40/40/40
f 42/42/42 41/41/41 40/40/40
f 45/45/45 44/44/44 43/43/43
f 44/44/44 46/46/46 43/43/43
f 43/43/43 46/46/46 47/47/47
f 46/46/46 44/44/44 48/48/48
f 49/49/49 46/46/46 48/48/48
f 52/52/52 51/51/51 50/50/50
f 52/52/52 53/53/53 51/51/51
f 54/54/54 53/53/53 52/52/52
f 51/51/51 53/53/53 55/55/55
f 53/53/53 56/56/56 55/55/55
f 59/59/59 58/58/58 57/57/57
f 60/60/60 59/59/59 57/57/57
