g Chest_Ring2
v 0.01110706 -0.02008277 0.03069485
v 0.04600227 -0.08778881 0.005109863
v -0.01247356 -0.02008277 0.00510107
v 0.05388592 -0.06357636 0.03070364
v 0.03480499 -0.02042648 0.004198151
v 0.05967151 -0.04019423 0.004200401
v 0.158344 -0.04019423 0.004200401
v 0.1641296 -0.06357636 0.03070364
v 0.1720138 -0.08778881 0.005109863
v 0.187392 9.568408E-08 0.004200401
v 0.2394896 9.568408E-08 0.005109863
v 0.2129863 9.596348E-08 0.03070364
v 0.01029793 -0.02008277 -0.02140217
v -0.01247356 -0.02008277 0.00510107
v 0.04600227 -0.08778881 0.005109863
v 0.05388592 -0.06440677 -0.02139332
v 0.03480499 -0.02042648 0.004198151
v 0.1720138 -0.08778881 0.005109863
v 0.05967151 -0.04019423 0.004200401
v 0.1641296 -0.06440677 -0.02139332
v 0.2394896 9.568408E-08 0.005109863
v 0.158344 -0.04019423 0.004200401
v 0.2138953 9.596348E-08 -0.02139332
v 0.187392 9.568408E-08 0.004200401
v 0.01029793 0.02008236 -0.02140217
v 0.04600227 0.08778881 0.005109863
v -0.01247356 0.02008236 0.00510107
v 0.05388592 0.06440673 -0.02139332
v 0.03480499 0.02042654 0.004198151
v 0.1720138 0.08778881 0.005109863
v 0.05967151 0.04019433 0.004200401
v 0.1641296 0.06440673 -0.02139332
v 0.2394896 9.568408E-08 0.005109863
v 0.158344 0.04019433 0.004200401
v 0.2138953 9.596348E-08 -0.02139332
v 0.187392 9.568408E-08 0.004200401
v 0.04600227 0.08778881 0.005109863
v 0.01110706 0.02008236 0.03069485
v -0.01247356 0.02008236 0.00510107
v 0.05388592 0.06357595 0.03070364
v 0.03480499 0.02042654 0.004198151
v 0.05967151 0.04019433 0.004200401
v 0.158344 0.04019433 0.004200401
v 0.1641296 0.06357595 0.03070364
v 0.1720138 0.08778881 0.005109863
v 0.187392 9.568408E-08 0.004200401
v 0.2394896 9.568408E-08 0.005109863
v 0.2129863 9.596348E-08 0.03070364
vt 0.9063807 0.2277503
vt 0.9428907 0.2536388
vt 0.9161006 0.2114379
vt 0.9235784 0.2576161
vt 0.8968685 0.2445166
vt 0.9043434 0.2604139
vt 0.9032818 0.3143176
vt 0.922467 0.3176181
vt 0.9416834 0.3221487
vt 0.8859286 0.3374784
vt 0.9056196 0.3725153
vt 0.8957725 0.3549937
vt 0.9063585 0.2276214
vt 0.9160979 0.2112767
vt 0.9429412 0.2535611
vt 0.9235902 0.2575466
vt 0.8968276 0.2444209
vt 0.9417312 0.3222072
vt 0.9043173 0.2603499
vt 0.9224772 0.3176678
vt 0.905596 0.372674
vt 0.9032536 0.3143606
vt 0.8957293 0.3551176
vt 0.885866 0.3375676
vt 0.906359 0.2276235
vt 0.9429405 0.2535625
vt 0.9160979 0.2112796
vt 0.9235901 0.2575479
vt 0.8968284 0.2444226
vt 0.9417306 0.3222063
vt 0.9043176 0.260351
vt 0.9224768 0.3176667
vt 0.9055964 0.372671
vt 0.9032542 0.31436
vt 0.89573 0.3551154
vt 0.8858669 0.337566
vt 0.9428916 0.2536373
vt 0.9063801 0.2277482
vt 0.9161006 0.2114354
vt 0.9235784 0.257615
vt 0.8968679 0.2445148
vt 0.9043428 0.2604128
vt 0.9032815 0.3143184
vt 0.9224672 0.3176189
vt 0.941684 0.3221496
vt 0.8859277 0.3374798
vt 0.9056191 0.3725178
vt 0.8957718 0.3549958
vn -0.2988407 -0.2247165 0.9274679
vn -0.3977338 -0.9173847 0.01459575
vn -0.7392776 -0.6733384 0.009174396
vn -0.1065433 -0.1305719 0.9856975
vn 0.6831231 0.7300433 -0.0194845
vn 0.3974345 0.9174238 -0.01947748
vn -0.4974174 0.8672537 -0.02113976
vn 0.1154775 -0.15056 0.9818333
vn 0.423007 -0.9060096 0.01454431
vn -0.9997209 -2.00727E-06 -0.02362667
vn 0.9999229 2.561061E-07 0.0124217
vn 0.2526678 0 0.9675531
vn -0.321844 -0.2479757 -0.9137421
vn -0.7392776 -0.6733384 0.009174396
vn -0.3977338 -0.9173847 0.01459575
vn -0.1170561 -0.1603047 -0.9801021
vn 0.6831231 0.7300433 -0.0194845
vn 0.423007 -0.9060096 0.01454431
vn 0.3974345 0.9174238 -0.01947748
vn 0.1276287 -0.178397 -0.9756461
vn 0.9999229 2.561061E-07 0.0124217
vn -0.4974174 0.8672537 -0.02113976
vn 0.2814654 2.537217E-07 -0.9595713
vn -0.9997209 -2.00727E-06 -0.02362667
vn -0.3218465 0.2479761 -0.9137411
vn -0.3977346 0.9173843 0.01459802
vn -0.7392793 0.6733363 0.00917589
vn -0.1170565 0.1603034 -0.9801024
vn 0.6831244 -0.730042 -0.01948631
vn 0.4230061 0.90601 0.01454649
vn 0.3974348 -0.9174237 -0.01948091
vn 0.1276278 0.1783958 -0.9756464
vn 0.9999229 2.561061E-07 0.0124217
vn -0.4974146 -0.8672553 -0.02114308
vn 0.2814654 2.537217E-07 -0.9595713
vn -0.9997209 -2.00727E-06 -0.02362667
vn -0.3977346 0.9173843 0.01459802
vn -0.2988423 0.2247161 0.9274674
vn -0.7392793 0.6733363 0.00917589
vn -0.1065418 0.1305644 0.9856986
vn 0.6831244 -0.730042 -0.01948631
vn 0.3974348 -0.9174237 -0.01948091
vn -0.4974146 -0.8672553 -0.02114308
vn 0.1154749 0.1505536 0.9818346
vn 0.4230061 0.90601 0.01454649
vn -0.9997209 -2.00727E-06 -0.02362667
vn 0.9999229 2.561061E-07 0.0124217
vn 0.2526678 0 0.9675531
g Chest_Ring2_0
f 3/3/3 2/2/2 1/1/1
f 2/2/2 4/4/4 1/1/1
f 1/1/1 4/4/4 5/5/5
f 4/4/4 6/6/6 5/5/5
f 6/6/6 4/4/4 7/7/7
f 4/4/4 2/2/2 8/8/8
f 4/4/4 8/8/8 7/7/7
f 2/2/2 9/9/9 8/8/8
f 10/10/10 7/7/7 8/8/8
f 8/8/8 9/9/9 11/11/11
f 12/12/12 10/10/10 8/8/8
f 12/12/12 8/8/8 11/11/11
f 15/15/15 14/14/14 13/13/13
f 16/16/16 15/15/15 13/13/13
f 16/16/16 13/13/13 17/17/17
f 15/15/15 16/16/16 18/18/18
f 19/19/19 16/16/16 17/17/17
f 16/16/16 20/20/20 18/18/18
f 16/16/16 19/19/19 20/20/20
f 21/21/21 18/18/18 20/20/20
f 19/19/19 22/22/22 20/20/20
f 23/23/23 21/21/21 20/20/20
f 22/22/22 24/24/24 20/20/20
f 24/24/24 23/23/23 20/20/20
f 27/27/27 26/26/26 25/25/25
f 26/26/26 28/28/28 25/25/25
f 25/25/25 28/28/28 29/29/29
f 28/28/28 26/26/26 30/30/30
f 28/28/28 31/31/31 29/29/29
f 32/32/32 28/28/28 30/30/30
f 31/31/31 28/28/28 32/32/32
f 30/30/30 33/33/33 32/32/32
f 34/34/34 31/31/31 32/32/32
f 33/33/33 35/35/35 32/32/32
f 36/36/36 34/34/34 32/32/32
f 35/35/35 36/36/36 32/32/32
f 39/39/39 38/38/38 37/37/37
f 38/38/38 40/40/40 37/37/37
f 40/40/40 38/38/38 41/41/41
f 42/42/42 40/40/40 41/41/41
f 40/40/40 42/42/42 43/43/43
f 37/37/37 40/40/40 44/44/44
f 44/44/44 40/40/40 43/43/43
f 45/45/45 37/37/37 44/44/44
f 43/43/43 46/46/46 44/44/44
f 45/45/45 44/44/44 47/47/47
f 46/46/46 48/48/48 44/44/44
f 44/44/44 48/48/48 47/47/47
