g column_1
v 5.781456 1.584801 6.183982E-07
v 7.508656 1.737091 7.011497
v 5.468967 11.64308 7.006304
v 4.030174 11.66632 6.183982E-07
v 5.569931 1.43219 6.083369
v 5.468967 11.64308 7.006304
v 7.508656 1.737091 7.011497
v 3.33902 13.41543 6.076802
v 2.65266 0.7134705 3.693619
v -0.21772 13.03515 3.689631
v -3.877499 13.1544 6.183982E-07
v 0 0 6.183982E-07
v -0.3334389 17.89724 3.689631
v 3.236626 22.70787 6.076802
v 3.33902 13.41543 6.076802
v 2.73204 13.37321 6.183982E-07
v 4.030174 11.66632 6.183982E-07
v 5.468967 11.64308 7.006304
v 2.551643 21.83938 6.183982E-07
v 2.73204 13.37321 6.183982E-07
v 3.33902 13.41543 6.076802
v 3.236626 22.70787 6.076802
v 5.781456 1.584801 6.183982E-07
v 4.030174 11.66632 6.183982E-07
v 5.468967 11.64308 -7.006303
v 7.508656 1.737091 -7.011496
v 5.569931 1.43219 -6.083368
v 7.508656 1.737091 -7.011496
v 5.468967 11.64308 -7.006303
v 3.33902 13.41543 -6.076801
v 2.65266 0.7134705 -3.693617
v -0.21772 13.03515 -3.68963
v -3.877499 13.1544 6.183982E-07
v 0 0 6.183982E-07
v -0.3334389 17.89724 -3.68963
v 3.236626 22.70787 -6.076801
v 3.33902 13.41543 -6.076801
v 5.468967 11.64308 -7.006303
v 4.030174 11.66632 6.183982E-07
v 2.73204 13.37321 6.183982E-07
v 2.551643 21.83938 6.183982E-07
v 3.236626 22.70787 -6.076801
v 3.33902 13.41543 -6.076801
v 2.73204 13.37321 6.183982E-07
v -0.3334389 17.89724 3.689631
v 2.551643 21.83938 6.183982E-07
v 3.236626 22.70787 6.076802
v -3.877499 13.1544 6.183982E-07
v -0.3334389 17.89724 -3.68963
v 3.236626 22.70787 -6.076801
vt 0.8668141 0.01845266
vt 0.9921468 0.01845266
vt 0.9896104 0.189309
vt 0.8668141 0.1945125
vt 0.7063739 0.01846587
vt 0.6626015 0.188638
vt 0.6695951 0.01846587
vt 0.6941768 0.2258899
vt 0.7716822 0.01846587
vt 0.766122 0.2348592
vt 0.8519008 0.2551697
vt 0.8519008 0.01846587
vt 0.7503493 0.3161917
vt 0.6615048 0.3807147
vt 0.9696023 0.2338534
vt 0.8668141 0.2315778
vt 0.8668141 0.1945125
vt 0.9896104 0.189309
vt 0.8668141 0.3762611
vt 0.8668141 0.2315778
vt 0.9696023 0.2338534
vt 0.9684776 0.3919592
vt 0.8668141 0.01845266
vt 0.8668141 0.1945125
vt 0.9896104 0.189309
vt 0.9921468 0.01845266
vt 0.7063739 0.01846587
vt 0.6695951 0.01846587
vt 0.6626015 0.188638
vt 0.6941768 0.2258899
vt 0.7716822 0.01846587
vt 0.766122 0.2348592
vt 0.8519008 0.2551697
vt 0.8519008 0.01846587
vt 0.7503493 0.3161917
vt 0.6615048 0.3807147
vt 0.9696023 0.2338534
vt 0.9896104 0.189309
vt 0.8668141 0.1945125
vt 0.8668141 0.2315778
vt 0.8668141 0.3762611
vt 0.9684776 0.3919592
vt 0.9696023 0.2338534
vt 0.8668141 0.2315778
vt 0.9330275 0.4965827
vt 0.8702254 0.5800593
vt 0.9739677 0.5986741
vt 0.8701242 0.3954041
vt 0.8080381 0.4966483
vt 0.7655271 0.597891
vn 0.982495 0.1862887 0
vn 0.958815 0.1817988 -0.218227
vn 0.958815 0.1817988 -0.218227
vn 0.982495 0.1862887 0
vn -0.5292885 -0.1000402 0.8425233
vn -0.4390791 -0.08518405 0.8944011
vn -0.4390791 -0.08518405 0.8944011
vn -0.5343494 -0.06979656 0.8423771
vn -0.6832708 -0.1664957 0.7109292
vn -0.6360474 -0.08233885 0.7672445
vn -0.7187855 -0.1204024 0.6847267
vn -0.7697576 -0.2269 0.5966486
vn -0.5956787 -0.01073335 0.8031511
vn -0.5522603 -0.00851001 0.8336283
vn 0.7227374 0.6816555 -0.1140016
vn 0.7274802 0.6861287 0
vn 0.7274802 0.6861287 0
vn 0.7227374 0.6816555 -0.1140016
vn 0.9998733 0.01592215 0
vn 0.9998733 0.01592215 0
vn 0.9941473 0.01583097 -0.1068669
vn 0.9941473 0.01583097 -0.1068669
vn 0.982495 0.1862887 0
vn 0.982495 0.1862887 0
vn 0.958815 0.1817988 0.218227
vn 0.958815 0.1817988 0.218227
vn -0.5292886 -0.1000402 -0.8425233
vn -0.4390791 -0.08518405 -0.8944011
vn -0.4390791 -0.08518404 -0.8944011
vn -0.5343494 -0.06979657 -0.8423771
vn -0.6832708 -0.1664958 -0.7109291
vn -0.6360474 -0.08233888 -0.7672445
vn -0.7187855 -0.1204025 -0.6847267
vn -0.7697576 -0.2269 -0.5966486
vn -0.5956787 -0.01073335 -0.8031511
vn -0.5522605 -0.008510012 -0.8336283
vn 0.7227374 0.6816555 0.1140016
vn 0.7227374 0.6816555 0.1140016
vn 0.7274802 0.6861287 0
vn 0.7274802 0.6861287 0
vn 0.9998733 0.01592215 0
vn 0.9941473 0.01583097 0.1068669
vn 0.9941473 0.01583097 0.1068669
vn 0.9998733 0.01592215 0
vn -0.8037209 0.5949627 0.007216016
vn -0.8037209 0.5949627 0.007216018
vn -0.8043805 0.5940863 0.005764052
vn -0.8037209 0.5949627 0.007216017
vn -0.8037209 0.5949627 -0.007216065
vn -0.8043805 0.5940864 -0.005764052
g column_1_0
f 3/3/3 2/2/2 1/1/1
f 4/4/4 3/3/3 1/1/1
f 7/7/7 6/6/6 5/5/5
f 6/6/6 8/8/8 5/5/5
f 5/5/5 8/8/8 9/9/9
f 8/8/8 10/10/10 9/9/9
f 10/10/10 11/11/11 9/9/9
f 9/9/9 11/11/11 12/12/12
f 10/10/10 13/13/13 11/11/11
f 13/13/13 10/10/10 8/8/8
f 14/14/14 13/13/13 8/8/8
f 17/17/17 16/16/16 15/15/15
f 18/18/18 17/17/17 15/15/15
f 21/21/21 20/20/20 19/19/19
f 22/22/22 21/21/21 19/19/19
f 25/25/25 24/24/24 23/23/23
f 26/26/26 25/25/25 23/23/23
f 29/29/29 28/28/28 27/27/27
f 30/30/30 29/29/29 27/27/27
f 30/30/30 27/27/27 31/31/31
f 32/32/32 30/30/30 31/31/31
f 32/32/32 31/31/31 33/33/33
f 33/33/33 31/31/31 34/34/34
f 35/35/35 32/32/32 33/33/33
f 32/32/32 35/35/35 30/30/30
f 35/35/35 36/36/36 30/30/30
f 39/39/39 38/38/38 37/37/37
f 40/40/40 39/39/39 37/37/37
f 43/43/43 42/42/42 41/41/41
f 44/44/44 43/43/43 41/41/41
f 47/47/47 46/46/46 45/45/45
f 45/45/45 46/46/46 48/48/48
f 49/49/49 48/48/48 46/46/46
f 50/50/50 49/49/49 46/46/46
