g column_outer
v 0.3939666 0.02248767 -0.00077793
v 0.3171901 0.0387736 -0.00077793
v 0.3846603 0.02248767 -0.1031466
v 0.2729855 0.0387736 -0.158984
v 0.3404557 0.02248767 -0.196209
v 0.2822917 0.02248767 -0.2822917
v 0.2055152 0.1062438 -0.1194325
v 0.238087 0.1062438 -0.00077793
v 0.158984 0.0387736 -0.2729855
v 0.196209 0.02248767 -0.3404557
v 0.1031466 0.02248767 -0.3846603
v 0.2055152 1.986104 -0.1194325
v 0.238087 1.986104 -0.00077793
v 0.1194325 1.986104 -0.2055152
v 0.1194325 0.1062438 -0.2055152
v 0.00077793 1.986104 -0.238087
v 0.00077793 0.1062438 -0.238087
v 0.00077793 0.0387736 -0.3171901
v 0.00077793 0.02248767 -0.3939666
v 0.00077793 0.02248767 -0.3939666
v 0.00077793 0.0387736 -0.3171901
v -0.1039173 0.02248767 -0.3846603
v -0.1574281 0.0387736 -0.2729855
v -0.1969796 0.02248767 -0.3404557
v -0.2807358 0.02248767 -0.2822917
v -0.1202032 0.1062438 -0.2055152
v 0.00077793 0.1062438 -0.238087
v -0.2737561 0.0387736 -0.158984
v -0.3412263 0.02248767 -0.196209
v -0.385431 0.02248767 -0.1031466
v -0.1202032 1.986104 -0.2055152
v 0.00077793 1.986104 -0.238087
v -0.2062859 1.986104 -0.1194325
v -0.2062859 0.1062438 -0.1194325
v -0.2388577 1.986104 -0.00077793
v -0.2388577 0.1062438 -0.00077793
v -0.3156342 0.0387736 -0.00077793
v -0.3947372 0.02248767 -0.00077793
v -0.3947372 0.02248767 -0.00077793
v -0.3156342 0.0387736 -0.00077793
v -0.385431 0.02248767 0.1039173
v -0.2737561 0.0387736 0.1574281
v -0.3412263 0.02248767 0.1969796
v -0.2807358 0.02248767 0.2807358
v -0.2062859 0.1062438 0.1202032
v -0.2388577 0.1062438 -0.00077793
v -0.1574281 0.0387736 0.2737561
v -0.1969796 0.02248767 0.3412263
v -0.1039173 0.02248767 0.385431
v -0.2062859 1.986104 0.1202032
v -0.2388577 1.986104 -0.00077793
v -0.1202032 1.986104 0.2062859
v -0.1202032 0.1062438 0.2062859
v 0.00077793 1.986104 0.2388577
v 0.00077793 0.1062438 0.2388577
v 0.00077793 0.0387736 0.3156342
v 0.00077793 0.02248767 0.3947372
v 0.00077793 0.02248767 0.3947372
v 0.00077793 0.0387736 0.3156342
v 0.1031466 0.02248767 0.385431
v 0.158984 0.0387736 0.2737561
v 0.196209 0.02248767 0.3412263
v 0.2822917 0.02248767 0.2807358
v 0.1194325 0.1062438 0.2062859
v 0.00077793 0.1062438 0.2388577
v 0.2729855 0.0387736 0.1574281
v 0.3404557 0.02248767 0.1969796
v 0.3846603 0.02248767 0.1039173
v 0.1194325 1.986104 0.2062859
v 0.00077793 1.986104 0.2388577
v 0.2055152 1.986104 0.1202032
v 0.2055152 0.1062438 0.1202032
v 0.238087 1.986104 -0.00077793
v 0.238087 0.1062438 -0.00077793
v 0.3171901 0.0387736 -0.00077793
v 0.3939666 0.02248767 -0.00077793
vt 0.9960783 0
vt 0.9960783 0.03137254
vt 0.9529411 0
vt 0.9137254 0.03137254
vt 0.9137254 0
vt 0.8705881 0
vt 0.9137254 0.1019608
vt 0.9960783 0.1019608
vt 0.8274509 0.03137254
vt 0.8274509 0
vt 0.7882352 0
vt 0.9137254 0.9999999
vt 0.9960783 0.9999999
vt 0.8274509 0.9999999
vt 0.8274509 0.1019608
vt 0.7450979 0.9999999
vt 0.7450979 0.1019608
vt 0.7450979 0.03137254
vt 0.7450979 0
vt 0.7450979 0
vt 0.7450979 0.03137254
vt 0.7882352 0
vt 0.8274509 0.03137254
vt 0.8274509 0
vt 0.8705881 0
vt 0.8274509 0.1019608
vt 0.7450979 0.1019608
vt 0.9137254 0.03137254
vt 0.9137254 0
vt 0.9529411 0
vt 0.8274509 0.9999999
vt 0.7450979 0.9999999
vt 0.9137254 0.9999999
vt 0.9137254 0.1019608
vt 0.9960783 0.9999999
vt 0.9960783 0.1019608
vt 0.9960783 0.03137254
vt 0.9960783 0
vt 0.9960783 0
vt 0.9960783 0.03137254
vt 0.9529411 0
vt 0.9137254 0.03137254
vt 0.9137254 0
vt 0.8705881 0
vt 0.9137254 0.1019608
vt 0.9960783 0.1019608
vt 0.8274509 0.03137254
vt 0.8274509 0
vt 0.7882352 0
vt 0.9137254 0.9999999
vt 0.9960783 0.9999999
vt 0.8274509 0.9999999
vt 0.8274509 0.1019608
vt 0.7450979 0.9999999
vt 0.7450979 0.1019608
vt 0.7450979 0.03137254
vt 0.7450979 0
vt 0.7450979 0
vt 0.7450979 0.03137254
vt 0.7882352 0
vt 0.8274509 0.03137254
vt 0.8274509 0
vt 0.8705881 0
vt 0.8274509 0.1019608
vt 0.7450979 0.1019608
vt 0.9137254 0.03137254
vt 0.9137254 0
vt 0.9529411 0
vt 0.8274509 0.9999999
vt 0.7450979 0.9999999
vt 0.9137254 0.9999999
vt 0.9137254 0.1019608
vt 0.9960783 0.9999999
vt 0.9960783 0.1019608
vt 0.9960783 0.03137254
vt 0.9960783 0
vn 0.2063232 0.968132 -0.1419547
vn 0.3967754 0.9046479 -0.1555036
vn 0.1745812 0.968132 -0.1795601
vn 0.3332914 0.9046479 -0.2655728
vn 0.1745812 0.968132 -0.1795601
vn 0.1428391 0.968132 -0.2057119
vn 0.7776798 0.4285175 -0.4599858
vn 0.9037378 0.4280864 0
vn 0.2063232 0.9046479 -0.3728844
vn 0.1110971 0.968132 -0.2244501
vn 0.04761302 0.968132 -0.2458728
vn 0.8729059 0.01587105 -0.4876305
vn 0.999874 0.01587105 -0.0003439156
vn 0.4920015 0.01587105 -0.8704497
vn 0.4602594 0.4285175 -0.7775179
vn -0.01587105 0.01587105 -0.9997481
vn -0.01587105 0.4285175 -0.9033941
vn -0.01587105 0.9046479 -0.425864
vn -0.01587105 0.968132 -0.249937
vn -0.01587105 0.968132 -0.249937
vn -0.01587105 0.9046479 -0.425864
vn -0.04761302 0.968132 -0.2458728
vn -0.2063233 0.9046479 -0.3728844
vn -0.1110971 0.968132 -0.2244501
vn -0.1428392 0.968132 -0.2057119
vn -0.4602594 0.4285175 -0.7775179
vn -0.01587105 0.4285175 -0.9033941
vn -0.3332913 0.9046479 -0.2655729
vn -0.1745812 0.968132 -0.1795601
vn -0.1745812 0.968132 -0.1795601
vn -0.4920015 0.01587105 -0.8704497
vn -0.01587105 0.01587105 -0.9997481
vn -0.8729059 0.01587105 -0.4876305
vn -0.7776798 0.4285175 -0.4599858
vn -0.999874 0.01587105 -0.0003439156
vn -0.9037378 0.4280863 0
vn -0.3967754 0.9046479 -0.1555036
vn -0.2063233 0.968132 -0.1419547
vn -0.2063233 0.968132 -0.1419547
vn -0.3967754 0.9046479 -0.1555036
vn -0.1745812 0.968132 0.1795601
vn -0.3332913 0.9046479 0.2655729
vn -0.1745812 0.968132 0.1795601
vn -0.1428392 0.968132 0.2057119
vn -0.7776798 0.4285175 0.4599858
vn -0.9037378 0.4280863 0
vn -0.2063233 0.9046479 0.3728844
vn -0.1110971 0.968132 0.2244501
vn -0.04761302 0.968132 0.2458728
vn -0.8729059 0.01587105 0.4876305
vn -0.999874 0.01587105 -0.0003439156
vn -0.4920015 0.01587105 0.8704497
vn -0.4602594 0.4285175 0.7775179
vn -0.01587105 0.01587105 0.9997481
vn -0.01587105 0.4285175 0.9033941
vn -0.01587105 0.9046479 0.425864
vn -0.01587105 0.968132 0.249937
vn -0.01587105 0.968132 0.249937
vn -0.01587105 0.9046479 0.425864
vn 0.04761302 0.968132 0.2458728
vn 0.2063232 0.9046479 0.3728844
vn 0.1110971 0.968132 0.2244501
vn 0.1428391 0.968132 0.2057119
vn 0.4602594 0.4285175 0.7775179
vn -0.01587105 0.4285175 0.9033941
vn 0.3332914 0.9046479 0.2655728
vn 0.1745812 0.968132 0.1795601
vn 0.1745812 0.968132 0.1795601
vn 0.4920015 0.01587105 0.8704497
vn -0.01587105 0.01587105 0.9997481
vn 0.8729059 0.01587105 0.4876305
vn 0.7776798 0.4285175 0.4599858
vn 0.999874 0.01587105 -0.0003439156
vn 0.9037378 0.4280864 0
vn 0.3967754 0.9046479 -0.1555036
vn 0.2063232 0.968132 -0.1419547
g column_outer_0
f 3/3/3 2/2/2 1/1/1
f 4/4/4 2/2/2 3/3/3
f 5/5/5 4/4/4 3/3/3
f 6/6/6 4/4/4 5/5/5
f 2/2/2 4/4/4 7/7/7
f 8/8/8 2/2/2 7/7/7
f 9/9/9 4/4/4 6/6/6
f 10/10/10 9/9/9 6/6/6
f 11/11/11 9/9/9 10/10/10
f 8/8/8 7/7/7 12/12/12
f 13/13/13 8/8/8 12/12/12
f 12/12/12 7/7/7 14/14/14
f 7/7/7 4/4/4 15/15/15
f 7/7/7 15/15/15 14/14/14
f 4/4/4 9/9/9 15/15/15
f 14/14/14 15/15/15 16/16/16
f 15/15/15 17/17/17 16/16/16
f 15/15/15 9/9/9 17/17/17
f 9/9/9 18/18/18 17/17/17
f 18/18/18 9/9/9 11/11/11
f 19/19/19 18/18/18 11/11/11
f 22/22/22 21/21/21 20/20/20
f 23/23/23 21/21/21 22/22/22
f 24/24/24 23/23/23 22/22/22
f 25/25/25 23/23/23 24/24/24
f 21/21/21 23/23/23 26/26/26
f 27/27/27 21/21/21 26/26/26
f 28/28/28 23/23/23 25/25/25
f 29/29/29 28/28/28 25/25/25
f 30/30/30 28/28/28 29/29/29
f 27/27/27 26/26/26 31/31/31
f 32/32/32 27/27/27 31/31/31
f 31/31/31 26/26/26 33/33/33
f 26/26/26 23/23/23 34/34/34
f 26/26/26 34/34/34 33/33/33
f 23/23/23 28/28/28 34/34/34
f 33/33/33 34/34/34 35/35/35
f 34/34/34 36/36/36 35/35/35
f 34/34/34 28/28/28 36/36/36
f 28/28/28 37/37/37 36/36/36
f 37/37/37 28/28/28 30/30/30
f 38/38/38 37/37/37 30/30/30
f 41/41/41 40/40/40 39/39/39
f 42/42/42 40/40/40 41/41/41
f 43/43/43 42/42/42 41/41/41
f 44/44/44 42/42/42 43/43/43
f 40/40/40 42/42/42 45/45/45
f 46/46/46 40/40/40 45/45/45
f 47/47/47 42/42/42 44/44/44
f 48/48/48 47/47/47 44/44/44
f 49/49/49 47/47/47 48/48/48
f 46/46/46 45/45/45 50/50/50
f 51/51/51 46/46/46 50/50/50
f 50/50/50 45/45/45 52/52/52
f 45/45/45 42/42/42 53/53/53
f 45/45/45 53/53/53 52/52/52
f 42/42/42 47/47/47 53/53/53
f 52/52/52 53/53/53 54/54/54
f 53/53/53 55/55/55 54/54/54
f 53/53/53 47/47/47 55/55/55
f 47/47/47 56/56/56 55/55/55
f 56/56/56 47/47/47 49/49/49
f 57/57/57 56/56/56 49/49/49
f 60/60/60 59/59/59 58/58/58
f 61/61/61 59/59/59 60/60/60
f 62/62/62 61/61/61 60/60/60
f 63/63/63 61/61/61 62/62/62
f 59/59/59 61/61/61 64/64/64
f 65/65/65 59/59/59 64/64/64
f 66/66/66 61/61/61 63/63/63
f 67/67/67 66/66/66 63/63/63
f 68/68/68 66/66/66 67/67/67
f 65/65/65 64/64/64 69/69/69
f 70/70/70 65/65/65 69/69/69
f 69/69/69 64/64/64 71/71/71
f 64/64/64 61/61/61 72/72/72
f 64/64/64 72/72/72 71/71/71
f 61/61/61 66/66/66 72/72/72
f 71/71/71 72/72/72 73/73/73
f 72/72/72 74/74/74 73/73/73
f 72/72/72 66/66/66 74/74/74
f 66/66/66 75/75/75 74/74/74
f 75/75/75 66/66/66 68/68/68
f 76/76/76 75/75/75 68/68/68
