g cylinderEmitter02
v -0.08670577 0.0001955032 -0.05014663
v -0.08670577 0.4 -0.05014663
v -0.09648094 0.4 -0.0257087
v -0.09648094 0.0001955032 -0.0257087
v -0.07057673 0.0001955032 -0.07067449
v -0.09990225 0.4 0.0001955032
v -0.07057673 0.4 -0.07067449
v -0.09990225 0.0001955032 0.0001955032
v -0.05004888 0.0001955032 -0.08680352
v -0.09648094 0.4 0.0260997
v -0.05004888 0.4 -0.08680352
v -0.09648094 0.0001955032 0.0260997
v -0.0260997 0.0001955032 -0.09657869
v -0.08670577 0.4 0.05004888
v -0.0260997 0.4 -0.09657869
v -0.08670577 0.0001955032 0.05004888
v -0.0001955032 0.0001955032 -0.1
v -0.07057673 0.4 0.07057673
v -0.0001955032 0.4 -0.1
v -0.07057673 0.0001955032 0.07057673
v 0.0257087 0.0001955032 -0.09657869
v -0.05004888 0.4 0.08670577
v 0.0257087 0.4 -0.09657869
v -0.05004888 0.0001955032 0.08670577
v 0.05014663 0.0001955032 -0.08680352
v -0.0260997 0.4 0.09648094
v 0.05014663 0.4 -0.08680352
v -0.0260997 0.0001955032 0.09648094
v 0.07067449 0.0001955032 -0.07067449
v -0.0001955032 0.4 0.09990225
v 0.07067449 0.4 -0.07067449
v -0.0001955032 0.0001955032 0.09990225
v 0.08680352 0.0001955032 -0.05014663
v 0.0257087 0.4 0.09648094
v 0.08680352 0.4 -0.05014663
v 0.0257087 0.0001955032 0.09648094
v 0.09657869 0.0001955032 -0.0257087
v 0.05014663 0.4 0.08670577
v 0.09657869 0.4 -0.0257087
v 0.05014663 0.0001955032 0.08670577
v 0.1 0.0001955032 0.0001955032
v 0.07067449 0.4 0.07057673
v 0.1 0.4 0.0001955032
v 0.07067449 0.0001955032 0.07057673
v 0.09657869 0.0001955032 0.0260997
v 0.08680352 0.4 0.05004888
v 0.09657869 0.4 0.0260997
v 0.08680352 0.0001955032 0.05004888
vt 0 0
vt 0 0
vt 0 0
vt 0 0
vt 0 0
vt 0 0
vt 0 0
vt 0 0
vt 0 0
vt 0 0
vt 0 0
vt 0 0
vt 0 0
vt 0 0
vt 0 0
vt 0 0
vt 0 0
vt 0 0
vt 0 0
vt 0 0
vt 0 0
vt 0 0
vt 0 0
vt 0 0
vt 0 0
vt 0 0
vt 0 0
vt 0 0
vt 0 0
vt 0 0
vt 0 0
vt 0 0
vt 0 0
vt 0 0
vt 0 0
vt 0 0
vt 0 0
vt 0 0
vt 0 0
vt 0 0
vt 0 0
vt 0 0
vt 0 0
vt 0 0
vt 0 0
vt 0 0
vt 0 0
vt 0 0
vn -0.8729059 0.01587105 -0.4876305
vn -0.8729059 0.01587105 -0.4876305
vn -0.968132 0.01587105 -0.249937
vn -0.968132 0.01587105 -0.249937
vn -0.7141957 0.01587105 -0.6997661
vn -0.999874 0.01587105 -0.0003439156
vn -0.7141957 0.01587105 -0.6997661
vn -0.999874 0.01587105 -0.0003439156
vn -0.4920015 0.01587105 -0.8704497
vn -0.968132 0.01587105 0.249937
vn -0.4920015 0.01587105 -0.8704497
vn -0.968132 0.01587105 0.249937
vn -0.2698073 0.01587105 -0.9627835
vn -0.8729059 0.01587105 0.4876305
vn -0.2698073 0.01587105 -0.9627835
vn -0.8729059 0.01587105 0.4876305
vn -0.01587105 0.01587105 -0.9997481
vn -0.7141957 0.01587105 0.6997661
vn -0.01587105 0.01587105 -0.9997481
vn -0.7141957 0.01587105 0.6997661
vn 0.2698073 0.01587105 -0.9627835
vn -0.4920015 0.01587105 0.8704497
vn 0.2698073 0.01587105 -0.9627835
vn -0.4920015 0.01587105 0.8704497
vn 0.4920015 0.01587105 -0.8704497
vn -0.2698073 0.01587105 0.9627835
vn 0.4920015 0.01587105 -0.8704497
vn -0.2698073 0.01587105 0.9627835
vn 0.7141957 0.01587105 -0.6997661
vn -0.01587105 0.01587105 0.9997481
vn 0.7141957 0.01587105 -0.6997661
vn -0.01587105 0.01587105 0.9997481
vn 0.8729059 0.01587105 -0.4876305
vn 0.2698073 0.01587105 0.9627835
vn 0.8729059 0.01587105 -0.4876305
vn 0.2698073 0.01587105 0.9627835
vn 0.968132 0.01587105 -0.2499373
vn 0.4920015 0.01587105 0.8704497
vn 0.968132 0.01587105 -0.2499373
vn 0.4920015 0.01587105 0.8704497
vn 0.999874 0.01587105 -0.0003439156
vn 0.7141957 0.01587105 0.6997661
vn 0.999874 0.01587105 -0.0003439156
vn 0.7141957 0.01587105 0.6997661
vn 0.968132 0.01587105 0.2499373
vn 0.8729059 0.01587105 0.4876305
vn 0.968132 0.01587105 0.2499373
vn 0.8729059 0.01587105 0.4876305
g cylinderEmitter02_0
f 3/3/3 2/2/2 1/1/1
f 4/4/4 3/3/3 1/1/1
f 1/1/1 2/2/2 5/5/5
f 6/6/6 3/3/3 4/4/4
f 2/2/2 7/7/7 5/5/5
f 8/8/8 6/6/6 4/4/4
f 5/5/5 7/7/7 9/9/9
f 10/10/10 6/6/6 8/8/8
f 7/7/7 11/11/11 9/9/9
f 12/12/12 10/10/10 8/8/8
f 9/9/9 11/11/11 13/13/13
f 14/14/14 10/10/10 12/12/12
f 11/11/11 15/15/15 13/13/13
f 16/16/16 14/14/14 12/12/12
f 13/13/13 15/15/15 17/17/17
f 18/18/18 14/14/14 16/16/16
f 15/15/15 19/19/19 17/17/17
f 20/20/20 18/18/18 16/16/16
f 17/17/17 19/19/19 21/21/21
f 22/22/22 18/18/18 20/20/20
f 19/19/19 23/23/23 21/21/21
f 24/24/24 22/22/22 20/20/20
f 21/21/21 23/23/23 25/25/25
f 26/26/26 22/22/22 24/24/24
f 23/23/23 27/27/27 25/25/25
f 28/28/28 26/26/26 24/24/24
f 25/25/25 27/27/27 29/29/29
f 30/30/30 26/26/26 28/28/28
f 27/27/27 31/31/31 29/29/29
f 32/32/32 30/30/30 28/28/28
f 29/29/29 31/31/31 33/33/33
f 34/34/34 30/30/30 32/32/32
f 31/31/31 35/35/35 33/33/33
f 36/36/36 34/34/34 32/32/32
f 33/33/33 35/35/35 37/37/37
f 38/38/38 34/34/34 36/36/36
f 35/35/35 39/39/39 37/37/37
f 40/40/40 38/38/38 36/36/36
f 37/37/37 39/39/39 41/41/41
f 42/42/42 38/38/38 40/40/40
f 39/39/39 43/43/43 41/41/41
f 44/44/44 42/42/42 40/40/40
f 41/41/41 43/43/43 45/45/45
f 46/46/46 42/42/42 44/44/44
f 43/43/43 47/47/47 45/45/45
f 48/48/48 46/46/46 44/44/44
f 45/45/45 47/47/47 48/48/48
f 47/47/47 46/46/46 48/48/48
