g Diamant6
v 0.003134575 -0.009350044 -0.1059584
v 0.02980547 -0.03873413 0.03910189
v 0.04413188 0.01648149 0.03641155
v -0.003133452 0.002623941 0.1064136
v 0.003134575 -0.009350044 -0.1059584
v 0.04413188 0.01648149 0.03641155
v -0.003992157 0.04706639 0.03326676
v -0.003133452 0.002623941 0.1064136
v 0.003134575 -0.009350044 -0.1059584
v -0.003992157 0.04706639 0.03326676
v -0.04806085 0.01075328 0.0340135
v -0.003133452 0.002623941 0.1064136
v 0.003134575 -0.009350044 -0.1059584
v -0.04806085 0.01075328 0.0340135
v -0.02717275 -0.04227435 0.03761981
v -0.003133452 0.002623941 0.1064136
v 0.003134575 -0.009350044 -0.1059584
v -0.02717275 -0.04227435 0.03761981
v 0.02980547 -0.03873413 0.03910189
v -0.003133452 0.002623941 0.1064136
vt 0.7454087 0.6853245
vt 0.6131716 0.6604241
vt 0.6131716 0.7109213
vt 0.5476953 0.685325
vt 0.7454087 0.6853245
vt 0.6131716 0.6604245
vt 0.6131716 0.7109208
vt 0.5476952 0.6853212
vt 0.7454087 0.6853225
vt 0.6131716 0.6604236
vt 0.6131716 0.7109213
vt 0.5476952 0.6853212
vt 0.7454087 0.6853245
vt 0.6131716 0.6604241
vt 0.6131716 0.7109213
vt 0.5476952 0.685325
vt 0.7454087 0.6853245
vt 0.6131716 0.6604245
vt 0.6131716 0.7109208
vt 0.5476952 0.685325
vn 0.02945473 -0.05626753 -0.9979813
vn 0.627361 -0.7576491 0.1799607
vn 0.9201965 0.370973 0.1249694
vn -0.02945477 0.05626833 0.9979811
vn 0.02945473 -0.05626753 -0.9979813
vn 0.9201965 0.370973 0.1249694
vn -0.06347142 0.9961366 0.06068905
vn -0.02945477 0.05626833 0.9979811
vn 0.02945473 -0.05626753 -0.9979813
vn -0.06347142 0.9961366 0.06068905
vn -0.9642472 0.2538868 0.07595282
vn -0.02945477 0.05626833 0.9979811
vn 0.02945473 -0.05626753 -0.9979813
vn -0.9642472 0.2538868 0.07595282
vn -0.537289 -0.8300122 0.1496667
vn -0.02945477 0.05626833 0.9979811
vn 0.02945473 -0.05626753 -0.9979813
vn -0.537289 -0.8300122 0.1496667
vn 0.627361 -0.7576491 0.1799607
vn -0.02945477 0.05626833 0.9979811
g Diamant6_0
f 3/3/3 2/2/2 1/1/1
f 3/3/3 4/4/4 2/2/2
f 7/7/7 6/6/6 5/5/5
f 7/7/7 8/8/8 6/6/6
f 11/11/11 10/10/10 9/9/9
f 11/11/11 12/12/12 10/10/10
f 15/15/15 14/14/14 13/13/13
f 15/15/15 16/16/16 14/14/14
f 19/19/19 18/18/18 17/17/17
f 19/19/19 20/20/20 18/18/18
