g Diamant4
v -0.00531203 -1.041908E-08 -0.1218422
v 0.0503163 -1.309266E-08 0.04114163
v 0.01187807 0.05290568 0.04114163
v -0.00531203 -1.39342E-08 0.1218422
v -0.00531203 -1.041908E-08 -0.1218422
v 0.01187807 0.05290568 0.04114163
v -0.0503163 0.0326975 0.04114163
v -0.00531203 -1.39342E-08 0.1218422
v -0.00531203 -1.041908E-08 -0.1218422
v -0.0503163 0.0326975 0.04114163
v -0.0503163 -0.03269754 0.04114161
v -0.00531203 -1.39342E-08 0.1218422
v -0.00531203 -1.041908E-08 -0.1218422
v -0.0503163 -0.03269754 0.04114161
v 0.01187808 -0.0529057 0.04114161
v -0.00531203 -1.39342E-08 0.1218422
v -0.00531203 -1.041908E-08 -0.1218422
v 0.01187808 -0.0529057 0.04114161
v 0.0503163 -1.309266E-08 0.04114163
v -0.00531203 -1.39342E-08 0.1218422
vt 0.7454087 0.6853245
vt 0.6131716 0.6604241
vt 0.6131716 0.7109213
vt 0.5476953 0.685325
vt 0.7454087 0.6853245
vt 0.6131716 0.6604245
vt 0.6131716 0.7109208
vt 0.5476952 0.6853212
vt 0.7454087 0.6853225
vt 0.6131716 0.6604236
vt 0.6131716 0.7109213
vt 0.5476952 0.6853212
vt 0.7454087 0.6853245
vt 0.6131716 0.6604241
vt 0.6131716 0.7109213
vt 0.5476952 0.685325
vt 0.7454087 0.6853245
vt 0.6131716 0.6604245
vt 0.6131716 0.7109208
vt 0.5476952 0.685325
vn 9.378435E-07 -6.74075E-07 -1
vn 0.9929556 0 0.118487
vn 0.3068401 0.9443569 0.118487
vn 0 0 1
vn 9.378435E-07 -6.74075E-07 -1
vn 0.3068401 0.9443569 0.118487
vn -0.8033179 0.5836446 0.1184869
vn 0 0 1
vn 9.378435E-07 -6.74075E-07 -1
vn -0.8033179 0.5836446 0.1184869
vn -0.8033179 -0.5836447 0.1184868
vn 0 0 1
vn 9.378435E-07 -6.74075E-07 -1
vn -0.8033179 -0.5836447 0.1184868
vn 0.3068403 -0.9443569 0.1184868
vn 0 0 1
vn 9.378435E-07 -6.74075E-07 -1
vn 0.3068403 -0.9443569 0.1184868
vn 0.9929556 0 0.118487
vn 0 0 1
g Diamant4_0
f 3/3/3 2/2/2 1/1/1
f 3/3/3 4/4/4 2/2/2
f 7/7/7 6/6/6 5/5/5
f 7/7/7 8/8/8 6/6/6
f 11/11/11 10/10/10 9/9/9
f 11/11/11 12/12/12 10/10/10
f 15/15/15 14/14/14 13/13/13
f 15/15/15 16/16/16 14/14/14
f 19/19/19 18/18/18 17/17/17
f 19/19/19 20/20/20 18/18/18
