g dim_gem
v 0.7098559 6.150233 4.216238E-08
v 0.5691489 6.150233 -0.2482247
v 0.002488397 5.500628 2.373261E-16
v 0.002488397 6.150233 0.4702725
v 0.5691489 6.150233 0.2482247
v 0.002488397 5.500628 2.373261E-16
v 0.002488397 7.5751 1.967251E-08
v 0.2640764 6.961954 0.1145883
v 0.002488397 6.961954 0.2170922
v 0.5691489 6.150233 0.2482247
v 0.002488397 6.961954 0.2170922
v 0.002488397 6.150233 0.4702725
v 0.002488397 6.961954 -0.2170922
v 0.2640764 6.961954 -0.1145883
v 0.002488397 7.5751 1.967251E-08
v 0.002488397 6.961954 -0.2170922
v 0.002488397 6.150233 -0.4702725
v 0.5691489 6.150233 -0.2482247
v 0.002488397 5.500628 2.373261E-16
v 0.5691489 6.150233 -0.2482247
v 0.002488397 6.150233 -0.4702725
v 0.002488397 5.500628 2.373261E-16
v 0.5691489 6.150233 0.2482247
v 0.7098559 6.150233 4.216238E-08
v -0.7048792 6.150233 4.216238E-08
v 0.002488397 5.500628 2.373261E-16
v -0.5641721 6.150233 -0.2482247
v 0.002488397 6.150233 0.4702725
v 0.002488397 5.500628 2.373261E-16
v -0.5641721 6.150233 0.2482247
v 0.002488397 7.5751 1.967251E-08
v 0.002488397 6.961954 0.2170922
v -0.2590996 6.961954 0.1145883
v -0.5641721 6.150233 0.2482247
v 0.002488397 6.961954 0.2170922
v 0.002488397 6.150233 0.4702725
v 0.002488397 6.961954 -0.2170922
v 0.002488397 7.5751 1.967251E-08
v -0.2590996 6.961954 -0.1145883
v -0.5641721 6.150233 -0.2482247
v 0.002488397 6.150233 -0.4702725
v 0.002488397 6.961954 -0.2170922
v 0.002488397 5.500628 2.373261E-16
v 0.002488397 6.150233 -0.4702725
v -0.5641721 6.150233 -0.2482247
v 0.002488397 5.500628 2.373261E-16
v -0.7048792 6.150233 4.216238E-08
v -0.5641721 6.150233 0.2482247
v 0.002488397 7.5751 1.967251E-08
v 0.2640764 6.961954 -0.1145883
v 0.329031 6.961954 1.444973E-16
v 0.5691489 6.150233 -0.2482247
v 0.7098559 6.150233 4.216238E-08
v 0.329031 6.961954 1.444973E-16
v 0.2640764 6.961954 0.1145883
v 0.002488397 7.5751 1.967251E-08
v 0.7098559 6.150233 4.216238E-08
v 0.5691489 6.150233 0.2482247
v 0.002488397 7.5751 1.967251E-08
v -0.3240542 6.961954 2.889946E-16
v -0.2590996 6.961954 -0.1145883
v -0.5641721 6.150233 -0.2482247
v -0.7048792 6.150233 4.216238E-08
v -0.3240542 6.961954 2.889946E-16
v 0.002488397 7.5751 1.967251E-08
v -0.2590996 6.961954 0.1145883
v -0.7048792 6.150233 4.216238E-08
v -0.5641721 6.150233 0.2482247
vt 0.6884715 0.1926307
vt 0.7098647 0.1905691
vt 0.6884715 0.1135496
vt 0.6182871 0.1820675
vt 0.6670784 0.1905693
vt 0.6884715 0.1135496
vt 0.6884719 0.3309653
vt 0.6750711 0.267575
vt 0.6495091 0.27458
vt 0.6670784 0.1905693
vt 0.6495091 0.27458
vt 0.6182871 0.1820675
vt 0.7274339 0.2745799
vt 0.7018718 0.267575
vt 0.6884719 0.3309653
vt 0.7274339 0.2745799
vt 0.758656 0.1820678
vt 0.7098647 0.1905691
vt 0.6884715 0.1135496
vt 0.7098647 0.1905691
vt 0.758656 0.1820678
vt 0.6884715 0.1135496
vt 0.6670784 0.1905693
vt 0.6884715 0.1926307
vt 0.6884715 0.1926307
vt 0.6884715 0.1135496
vt 0.7098647 0.1905691
vt 0.6182871 0.1820675
vt 0.6884715 0.1135496
vt 0.6670784 0.1905693
vt 0.6884719 0.3309653
vt 0.6495091 0.27458
vt 0.6750711 0.267575
vt 0.6670784 0.1905693
vt 0.6495091 0.27458
vt 0.6182871 0.1820675
vt 0.7274339 0.2745799
vt 0.6884719 0.3309653
vt 0.7018718 0.267575
vt 0.7098647 0.1905691
vt 0.758656 0.1820678
vt 0.7274339 0.2745799
vt 0.6884715 0.1135496
vt 0.758656 0.1820678
vt 0.7098647 0.1905691
vt 0.6884715 0.1135496
vt 0.6884715 0.1926307
vt 0.6670784 0.1905693
vt 0.6884719 0.3309653
vt 0.7018718 0.267575
vt 0.6884714 0.2658553
vt 0.7098647 0.1905691
vt 0.6884715 0.1926307
vt 0.6884714 0.2658553
vt 0.6750711 0.267575
vt 0.6884719 0.3309653
vt 0.6884715 0.1926307
vt 0.6670784 0.1905693
vt 0.6884719 0.3309653
vt 0.6884714 0.2658553
vt 0.7018718 0.267575
vt 0.7098647 0.1905691
vt 0.6884715 0.1926307
vt 0.6884714 0.2658553
vt 0.6884719 0.3309653
vt 0.6750711 0.267575
vt 0.6884715 0.1926307
vt 0.6670784 0.1905693
vn 0.6315641 -0.6877219 -0.358002
vn 0.6315642 -0.6877219 -0.358002
vn 0.6315641 -0.6877219 -0.3580019
vn 0.3025343 -0.5589216 0.7720619
vn 0.3025343 -0.5589216 0.7720619
vn 0.3025343 -0.5589216 0.7720618
vn 0.3464994 0.3130834 0.8842607
vn 0.3503673 0.278884 0.8941289
vn 0.3464994 0.3130834 0.8842607
vn 0.3503673 0.278884 0.8941289
vn 0.3503673 0.278884 0.8941289
vn 0.3503673 0.278884 0.8941289
vn 0.3464994 0.3130834 -0.8842607
vn 0.3464995 0.3130834 -0.8842607
vn 0.3464995 0.3130834 -0.8842607
vn 0.3503675 0.2788841 -0.8941288
vn 0.3503675 0.2788841 -0.8941288
vn 0.3503675 0.2788841 -0.8941288
vn 0.3025343 -0.5589216 -0.7720618
vn 0.3025343 -0.5589216 -0.7720619
vn 0.3025343 -0.5589216 -0.7720619
vn 0.6315638 -0.6877216 0.3580031
vn 0.6315638 -0.6877216 0.3580031
vn 0.6315638 -0.6877215 0.3580031
vn -0.6315637 -0.6877217 -0.358003
vn -0.6315637 -0.6877217 -0.358003
vn -0.6315637 -0.6877217 -0.358003
vn -0.3025343 -0.5589217 0.7720619
vn -0.3025343 -0.5589216 0.7720618
vn -0.3025343 -0.5589217 0.7720619
vn -0.3464994 0.3130834 0.8842607
vn -0.3464994 0.3130834 0.8842607
vn -0.3503673 0.278884 0.8941289
vn -0.3503673 0.278884 0.8941289
vn -0.3503673 0.278884 0.8941289
vn -0.3503673 0.278884 0.8941289
vn -0.3464994 0.3130835 -0.8842607
vn -0.3464995 0.3130835 -0.8842606
vn -0.3464995 0.3130834 -0.8842606
vn -0.3503673 0.278884 -0.8941289
vn -0.3503673 0.278884 -0.8941289
vn -0.3503673 0.278884 -0.8941289
vn -0.3025343 -0.5589216 -0.7720618
vn -0.3025343 -0.5589217 -0.7720619
vn -0.3025343 -0.5589217 -0.7720619
vn -0.6315638 -0.6877216 0.3580031
vn -0.6315638 -0.6877216 0.3580031
vn -0.6315637 -0.6877216 0.3580031
vn 0.7893491 0.4203828 -0.4474442
vn 0.7893491 0.4203828 -0.4474442
vn 0.7893491 0.4203828 -0.4474442
vn 0.8054487 0.3778826 -0.4565712
vn 0.8054487 0.3778826 -0.4565711
vn 0.7893495 0.4203829 0.4474435
vn 0.7893495 0.4203829 0.4474435
vn 0.7893495 0.4203829 0.4474435
vn 0.8054485 0.3778824 0.4565717
vn 0.8054485 0.3778824 0.4565717
vn -0.7893492 0.4203827 -0.4474441
vn -0.7893492 0.4203827 -0.4474441
vn -0.7893491 0.4203828 -0.4474442
vn -0.8054488 0.3778826 -0.456571
vn -0.8054487 0.3778826 -0.456571
vn -0.7893492 0.4203827 0.4474441
vn -0.7893492 0.4203827 0.4474441
vn -0.7893492 0.4203828 0.4474441
vn -0.8054487 0.3778826 0.456571
vn -0.8054487 0.3778826 0.456571
g dim_gem_0
f 3/3/3 2/2/2 1/1/1
f 6/6/6 5/5/5 4/4/4
f 9/9/9 8/8/8 7/7/7
f 8/8/8 11/11/11 10/10/10
f 11/11/11 12/12/12 10/10/10
f 15/15/15 14/14/14 13/13/13
f 17/17/17 16/16/16 14/14/14
f 18/18/18 17/17/17 14/14/14
f 21/21/21 20/20/20 19/19/19
f 24/24/24 23/23/23 22/22/22
f 27/27/27 26/26/26 25/25/25
f 30/30/30 29/29/29 28/28/28
f 33/33/33 32/32/32 31/31/31
f 35/35/35 33/33/33 34/34/34
f 36/36/36 35/35/35 34/34/34
f 39/39/39 38/38/38 37/37/37
f 41/41/41 40/40/40 39/39/39
f 42/42/42 41/41/41 39/39/39
f 45/45/45 44/44/44 43/43/43
f 48/48/48 47/47/47 46/46/46
f 51/51/51 50/50/50 49/49/49
f 52/52/52 50/50/50 51/51/51
f 53/53/53 52/52/52 51/51/51
f 56/56/56 55/55/55 54/54/54
f 54/54/54 55/55/55 57/57/57
f 55/55/55 58/58/58 57/57/57
f 61/61/61 60/60/60 59/59/59
f 61/61/61 62/62/62 60/60/60
f 62/62/62 63/63/63 60/60/60
f 66/66/66 65/65/65 64/64/64
f 66/66/66 64/64/64 67/67/67
f 68/68/68 66/66/66 67/67/67
