g earth_leave4
v 0.3324108 0.1568437 0.4438828
v 0.6403812 0.1490522 0.5000001
v 0.3611932 0.06236799 0.3812974
v 0.5560489 0.3070126 0.582069
v 0.9966983 0.3784018 0.6071299
v 0.8262401 0.5792757 0.6672428
v 1.342291 0.7001429 0.545966
v 1.105361 0.9215098 0.6126293
v 1.610529 1.133875 0.3820128
v 1.332391 1.204526 0.4776878
v 1.715981 1.624216 0.165543
v 1.508135 1.655812 0.1826197
v 1.566034 1.713292 -0.002006108
v 1.508135 1.655812 -0.1826195
v 1.715981 1.624216 -0.1655428
v 1.73945 1.705356 -0.002006108
v 1.508135 1.655812 0.1826197
v 1.715981 1.624216 0.165543
v 0.5560489 0.3070126 -0.5820688
v 0.3324108 0.1568437 -0.4438825
v 0.3611932 0.06236799 -0.3812972
v 0.6403812 0.1490522 -0.4999999
v 0.8262401 0.5792757 -0.6672425
v 0.9966983 0.3784018 -0.6071297
v 1.105361 0.9215098 -0.6126291
v 1.342291 0.7001429 -0.5459658
v 1.332391 1.204526 -0.4776876
v 1.610529 1.133875 -0.3820125
v 1.508135 1.655812 -0.1826195
v 1.715981 1.624216 -0.1655428
v 0.3324108 0.1568437 -0.4438825
v 0.5063936 0.06236799 -0.007137008
v 0.3611932 0.06236799 -0.3812972
v 0.5098825 0.1568437 -0.007137008
v 0.3611932 0.06236799 0.3812974
v 0.3324108 0.1568437 0.4438828
v 0.5063936 0.06236799 -0.007137008
v 0.6403812 0.1490522 -0.4999999
v 0.3611932 0.06236799 -0.3812972
v 0.7855816 0.06968887 -0.009358884
v 0.3611932 0.06236799 0.3812974
v 0.9966983 0.3784018 -0.6071297
v 0.6403812 0.1490522 0.5000001
v 1.11088 0.2376209 -0.01089226
v 0.9966983 0.3784018 0.6071299
v 1.342291 0.7001429 -0.5459658
v 1.492218 0.5873237 -0.009794928
v 1.342291 0.7001429 0.545966
v 1.732818 1.078658 -0.007150397
v 1.610529 1.133875 -0.3820125
v 1.715981 1.624216 -0.1655428
v 1.610529 1.133875 0.3820128
v 1.73945 1.705356 -0.002006108
v 1.715981 1.624216 0.165543
v 1.332391 1.204526 -0.4776876
v 1.508135 1.655812 -0.1826195
v 1.566034 1.713292 -0.002006108
v 1.509863 1.180865 -0.007150397
v 1.105361 0.9215098 -0.6126291
v 1.332391 1.204526 0.4776878
v 1.508135 1.655812 0.1826197
v 1.105361 0.9215098 0.6126293
v 1.26029 0.8086906 -0.009794928
v 0.8262401 0.5792757 -0.6672425
v 0.8262401 0.5792757 0.6672428
v 0.9186305 0.4280763 -0.01089226
v 0.5560489 0.3070126 -0.5820688
v 0.5560489 0.3070126 0.582069
v 0.7335206 0.2276493 -0.009358884
v 0.3324108 0.1568437 -0.4438825
v 0.3324108 0.1568437 0.4438828
v 0.5098825 0.1568437 -0.007137008
vt 0.9165127 0.8621175
vt 0.916801 0.8362246
vt 0.9137297 0.8580412
vt 0.9247211 0.8422475
vt 0.9212736 0.8054388
vt 0.9325607 0.8167702
vt 0.9190986 0.7751626
vt 0.9367462 0.7857814
vt 0.910672 0.751366
vt 0.9308918 0.7569849
vt 0.8995794 0.7331674
vt 0.9112971 0.7269281
vt 0.8956506 0.7264093
vt 0.8802845 0.7270494
vt 0.8920743 0.7331666
vt 0.8957852 0.7329966
vt 0.9112971 0.7269281
vt 0.8995794 0.7331674
vt 0.8680097 0.8425373
vt 0.8763829 0.862294
vt 0.8791183 0.8581911
vt 0.8758807 0.8364507
vt 0.8599138 0.8171475
vt 0.8710777 0.805697
vt 0.8554036 0.7861838
vt 0.8729398 0.7753747
vt 0.8609694 0.7573076
vt 0.8811331 0.751472
vt 0.8802845 0.7270494
vt 0.8920743 0.7331666
vt 0.8763829 0.862294
vt 0.8961205 0.8496588
vt 0.8791183 0.8581911
vt 0.8961455 0.8534192
vt 0.9137297 0.8580412
vt 0.9165127 0.8621175
vt 0.8961205 0.8496588
vt 0.8758807 0.8364507
vt 0.8791183 0.8581911
vt 0.8959295 0.826277
vt 0.9137297 0.8580412
vt 0.8710777 0.805697
vt 0.916801 0.8362246
vt 0.8957447 0.8000789
vt 0.9212736 0.8054388
vt 0.8729398 0.7753747
vt 0.8956639 0.7708267
vt 0.9190986 0.7751626
vt 0.8956962 0.7499621
vt 0.8811331 0.751472
vt 0.8920743 0.7331666
vt 0.910672 0.751366
vt 0.8957852 0.7329966
vt 0.8995794 0.7331674
vt 0.8581203 0.5634212
vt 0.8702613 0.5896521
vt 0.8797122 0.5932809
vt 0.8795936 0.5730444
vt 0.8530925 0.5399917
vt 0.9015599 0.5634807
vt 0.8892689 0.589615
vt 0.9067021 0.5401153
vt 0.8795126 0.5489221
vt 0.8517019 0.511971
vt 0.9082472 0.512115
vt 0.8795488 0.5166494
vt 0.8558736 0.4934162
vt 0.9042262 0.4935537
vt 0.8796559 0.4992641
vt 0.8614444 0.4821027
vt 0.8987686 0.4822118
vt 0.8797868 0.4802724
vn -0.1636576 -0.5446677 0.8225286
vn -0.05491959 -0.432489 0.899965
vn -0.1636576 -0.5446678 0.8225286
vn -0.03638387 -0.4122396 0.9103487
vn 0.1502636 -0.1836164 0.9714452
vn 0.1581835 -0.1730582 0.9721259
vn 0.3050438 0.03676992 0.9516281
vn 0.3064392 0.03890933 0.9510946
vn 0.3216743 0.2848085 0.9030005
vn 0.3374006 0.2336828 0.9118953
vn 0.2852213 0.3903654 0.8753649
vn 0.2852212 0.3903654 0.8753649
vn 0.121892 0.9925432 -0.000602181
vn 0.1122358 0.9122438 -0.3939725
vn 0.1122358 0.9122438 -0.3939725
vn 0.1218916 0.9925433 0.0002971231
vn 0.1122319 0.9155254 0.3862862
vn 0.1122319 0.9155254 0.3862862
vn -0.03638413 -0.4122393 -0.9103488
vn -0.1636578 -0.5446677 -0.8225286
vn -0.1636578 -0.5446676 -0.8225287
vn -0.05491983 -0.4324888 -0.8999652
vn 0.1581833 -0.1730581 -0.9721259
vn 0.1502634 -0.1836163 -0.9714453
vn 0.3064393 0.03890941 -0.9510946
vn 0.3050439 0.03676999 -0.9516281
vn 0.3374008 0.2336829 -0.9118952
vn 0.3216744 0.2848087 -0.9030004
vn 0.2852215 0.3903657 -0.8753647
vn 0.2852215 0.3903657 -0.8753647
vn -0.9291403 -0.001916736 0.3697223
vn -0.9999906 -0.004342543 5.434823E-05
vn -0.9291403 -0.001916736 0.3697223
vn -0.9999906 -0.004343121 -4.638522E-05
vn -0.9334009 -0.006109409 -0.3587835
vn -0.9334009 -0.006109409 -0.3587835
vn 0.1381072 -0.9904174 0.0001200696
vn 0.3506781 -0.906534 -0.2349916
vn 0.1358393 -0.9813964 -0.1356792
vn 0.3724676 -0.9280452 1.747686E-05
vn 0.1378677 -0.9816991 0.1313753
vn 0.5771275 -0.7602491 -0.2982368
vn 0.3542814 -0.9069948 0.2276954
vn 0.6022979 -0.7982714 -0.0004560714
vn 0.5791388 -0.7624465 0.2885716
vn 0.745261 -0.5846488 -0.3205803
vn 0.8015715 -0.597899 -4.459687E-05
vn 0.7465829 -0.5885018 0.3102898
vn 0.9537725 -0.3005295 0.0002985205
vn 0.8972258 -0.3100691 -0.3143931
vn 0.9648062 -0.04542273 -0.259009
vn 0.8989757 -0.3148931 0.3044422
vn 0.9987859 -0.04916945 0.003022109
vn 0.9667671 -0.04955591 0.2508098
vn -0.8481109 0.4198599 0.3231493
vn -0.9356981 0.1192649 0.3320317
vn -0.9915383 0.12977 -0.003414094
vn -0.9303005 0.3667982 -8.27545E-05
vn -0.7610331 0.5814072 0.2877396
vn -0.8489012 0.4250621 -0.3141482
vn -0.9378693 0.1257989 -0.323382
vn -0.761784 0.5845029 -0.2793592
vn -0.7998575 0.6001899 0.0002136044
vn -0.7142304 0.6435106 0.2752616
vn -0.7159855 0.6449755 -0.2671541
vn -0.7383766 0.6743885 0.0005804733
vn -0.5784799 0.7745238 0.2558785
vn -0.5825239 0.7738181 -0.2487399
vn -0.5976726 0.8017402 -0.0001212419
vn -0.3810914 0.9015511 0.2048778
vn -0.3845958 0.9012548 -0.1995643
vn -0.3909461 0.9204135 -0.0004439848
g earth_leave4_0
f 3/3/3 2/2/2 1/1/1
f 2/2/2 4/4/4 1/1/1
f 2/2/2 5/5/5 4/4/4
f 5/5/5 6/6/6 4/4/4
f 5/5/5 7/7/7 6/6/6
f 7/7/7 8/8/8 6/6/6
f 7/7/7 9/9/9 8/8/8
f 9/9/9 10/10/10 8/8/8
f 9/9/9 11/11/11 10/10/10
f 11/11/11 12/12/12 10/10/10
f 15/15/15 14/14/14 13/13/13
f 16/16/16 15/15/15 13/13/13
f 16/16/16 13/13/13 17/17/17
f 18/18/18 16/16/16 17/17/17
f 21/21/21 20/20/20 19/19/19
f 22/22/22 21/21/21 19/19/19
f 22/22/22 19/19/19 23/23/23
f 24/24/24 22/22/22 23/23/23
f 24/24/24 23/23/23 25/25/25
f 26/26/26 24/24/24 25/25/25
f 26/26/26 25/25/25 27/27/27
f 28/28/28 26/26/26 27/27/27
f 28/28/28 27/27/27 29/29/29
f 30/30/30 28/28/28 29/29/29
f 33/33/33 32/32/32 31/31/31
f 32/32/32 34/34/34 31/31/31
f 32/32/32 35/35/35 34/34/34
f 35/35/35 36/36/36 34/34/34
f 39/39/39 38/38/38 37/37/37
f 38/38/38 40/40/40 37/37/37
f 37/37/37 40/40/40 41/41/41
f 38/38/38 42/42/42 40/40/40
f 40/40/40 43/43/43 41/41/41
f 42/42/42 44/44/44 40/40/40
f 40/40/40 44/44/44 43/43/43
f 44/44/44 45/45/45 43/43/43
f 42/42/42 46/46/46 44/44/44
f 44/44/44 47/47/47 45/45/45
f 46/46/46 47/47/47 44/44/44
f 47/47/47 48/48/48 45/45/45
f 47/47/47 46/46/46 49/49/49
f 47/47/47 49/49/49 48/48/48
f 46/46/46 50/50/50 49/49/49
f 50/50/50 51/51/51 49/49/49
f 49/49/49 52/52/52 48/48/48
f 51/51/51 53/53/53 49/49/49
f 49/49/49 53/53/53 52/52/52
f 53/53/53 54/54/54 52/52/52
f 57/57/57 56/56/56 55/55/55
f 58/58/58 57/57/57 55/55/55
f 58/58/58 55/55/55 59/59/59
f 58/58/58 60/60/60 57/57/57
f 60/60/60 61/61/61 57/57/57
f 62/62/62 60/60/60 58/58/58
f 63/63/63 58/58/58 59/59/59
f 63/63/63 62/62/62 58/58/58
f 63/63/63 59/59/59 64/64/64
f 65/65/65 62/62/62 63/63/63
f 66/66/66 63/63/63 64/64/64
f 66/66/66 65/65/65 63/63/63
f 66/66/66 64/64/64 67/67/67
f 68/68/68 65/65/65 66/66/66
f 69/69/69 66/66/66 67/67/67
f 69/69/69 68/68/68 66/66/66
f 69/69/69 67/67/67 70/70/70
f 71/71/71 68/68/68 69/69/69
f 72/72/72 69/69/69 70/70/70
f 72/72/72 71/71/71 69/69/69
