g earth_leave8
v 0.4425936 0.04440458 0.1705148
v 0.4322032 0.04436405 -0.1027146
v 1.243715 1.105674 0.08302439
v 1.184509 1.110615 0.5894027
v 0.3242147 0.04110153 0.3242145
v 1.472209 1.865073 0.03103275
v 0.9277431 1.114735 0.9277434
v 0.1679577 0.03565605 0.4344244
v 1.367853 1.868631 0.6315187
v 1.49124 2.614502 0.7130597
v 1.53439 2.618485 0.01599165
v 1.270509 3.405689 0.201161
v 0.5860118 1.11513 1.175897
v -0.0959588 0.04755028 0.4365266
v 0.08530381 1.105439 1.244103
v 0.0367221 1.864929 1.473464
v 0.6317287 1.868505 1.368403
v 0.02434853 2.61713 1.536075
v 1.051521 1.869893 1.051521
v 0.7153642 2.61477 1.497716
v 0.1927783 3.406726 1.268258
v 1.343236 3.44855 0.6282716
v 0.7266622 4.036008 0.387061
v 1.162801 2.615041 1.162801
v 0.6292825 3.450538 1.346789
v 0.3821494 4.03834 0.7241552
v 0.995867 3.558115 0.995867
v 0.570668 4.100245 0.5706678
v 0.570668 4.100245 0.5706678
v 0.7991957 4.041806 0.7991967
v 0.607471 3.990291 0.9635541
v 0.9607195 3.986466 0.6076658
v 0.3821494 4.03834 0.7241552
v 0.7266622 4.036008 0.387061
v 0.1927783 3.406726 1.268258
v 0.4878541 3.486411 1.4573
v 0.3451568 2.652462 1.792679
v 0.02434853 2.61713 1.536075
v 0.3201414 1.851107 1.697714
v 0.0367221 1.864929 1.473464
v 0.280073 1.013162 1.405932
v 0.08530381 1.105439 1.244103
v 1.270509 3.405689 0.201161
v 1.447062 3.479664 0.4895942
v 0.1364765 0.1454421 0.6949245
v 1.794068 2.652666 0.3449063
v 1.53439 2.618485 0.01599165
v 1.472209 1.865073 0.03103275
v 1.701665 1.850218 0.3194373
v 1.243715 1.105674 0.08302439
v 1.412088 1.00989 0.2788311
v 0.4322032 0.04436405 -0.1027146
v 0.6999244 0.1401139 0.1351196
v 0.4425936 0.04440458 0.1705148
v -0.0959588 0.04755028 0.4365266
v 0.636133 0.1356612 0.3288155
v 0.3242147 0.04110153 0.3242145
v 1.412088 1.00989 0.2788311
v 0.3280839 0.1378094 0.634638
v 0.1679577 0.03565605 0.4344244
v 0.5053437 0.1385294 0.505344
v 1.284755 1.009447 0.6732506
v 1.701665 1.850218 0.3194373
v 0.6727743 1.010021 1.283834
v 0.280073 1.013162 1.405932
v 0.3201414 1.851107 1.697714
v 1.028455 1.008671 1.028456
v 0.7955694 1.848789 1.54275
v 0.3451568 2.652462 1.792679
v 1.537817 1.850107 0.793035
v 0.855296 2.652003 1.638204
v 0.4878541 3.486411 1.4573
v 1.224971 1.849114 1.224972
v 1.637882 2.651971 0.8551353
v 1.794068 2.652666 0.3449063
v 1.447062 3.479664 0.4895942
v 1.309902 2.652174 1.309903
v 0.8138178 3.499918 1.344209
v 0.607471 3.990291 0.9635541
v 1.344344 3.500002 0.8138837
v 0.9607195 3.986466 0.6076658
v 1.122549 3.509928 1.12255
v 0.7991957 4.041806 0.7991967
vt 0.9325372 0.5272301
vt 0.9217925 0.5214732
vt 0.9013181 0.58059
vt 0.9228876 0.587221
vt 0.9414183 0.5277492
vt 0.8911237 0.6179621
vt 0.941448 0.5882685
vt 0.9500962 0.5267941
vt 0.9176156 0.6208791
vt 0.9173972 0.6540294
vt 0.8870891 0.6547615
vt 0.9012092 0.6952934
vt 0.9599392 0.5871804
vt 0.9608169 0.521919
vt 0.9813401 0.5805831
vt 0.9915069 0.6179338
vt 0.9652473 0.6208496
vt 0.9954949 0.6547315
vt 0.9414325 0.6213415
vt 0.9655027 0.6540183
vt 0.9820063 0.6955075
vt 0.9196248 0.6904469
vt 0.929257 0.7290206
vt 0.9414083 0.6538144
vt 0.9632014 0.6904478
vt 0.9538407 0.7292152
vt 0.9413971 0.6951231
vt 0.941503 0.7304307
vt 0.7911767 0.7948718
vt 0.7912273 0.7746576
vt 0.775256 0.7732987
vt 0.8071446 0.7732837
vt 0.7709448 0.7928449
vt 0.8112595 0.7925158
vt 0.7269624 0.7460335
vt 0.7474979 0.7371099
vt 0.7272813 0.6842293
vt 0.7032146 0.6861709
vt 0.7280654 0.634139
vt 0.7067595 0.6291934
vt 0.7395751 0.5791978
vt 0.7245332 0.5739541
vt 0.8549175 0.7455729
vt 0.8350271 0.7370333
vt 0.7659349 0.5129598
vt 0.8551485 0.6840947
vt 0.8796815 0.6861613
vt 0.8756132 0.6292742
vt 0.8545424 0.6340434
vt 0.8588129 0.5737786
vt 0.8428624 0.5792754
vt 0.8239886 0.4907516
vt 0.8169274 0.5129788
vt 0.8060798 0.4992514
vt 0.7591941 0.4912318
vt 0.804907 0.5158389
vt 0.7913121 0.4994977
vt 0.8428624 0.5792754
vt 0.7777832 0.5158238
vt 0.7768482 0.4986458
vt 0.7913305 0.5169818
vt 0.8178689 0.5839351
vt 0.8545424 0.6340434
vt 0.7644259 0.5838852
vt 0.7395751 0.5791978
vt 0.7280654 0.634139
vt 0.7911534 0.5854405
vt 0.7584749 0.6357901
vt 0.7272813 0.6842293
vt 0.8239779 0.6357713
vt 0.758597 0.6831242
vt 0.7474979 0.7371099
vt 0.7912415 0.6362708
vt 0.8238857 0.6831084
vt 0.8551485 0.6840947
vt 0.8350271 0.7370333
vt 0.7912533 0.6829284
vt 0.7684314 0.7347422
vt 0.775256 0.7732987
vt 0.8142872 0.7347756
vt 0.8071446 0.7732837
vt 0.791351 0.7340708
vt 0.7912273 0.7746576
vn -0.7907645 0.5581784 -0.2512538
vn -0.7570606 0.5399423 -0.3678609
vn -0.8876911 0.4501379 -0.09685229
vn -0.8354946 0.4471222 -0.3194223
vn -0.577813 0.5585312 -0.595126
vn -0.9743242 0.1863957 -0.1262892
vn -0.6300772 0.4408801 -0.6392397
vn -0.2579183 0.5557511 -0.7903283
vn -0.9176382 0.2036012 -0.3413014
vn -0.9404477 -0.04433914 -0.3370344
vn -0.9979481 -0.04362781 -0.04686349
vn -0.9327034 -0.3535444 0.07120927
vn -0.321152 0.4477261 -0.8345074
vn -0.3622659 0.5405461 -0.7593243
vn -0.1114998 0.4526747 -0.8846771
vn -0.130012 0.1920862 -0.972728
vn -0.3436973 0.2090077 -0.915526
vn -0.04029678 -0.04527703 -0.9981614
vn -0.6903533 0.2146272 -0.6909033
vn -0.3385024 -0.0447513 -0.9399008
vn 0.08132292 -0.3588412 -0.9298493
vn -0.8755583 -0.3915176 -0.2830399
vn -0.623307 -0.7402052 -0.2521601
vn -0.7095106 -0.02785749 -0.7041439
vn -0.281638 -0.3955526 -0.8741958
vn -0.249518 -0.7426057 -0.6215123
vn -0.6229264 -0.4783849 -0.6189593
vn -0.4643059 -0.7533837 -0.4656533
vn 0.114765 0.9871833 0.1108963
vn 0.1157009 0.9871773 0.109974
vn -0.4284933 0.7370318 0.5226641
vn 0.5313946 0.7358799 -0.4196433
vn -0.3838393 0.7787034 0.4962745
vn 0.5034901 0.7787786 -0.3741677
vn -0.561608 0.4950036 0.6629993
vn -0.5581745 0.5071504 0.6566885
vn -0.6181989 0.1818022 0.7647079
vn -0.6200613 0.1580005 0.7684789
vn -0.6311081 -0.14524 0.7619762
vn -0.6324569 -0.1549979 0.7589294
vn -0.6421003 -0.3300101 0.6919541
vn -0.642012 -0.3331524 0.6905289
vn 0.6696973 0.4985407 -0.5504204
vn 0.6631357 0.5111557 -0.5467822
vn -0.2718527 -0.6090675 0.7450724
vn 0.7690933 0.1840923 -0.6120502
vn 0.7726008 0.1601344 -0.6143655
vn 0.7570912 -0.1533006 -0.6350685
vn 0.7603672 -0.1440797 -0.633311
vn 0.683834 -0.3276234 -0.6519464
vn 0.6852306 -0.3247271 -0.6519291
vn -0.7570606 0.5399423 -0.3678609
vn 0.7428407 -0.6088547 -0.2783588
vn -0.7907645 0.5581784 -0.2512538
vn -0.3622659 0.5405461 -0.7593243
vn 0.6445011 -0.6912421 0.3268066
vn -0.577813 0.5585312 -0.595126
vn 0.8397208 -0.4678085 0.2757248
vn 0.3183821 -0.6906331 0.6493526
vn -0.2579183 0.5557511 -0.7903283
vn 0.5117662 -0.6877887 0.5148225
vn 0.7834793 -0.4702049 0.4062851
vn 0.9260109 -0.2217736 0.3054838
vn 0.3995911 -0.4728505 0.7853276
vn 0.2604066 -0.4700664 0.8433421
vn 0.2929896 -0.2230482 0.9297348
vn 0.6240548 -0.4704022 0.6239208
vn 0.4427502 -0.2274805 0.867309
vn 0.2988032 0.07049865 0.9517072
vn 0.8659974 -0.2263993 0.4458607
vn 0.4486283 0.07956834 0.8901694
vn 0.2776334 0.3746288 0.8846316
vn 0.69011 -0.2285232 0.686677
vn 0.8907823 0.07979189 0.4473704
vn 0.9513087 0.07136085 0.2998653
vn 0.8863904 0.3810567 0.2628835
vn 0.7063894 0.06969514 0.7043839
vn 0.4230818 0.4096099 0.8082212
vn 0.3887947 0.6537369 0.6492046
vn 0.8101624 0.4127787 0.4162341
vn 0.6521453 0.6562744 0.3794872
vn 0.641565 0.4226429 0.6401308
vn 0.5318433 0.6618143 0.5283413
g earth_leave8_0
f 3/3/3 2/2/2 1/1/1
f 4/4/4 3/3/3 1/1/1
f 4/4/4 1/1/1 5/5/5
f 6/6/6 3/3/3 4/4/4
f 7/7/7 4/4/4 5/5/5
f 7/7/7 5/5/5 8/8/8
f 9/9/9 6/6/6 4/4/4
f 9/9/9 4/4/4 7/7/7
f 6/6/6 9/9/9 10/10/10
f 11/11/11 6/6/6 10/10/10
f 12/12/12 11/11/11 10/10/10
f 13/13/13 7/7/7 8/8/8
f 13/13/13 8/8/8 14/14/14
f 15/15/15 13/13/13 14/14/14
f 13/13/13 15/15/15 16/16/16
f 17/17/17 13/13/13 16/16/16
f 7/7/7 13/13/13 17/17/17
f 17/17/17 16/16/16 18/18/18
f 19/19/19 9/9/9 7/7/7
f 19/19/19 7/7/7 17/17/17
f 10/10/10 9/9/9 19/19/19
f 20/20/20 17/17/17 18/18/18
f 19/19/19 17/17/17 20/20/20
f 20/20/20 18/18/18 21/21/21
f 22/22/22 12/12/12 10/10/10
f 23/23/23 12/12/12 22/22/22
f 24/24/24 10/10/10 19/19/19
f 24/24/24 19/19/19 20/20/20
f 10/10/10 24/24/24 22/22/22
f 25/25/25 20/20/20 21/21/21
f 24/24/24 20/20/20 25/25/25
f 25/25/25 21/21/21 26/26/26
f 22/22/22 27/27/27 23/23/23
f 24/24/24 27/27/27 22/22/22
f 27/27/27 24/24/24 25/25/25
f 25/25/25 26/26/26 27/27/27
f 27/27/27 28/28/28 23/23/23
f 26/26/26 28/28/28 27/27/27
f 31/31/31 30/30/30 29/29/29
f 29/29/29 30/30/30 32/32/32
f 33/33/33 31/31/31 29/29/29
f 34/34/34 29/29/29 32/32/32
f 33/33/33 35/35/35 31/31/31
f 35/35/35 36/36/36 31/31/31
f 36/36/36 35/35/35 37/37/37
f 35/35/35 38/38/38 37/37/37
f 39/39/39 37/37/37 38/38/38
f 40/40/40 39/39/39 38/38/38
f 41/41/41 39/39/39 40/40/40
f 42/42/42 41/41/41 40/40/40
f 34/34/34 32/32/32 43/43/43
f 32/32/32 44/44/44 43/43/43
f 45/45/45 41/41/41 42/42/42
f 43/43/43 44/44/44 46/46/46
f 47/47/47 43/43/43 46/46/46
f 47/47/47 46/46/46 48/48/48
f 46/46/46 49/49/49 48/48/48
f 48/48/48 49/49/49 50/50/50
f 49/49/49 51/51/51 50/50/50
f 50/50/50 51/51/51 52/52/52
f 51/51/51 53/53/53 52/52/52
f 52/52/52 53/53/53 54/54/54
f 55/55/55 45/45/45 42/42/42
f 53/53/53 56/56/56 54/54/54
f 54/54/54 56/56/56 57/57/57
f 53/53/53 58/58/58 56/56/56
f 59/59/59 45/45/45 55/55/55
f 60/60/60 59/59/59 55/55/55
f 57/57/57 61/61/61 60/60/60
f 56/56/56 61/61/61 57/57/57
f 61/61/61 59/59/59 60/60/60
f 58/58/58 62/62/62 56/56/56
f 56/56/56 62/62/62 61/61/61
f 58/58/58 63/63/63 62/62/62
f 59/59/59 64/64/64 45/45/45
f 64/64/64 65/65/65 45/45/45
f 65/65/65 64/64/64 66/66/66
f 61/61/61 67/67/67 59/59/59
f 62/62/62 67/67/67 61/61/61
f 67/67/67 64/64/64 59/59/59
f 64/64/64 68/68/68 66/66/66
f 64/64/64 67/67/67 68/68/68
f 66/66/66 68/68/68 69/69/69
f 63/63/63 70/70/70 62/62/62
f 62/62/62 70/70/70 67/67/67
f 68/68/68 71/71/71 69/69/69
f 69/69/69 71/71/71 72/72/72
f 67/67/67 73/73/73 68/68/68
f 70/70/70 73/73/73 67/67/67
f 68/68/68 73/73/73 71/71/71
f 70/70/70 63/63/63 74/74/74
f 63/63/63 75/75/75 74/74/74
f 74/74/74 75/75/75 76/76/76
f 73/73/73 70/70/70 77/77/77
f 73/73/73 77/77/77 71/71/71
f 70/70/70 74/74/74 77/77/77
f 71/71/71 78/78/78 72/72/72
f 78/78/78 71/71/71 77/77/77
f 79/79/79 72/72/72 78/78/78
f 80/80/80 74/74/74 76/76/76
f 77/77/77 74/74/74 80/80/80
f 76/76/76 81/81/81 80/80/80
f 82/82/82 78/78/78 77/77/77
f 78/78/78 82/82/82 79/79/79
f 82/82/82 77/77/77 80/80/80
f 80/80/80 81/81/81 82/82/82
f 82/82/82 83/83/83 79/79/79
f 81/81/81 83/83/83 82/82/82
