g flag_1
v -15.77024 -10.29726 5.869205
v -15.45866 2.906788 5.869205
v -17.08574 2.906788 2.157714E-15
v -17.76378 -17.13873 3.359624E-15
v -16.46907 -10.29726 6.102633
v -18.09615 -17.13873 1.517165E-15
v -18.09615 2.906788 1.620861E-15
v -16.46907 2.906788 6.102633
v -15.45866 2.906788 5.869205
v -16.46907 -10.29726 6.102633
v -16.46907 2.906788 6.102633
v -15.77024 -10.29726 5.869205
v -18.09615 -17.13873 1.517165E-15
v -17.76378 -17.13873 3.359624E-15
v -15.77024 -10.29726 -5.869205
v -17.76378 -17.13873 3.359624E-15
v -17.08574 2.906788 2.157714E-15
v -15.45866 2.906788 -5.869205
v -16.46907 -10.29726 -6.102633
v -16.46907 2.906788 -6.102633
v -18.09615 2.906788 1.620861E-15
v -18.09615 -17.13873 1.517165E-15
v -15.45866 2.906788 -5.869205
v -16.46907 2.906788 -6.102633
v -16.46907 -10.29726 -6.102633
v -15.77024 -10.29726 -5.869205
v -18.09615 -17.13873 1.517165E-15
v -17.76378 -17.13873 3.359624E-15
vt 0.5268807 0.6198832
vt 0.5268807 0.7558067
vt 0.5894951 0.7558067
vt 0.5894952 0.5483968
vt 0.6193357 0.5564616
vt 0.7475576 0.4199917
vt 0.7472841 0.8240992
vt 0.6193357 0.8240992
vt 0.6019666 0.8240992
vt 0.6193357 0.5564616
vt 0.6193357 0.8240992
vt 0.6019666 0.5517009
vt 0.7475576 0.4199917
vt 0.7475735 0.412775
vt 0.5268807 0.6198832
vt 0.5894952 0.5483968
vt 0.5894951 0.7558067
vt 0.5268807 0.7558067
vt 0.6193357 0.5564616
vt 0.6193357 0.8240992
vt 0.7472841 0.8240992
vt 0.7475576 0.4199917
vt 0.6019666 0.8240992
vt 0.6193357 0.8240992
vt 0.6193357 0.5564616
vt 0.6019666 0.5517009
vt 0.7475576 0.4199917
vt 0.7475735 0.412775
vn 0.9597557 -0.02856548 -0.2793798
vn 0.9597557 -0.02856548 -0.2793798
vn 0.9995573 -0.02975011 0
vn 0.9995573 -0.02975011 0
vn -0.9662465 0 0.2576192
vn -1 0 0
vn -1 0 0
vn -0.9662465 0 0.2576192
vn 0.2634858 -0.003108783 0.9646583
vn 0.229402 -0.3579387 0.9051269
vn 0.2634858 -0.003108783 0.9646583
vn 0.2291151 -0.3598719 0.9044326
vn 0.1631471 -0.6737587 0.7207165
vn 0.1631471 -0.6737587 0.7207165
vn 0.9597557 -0.02856548 0.2793797
vn 0.9995573 -0.02975011 0
vn 0.9995573 -0.02975011 0
vn 0.9597557 -0.02856548 0.2793798
vn -0.9662465 0 -0.2576192
vn -0.9662465 0 -0.2576192
vn -1 0 0
vn -1 0 0
vn 0.2634858 -0.003108783 -0.9646583
vn 0.2634858 -0.003108783 -0.9646583
vn 0.229402 -0.3579387 -0.9051269
vn 0.2291152 -0.359872 -0.9044326
vn 0.1631471 -0.6737587 -0.7207165
vn 0.1631471 -0.6737587 -0.7207165
g flag_1_0
f 3/3/3 2/2/2 1/1/1
f 4/4/4 3/3/3 1/1/1
f 7/7/7 6/6/6 5/5/5
f 8/8/8 7/7/7 5/5/5
f 11/11/11 10/10/10 9/9/9
f 10/10/10 12/12/12 9/9/9
f 10/10/10 13/13/13 12/12/12
f 13/13/13 14/14/14 12/12/12
f 17/17/17 16/16/16 15/15/15
f 18/18/18 17/17/17 15/15/15
f 21/21/21 20/20/20 19/19/19
f 22/22/22 21/21/21 19/19/19
f 25/25/25 24/24/24 23/23/23
f 26/26/26 25/25/25 23/23/23
f 27/27/27 25/25/25 26/26/26
f 28/28/28 27/27/27 26/26/26
