g Object002
v 0.1194668 0.02759526 0.9374083
v 0.1520236 0.004252399 1.015787
v 0.1391116 0.01742219 0.9689765
v -0.0635483 0.1007212 0.9656885
v -0.08074238 0.1034639 1.001809
v -0.07560074 0.09595188 1.054147
v -0.05258523 0.06581909 1.142092
v -0.03544996 0.07458822 1.147084
v -0.0320645 0.05929647 1.134467
v -0.06347007 0.07638306 1.155817
v -0.06010577 0.1205082 1.161026
v -0.02740839 0.1238287 1.15852
v -0.07632191 0.08458997 1.115944
v -0.05258523 0.06581909 1.142092
v -0.0449315 0.1319784 1.153526
v -0.02585871 0.1404582 1.149882
v -0.02527659 0.1477306 1.113573
v -0.07431091 0.1257712 1.118795
v -0.07560074 0.09595188 1.054147
v -0.05451866 0.1395251 1.120823
v -0.05386856 0.1437763 1.058927
v -0.01420806 0.1481202 1.065084
v -0.07320175 0.1320625 1.057362
v -0.07819557 0.142644 1.0049
v -0.05923504 0.1530049 1.00622
v -0.08074238 0.1034639 1.001809
v -0.05745733 0.1479038 0.9739168
v -0.01072099 0.1603603 1.009719
v -0.0724814 0.1421531 0.9639552
v -0.07514758 0.1130981 0.9605525
v -0.02889264 0.1087361 0.9432017
v -0.0635483 0.1007212 0.9656885
v -0.02890163 0.1027218 0.9540283
v 0.0359052 0.08343066 0.9433975
v -0.02128452 0.1400907 0.9528552
v -0.01763509 0.1492733 0.9683437
v 0.0579895 0.1301637 0.9629486
v 0.05187436 0.1218253 0.9465607
v 0.03643895 0.08917215 0.9328721
v 0.09304151 0.0599747 0.9271926
v 0.09207901 0.05434448 0.9381197
v 0.1194668 0.02759526 0.9374083
v 0.1089985 0.08340159 0.934431
v 0.1342828 0.02944496 0.9279417
v 0.1391116 0.01742219 0.9689765
v 0.152866 0.05198697 0.9291063
v 0.1492094 0.06511863 0.9422948
v 0.1642716 0.04755404 0.970076
v 0.1169696 0.09085419 0.9493809
v 0.1277246 0.09386524 0.9882362
v 0.1757255 0.0317977 1.015314
v 0.1520236 0.004252399 1.015787
v 0.1709523 0.05322566 1.020922
v 0.1582962 0.0675705 0.9759131
v 0.1574769 -0.005771536 1.063257
v 0.06821463 0.1367911 1.007795
v 0.07210626 0.1283624 1.050977
v -0.006969006 0.1475233 1.056567
v 0.137881 0.08457615 1.030649
v 0.1455567 0.07916745 1.036746
v 0.1658686 0.06619221 1.077115
v 0.1837936 0.02458847 1.062748
v 0.17976 0.04730839 1.068818
v 0.1831415 0.040254 1.108901
v 0.1720336 0.05612737 1.114736
v 0.1671422 0.0456496 1.125109
v 0.1878644 0.02089047 1.113132
v 0.1361414 0.005697184 1.117558
v 0.1591201 -0.01254777 1.112489
v 0.1407391 -0.01125235 1.103757
v 0.1407391 -0.01125235 1.103757
v 0.11996 -0.001730298 1.10824
v -0.0320645 0.05929647 1.134467
v 0.008217814 0.05125432 1.125765
v 0.04693939 0.03908695 1.114495
v -0.02890163 0.1027218 0.9540283
v -0.0635483 0.1007212 0.9656885
v -0.05258523 0.06581909 1.142092
v -0.07632191 0.08458997 1.115944
v -0.07560074 0.09595188 1.054147
v 0.0359052 0.08343066 0.9433975
v 0.08415129 0.02172026 1.106982
v 0.11996 -0.001730298 1.10824
v 0.09207901 0.05434448 0.9381197
v 0.1194668 0.02759526 0.9374083
v 0.1407391 -0.01125235 1.103757
v 0.1574769 -0.005771536 1.063257
v 0.1520236 0.004252399 1.015787
v -0.03544996 0.07458822 1.147084
v -0.02893107 0.06584831 1.153572
v -0.0320645 0.05929647 1.134467
v -0.02740839 0.1238287 1.15852
v -0.01823989 0.1243462 1.169697
v -0.02585871 0.1404582 1.149882
v -0.01629527 0.1483283 1.157499
v -0.02527659 0.1477306 1.113573
v -0.01626251 0.1576428 1.116115
v -0.01420806 0.1481202 1.065084
v -0.00570246 0.1571521 1.071383
v -0.006969006 0.1475233 1.056567
v 0.001714354 0.1563262 1.062954
v 0.07210626 0.1283624 1.050977
v 0.07706638 0.1377101 1.058096
v 0.137881 0.08457615 1.030649
v 0.1397706 0.09610076 1.038116
v 0.1455567 0.07916745 1.036746
v 0.1477024 0.09075125 1.044045
v 0.1658686 0.06619221 1.077115
v 0.1672136 0.07917039 1.080759
v 0.1720336 0.05612737 1.114736
v 0.1730998 0.06743366 1.123606
v 0.1671422 0.0456496 1.125109
v 0.1644879 0.05090782 1.138266
v 0.1361414 0.005697184 1.117558
v 0.1276786 0.002951068 1.126562
v 0.11996 -0.001730298 1.10824
v -0.05386856 0.1437763 1.058927
v -0.05923504 0.1530049 1.00622
v -0.01072099 0.1603603 1.009719
v -0.006969006 0.1475233 1.056567
v -0.01420806 0.1481202 1.065084
v 0.1672136 0.07917039 1.080759
v 0.1397706 0.09610076 1.038116
v 0.1477024 0.09075125 1.044045
v 0.1271262 0.1079304 1.094833
v 0.07706638 0.1377101 1.058096
v 0.1315892 0.09802018 1.134721
v 0.1730998 0.06743366 1.123606
v 0.1241406 0.08015904 1.14703
v 0.1644879 0.05090782 1.138266
v 0.09088228 0.02678729 1.126578
v 0.05255261 0.04457211 1.134616
v 0.1276786 0.002951068 1.126562
v 0.11996 -0.001730298 1.10824
v 0.08415129 0.02172026 1.106982
v 0.04693939 0.03908695 1.114495
v 0.008217814 0.05125432 1.125765
v 0.08067281 0.1039136 1.159837
v 0.08769 0.1256673 1.149695
v 0.01264582 0.05727395 1.145758
v -0.0320645 0.05929647 1.134467
v -0.02893107 0.06584831 1.153572
v -0.01823989 0.1243462 1.169697
v 0.03190409 0.1163779 1.168597
v -0.01629527 0.1483283 1.157499
v 0.03649893 0.1392641 1.158247
v -0.01626251 0.1576428 1.116115
v 0.03506919 0.1479308 1.119086
v -0.00570246 0.1571521 1.071383
v 0.001714354 0.1563262 1.062954
v 0.08483933 0.1340564 1.112829
vt 0.1442762 0.07480863
vt 0.07049328 0.2904642
vt 0.08588797 0.195166
vt 0.6979061 0.05899016
vt 0.7558876 0.1823184
vt 0.7675663 0.281678
vt 0.6457091 0.6490068
vt 0.6188026 0.6215274
vt 0.6018329 0.6624984
vt 0.7358337 0.5514001
vt 0.7000266 0.5072505
vt 0.6290942 0.5193252
vt 0.7887025 0.4011575
vt 0.8305016 0.4639155
vt 0.6668482 0.4845108
vt 0.6277786 0.4769694
vt 0.620967 0.4018475
vt 0.713275 0.4034359
vt 0.7675663 0.281678
vt 0.673152 0.4117543
vt 0.659174 0.2922646
vt 0.5886021 0.3108677
vt 0.7004333 0.2867409
vt 0.6858006 0.185091
vt 0.650291 0.188823
vt 0.7558876 0.1823184
vt 0.6385022 0.1244799
vt 0.5649849 0.2086778
vt 0.6651579 0.09767143
vt 0.6900759 0.06646387
vt 0.5432196 0.0401111
vt 0.6979061 0.05899016
vt 0.5427609 0.01770977
vt 0.4090429 0.02552406
vt 0.5537153 0.1006734
vt 0.5596934 0.1316622
vt 0.4137893 0.1502148
vt 0.4134513 0.1179306
vt 0.410708 0.04772047
vt 0.2876678 0.05476717
vt 0.2856856 0.03220049
vt 0.1442762 0.07480863
vt 0.2830601 0.1092565
vt 0.1495619 0.08406011
vt 0.08588797 0.195166
vt 0.1730118 0.1162647
vt 0.1982823 0.1418149
vt 0.1586586 0.2051493
vt 0.2787705 0.1433932
vt 0.275034 0.2182348
vt 0.136683 0.2966026
vt 0.07049328 0.2904642
vt 0.1762171 0.3007772
vt 0.1978264 0.209438
vt 0.05694777 0.3860876
vt 0.4152976 0.2321266
vt 0.4163395 0.3086287
vt 0.5710145 0.2949436
vt 0.2619677 0.2985424
vt 0.2454706 0.3156394
vt 0.2153416 0.4018938
vt 0.1314493 0.3892526
vt 0.1731792 0.3966409
vt 0.1733866 0.4803852
vt 0.2119604 0.4811265
vt 0.2148743 0.5169131
vt 0.142058 0.5054266
vt 0.2229295 0.6186354
vt 0.1069608 0.5490901
vt 0.01573139 0.4583084
vt 0.193389 0.64893
vt 0.2390977 0.6592831
vt 0.7507682 0.07606892
vt 0.7638298 0.1235048
vt 0.7787152 0.1706188
vt 0.967723 0.05529455
vt 0.9495512 0.01673213
vt 0.7409311 0.05174903
vt 0.7714606 0.01610843
vt 0.8448806 0.008840477
vt 0.9834657 0.1341194
vt 0.7879949 0.2187261
vt 0.7858301 0.2688686
vt 0.9899092 0.2083788
vt 0.9888025 0.2530198
vt 0.7911177 0.2951778
vt 0.8404761 0.3110377
vt 0.8967305 0.2999759
vt 0.6188026 0.6215274
vt 0.5940176 0.6313729
vt 0.6018329 0.6624984
vt 0.6290942 0.5193252
vt 0.6037627 0.5226168
vt 0.6277786 0.4769694
vt 0.6060191 0.4783958
vt 0.620967 0.4018475
vt 0.6017924 0.4042968
vt 0.5886021 0.3108677
vt 0.5717993 0.3258256
vt 0.5710145 0.2949436
vt 0.5588942 0.3114561
vt 0.4163395 0.3086287
vt 0.4171849 0.325127
vt 0.2619677 0.2985424
vt 0.2750197 0.3151943
vt 0.2454706 0.3156394
vt 0.262755 0.330245
vt 0.2153416 0.4018938
vt 0.2359238 0.4045235
vt 0.2119604 0.4811265
vt 0.2346979 0.4833063
vt 0.2148743 0.5169131
vt 0.2387167 0.5205571
vt 0.2229295 0.6186354
vt 0.2465063 0.6282558
vt 0.2390977 0.6592831
vt 0.5649849 0.2086778
vt 0.5710145 0.2949436
vt 0.5886021 0.3108677
vt 0.659174 0.2922646
vt 0.650291 0.188823
vt 0.2359238 0.4045235
vt 0.2750197 0.3151943
vt 0.262755 0.330245
vt 0.3271008 0.4079999
vt 0.4171849 0.325127
vt 0.3282233 0.4811036
vt 0.2346979 0.4833063
vt 0.3302312 0.5206549
vt 0.2387167 0.5205571
vt 0.3309556 0.6430866
vt 0.4202605 0.6480398
vt 0.2465063 0.6282558
vt 0.2390977 0.6592831
vt 0.3292938 0.6832556
vt 0.4186359 0.6879839
vt 0.5105749 0.6821377
vt 0.4211951 0.5207745
vt 0.4210539 0.4826514
vt 0.5099431 0.6432101
vt 0.6018329 0.6624984
vt 0.5940176 0.6313729
vt 0.6037627 0.5226168
vt 0.511602 0.5246844
vt 0.6060191 0.4783958
vt 0.5125886 0.4856011
vt 0.6017924 0.4042968
vt 0.5105057 0.4182836
vt 0.5717993 0.3258256
vt 0.5588942 0.3114561
vt 0.4191695 0.4207334
vn -0.4155046 -0.8304095 -0.3711816
vn 0.3221525 -0.902828 -0.2848145
vn 0.3303991 -0.8885852 -0.3182025
vn -0.3572097 -0.8522722 -0.3821429
vn -0.8594796 -0.505609 -0.07519555
vn -0.8915904 -0.4500755 -0.04998812
vn -0.2364369 -0.9202691 0.3117731
vn 0.1600468 -0.4750433 0.8652855
vn -0.1459675 -0.9839247 0.1028868
vn -0.5076088 -0.4604588 0.7282246
vn -0.496561 0.294358 0.8165663
vn 0.07681762 0.2193866 0.9726092
vn -0.9057219 -0.421521 0.04458535
vn -0.2364369 -0.9202691 0.3117731
vn -0.2497739 0.7648497 0.5938163
vn -0.1911798 0.8436511 0.5017002
vn -0.2151944 0.9708633 0.105431
vn -0.8652265 0.4671618 0.1820524
vn -0.8915904 -0.4500755 -0.04998812
vn -0.4010659 0.9000234 0.1705989
vn -0.3380698 0.9320771 0.1301586
vn -0.141326 0.9818903 0.1261682
vn -0.8588316 0.5012124 0.1058035
vn -0.8299171 0.5574365 0.02240919
vn -0.2910969 0.9564532 0.02144144
vn -0.8594796 -0.505609 -0.07519555
vn -0.1967082 0.94042 -0.2773373
vn 0.07970576 0.9967936 -0.007039243
vn -0.6258941 0.5651132 -0.5374975
vn -0.7392471 -0.2407772 -0.6289197
vn -0.2565948 -0.2541131 -0.9325158
vn -0.3572097 -0.8522722 -0.3821429
vn -0.2694829 -0.8696891 -0.4135454
vn -0.3911716 -0.8560473 -0.3378872
vn -0.04479858 0.6384647 -0.7683461
vn 0.06194634 0.9299477 -0.3624362
vn 0.3384047 0.8613375 -0.3789195
vn 0.1673258 0.6261551 -0.7615325
vn -0.230508 -0.2723406 -0.9341823
vn -0.2475208 -0.2602246 -0.9332827
vn -0.5172602 -0.7718721 -0.3696691
vn -0.4155046 -0.8304095 -0.3711816
vn 0.2422353 0.5143972 -0.8226286
vn 0.2076983 -0.6219932 -0.7549741
vn 0.3303991 -0.8885852 -0.3182025
vn 0.6952751 0.05218773 -0.7168466
vn 0.6718988 0.6373721 -0.3772384
vn 0.9491462 -0.1168307 -0.2923562
vn 0.484865 0.779066 -0.3974446
vn 0.5934504 0.7998573 -0.08969361
vn 0.939905 -0.2249034 -0.2568989
vn 0.3221525 -0.902828 -0.2848145
vn 0.8657432 0.4903157 -0.1003955
vn 0.7907249 0.5930779 -0.1516995
vn 0.3356985 -0.9204275 -0.2002992
vn 0.4156007 0.9089026 -0.03423838
vn 0.430823 0.8917274 0.1386141
vn 0.04459779 0.97813 0.2031567
vn 0.6409771 0.7668942 0.03196198
vn 0.6956984 0.7175707 -0.03310383
vn 0.7716907 0.6350195 -0.0352625
vn 0.9576012 -0.2457168 -0.1504096
vn 0.8954073 0.4399067 -0.06875977
vn 0.8920953 0.3695719 0.2599668
vn 0.8202344 0.4719996 0.3231593
vn 0.5181041 0.06927396 0.8525077
vn 0.8378829 -0.2439082 0.4883249
vn -0.07430147 -0.4822909 0.8728544
vn 0.3119434 -0.8087624 0.4985927
vn -0.3146248 -0.922293 0.2244702
vn -0.3146248 -0.922293 0.2244702
vn -0.5216582 -0.8318622 0.1894147
vn -0.1459675 -0.9839247 0.1028868
vn -0.2407393 -0.9685205 0.06334436
vn -0.3458848 -0.9365091 0.05757108
vn -0.2694829 -0.8696891 -0.4135454
vn -0.3572097 -0.8522722 -0.3821429
vn -0.2364369 -0.9202691 0.3117731
vn -0.9057219 -0.421521 0.04458535
vn -0.8915904 -0.4500755 -0.04998812
vn -0.3911716 -0.8560473 -0.3378872
vn -0.4683348 -0.8783588 0.09564638
vn -0.5216582 -0.8318622 0.1894147
vn -0.5172602 -0.7718721 -0.3696691
vn -0.4155046 -0.8304095 -0.3711816
vn -0.3146248 -0.922293 0.2244702
vn 0.3356985 -0.9204275 -0.2002992
vn 0.3221525 -0.902828 -0.2848145
vn -0.8241647 -0.1925111 0.5326275
vn -0.8406644 -0.2493234 0.4807507
vn -0.8576645 -0.4266668 0.2869964
vn -0.7615961 0.1623342 0.6273906
vn -0.761181 0.1705848 0.6257031
vn -0.7577322 0.5418925 0.3635857
vn -0.7581917 0.5298661 0.3799832
vn -0.7127115 0.7013252 -0.01360696
vn -0.7134135 0.7006984 -0.007933155
vn -0.5691141 0.7531269 -0.3300136
vn -0.5912638 0.7479618 -0.3015964
vn -0.2470257 0.7193499 -0.6492411
vn -0.1625794 0.6869498 -0.7082852
vn 0.09155775 0.5512483 -0.8293024
vn 0.09115124 0.5514047 -0.8292432
vn 0.4866412 0.4193111 -0.7663932
vn 0.3823746 0.4642426 -0.7989171
vn 0.8020421 0.1949958 -0.5645397
vn 0.8200101 0.1742728 -0.5451719
vn 0.952872 0.02577151 -0.3022757
vn 0.9539689 0.02473026 -0.2988841
vn 0.9916192 -0.124723 0.03369647
vn 0.9876539 -0.1422551 0.06559928
vn 0.8366693 -0.432676 0.3358213
vn 0.8306951 -0.4412154 0.3395214
vn 0.5839632 -0.7575472 0.2917349
vn 0.5420449 -0.8041521 0.2439808
vn 0.3796697 -0.922025 0.0756369
vn 0.07970576 0.9967936 -0.007039243
vn 0.04459779 0.97813 0.2031567
vn -0.141326 0.9818903 0.1261682
vn -0.3380698 0.9320771 0.1301586
vn -0.2910969 0.9564532 0.02144144
vn 0.5952588 0.8019617 0.05024424
vn 0.5554135 0.8305165 -0.04193033
vn 0.5735231 0.817989 -0.04433013
vn 0.5679663 0.8218153 0.04509945
vn 0.3974331 0.9175258 -0.01390683
vn 0.5774426 0.638018 0.5094046
vn 0.5885682 0.6347378 0.5006948
vn 0.258697 0.02767054 0.965562
vn 0.226197 0.07309259 0.9713354
vn -0.2484643 -0.6412594 0.7259833
vn -0.1121085 -0.7161087 0.6889267
vn -0.2983887 -0.5462425 0.7826771
vn -0.5216582 -0.8318622 0.1894147
vn -0.4683348 -0.8783588 0.09564638
vn -0.3458848 -0.9365091 0.05757108
vn -0.2407393 -0.9685205 0.06334436
vn 0.2342642 -0.008310353 0.9721375
vn 0.4340686 0.6914536 0.577474
vn -0.0507855 -0.7074018 0.7049847
vn -0.1459675 -0.9839247 0.1028868
vn -0.04625632 -0.685646 0.726464
vn 0.05802603 0.06020997 0.9964978
vn 0.1215073 0.02296064 0.9923249
vn 0.1355204 0.7854583 0.6038952
vn 0.2166139 0.7448086 0.6311407
vn 0.1733963 0.9766116 0.1271361
vn 0.227033 0.9668095 0.1171992
vn 0.179716 0.9830438 0.03642593
vn 0.2132714 0.9766729 0.02500701
vn 0.4151345 0.9058501 0.08425642
g Object002_0
f 3/3/3 2/2/2 1/1/1
f 6/6/6 5/5/5 4/4/4
f 9/9/9 8/8/8 7/7/7
f 8/8/8 10/10/10 7/7/7
f 11/11/11 10/10/10 8/8/8
f 12/12/12 11/11/11 8/8/8
f 13/13/13 10/10/10 11/11/11
f 10/10/10 13/13/13 14/14/14
f 11/11/11 12/12/12 15/15/15
f 12/12/12 16/16/16 15/15/15
f 16/16/16 17/17/17 15/15/15
f 18/18/18 13/13/13 11/11/11
f 18/18/18 11/11/11 15/15/15
f 13/13/13 18/18/18 19/19/19
f 17/17/17 20/20/20 15/15/15
f 20/20/20 18/18/18 15/15/15
f 20/20/20 17/17/17 21/21/21
f 18/18/18 20/20/20 21/21/21
f 17/17/17 22/22/22 21/21/21
f 18/18/18 23/23/23 19/19/19
f 23/23/23 18/18/18 21/21/21
f 19/19/19 23/23/23 24/24/24
f 24/24/24 23/23/23 21/21/21
f 25/25/25 24/24/24 21/21/21
f 26/26/26 19/19/19 24/24/24
f 24/24/24 25/25/25 27/27/27
f 25/25/25 28/28/28 27/27/27
f 24/24/24 29/29/29 26/26/26
f 29/29/29 24/24/24 27/27/27
f 29/29/29 30/30/30 26/26/26
f 31/31/31 30/30/30 29/29/29
f 26/26/26 30/30/30 32/32/32
f 30/30/30 31/31/31 32/32/32
f 31/31/31 33/33/33 32/32/32
f 33/33/33 31/31/31 34/34/34
f 35/35/35 29/29/29 27/27/27
f 35/35/35 31/31/31 29/29/29
f 28/28/28 36/36/36 27/27/27
f 36/36/36 35/35/35 27/27/27
f 35/35/35 36/36/36 37/37/37
f 36/36/36 28/28/28 37/37/37
f 35/35/35 38/38/38 31/31/31
f 38/38/38 35/35/35 37/37/37
f 31/31/31 39/39/39 34/34/34
f 38/38/38 39/39/39 31/31/31
f 39/39/39 40/40/40 34/34/34
f 40/40/40 39/39/39 38/38/38
f 40/40/40 41/41/41 34/34/34
f 41/41/41 40/40/40 42/42/42
f 43/43/43 38/38/38 37/37/37
f 43/43/43 40/40/40 38/38/38
f 40/40/40 44/44/44 42/42/42
f 44/44/44 45/45/45 42/42/42
f 46/46/46 44/44/44 40/40/40
f 43/43/43 46/46/46 40/40/40
f 45/45/45 44/44/44 46/46/46
f 46/46/46 43/43/43 47/47/47
f 48/48/48 45/45/45 46/46/46
f 48/48/48 46/46/46 47/47/47
f 49/49/49 43/43/43 37/37/37
f 43/43/43 49/49/49 47/47/47
f 50/50/50 49/49/49 37/37/37
f 49/49/49 50/50/50 47/47/47
f 48/48/48 51/51/51 45/45/45
f 51/51/51 52/52/52 45/45/45
f 51/51/51 48/48/48 53/53/53
f 48/48/48 54/54/54 53/53/53
f 54/54/54 48/48/48 47/47/47
f 50/50/50 54/54/54 47/47/47
f 53/53/53 54/54/54 50/50/50
f 55/55/55 52/52/52 51/51/51
f 56/56/56 50/50/50 37/37/37
f 28/28/28 56/56/56 37/37/37
f 56/56/56 28/28/28 57/57/57
f 50/50/50 56/56/56 57/57/57
f 28/28/28 58/58/58 57/57/57
f 59/59/59 50/50/50 57/57/57
f 50/50/50 59/59/59 53/53/53
f 59/59/59 60/60/60 53/53/53
f 60/60/60 61/61/61 53/53/53
f 62/62/62 51/51/51 53/53/53
f 62/62/62 55/55/55 51/51/51
f 61/61/61 63/63/63 53/53/53
f 63/63/63 62/62/62 53/53/53
f 63/63/63 61/61/61 64/64/64
f 62/62/62 63/63/63 64/64/64
f 61/61/61 65/65/65 64/64/64
f 65/65/65 66/66/66 64/64/64
f 67/67/67 62/62/62 64/64/64
f 66/66/66 67/67/67 64/64/64
f 62/62/62 67/67/67 55/55/55
f 66/66/66 68/68/68 67/67/67
f 67/67/67 69/69/69 55/55/55
f 68/68/68 69/69/69 67/67/67
f 55/55/55 69/69/69 70/70/70
f 69/69/69 68/68/68 71/71/71
f 68/68/68 72/72/72 71/71/71
f 75/75/75 74/74/74 73/73/73
f 75/75/75 73/73/73 76/76/76
f 76/76/76 73/73/73 77/77/77
f 73/73/73 78/78/78 77/77/77
f 78/78/78 79/79/79 77/77/77
f 79/79/79 80/80/80 77/77/77
f 76/76/76 81/81/81 75/75/75
f 81/81/81 82/82/82 75/75/75
f 83/83/83 82/82/82 81/81/81
f 81/81/81 84/84/84 83/83/83
f 83/83/83 84/84/84 85/85/85
f 86/86/86 83/83/83 85/85/85
f 87/87/87 86/86/86 85/85/85
f 88/88/88 87/87/87 85/85/85
f 91/91/91 90/90/90 89/89/89
f 89/89/89 90/90/90 92/92/92
f 90/90/90 93/93/93 92/92/92
f 92/92/92 93/93/93 94/94/94
f 93/93/93 95/95/95 94/94/94
f 94/94/94 95/95/95 96/96/96
f 95/95/95 97/97/97 96/96/96
f 96/96/96 97/97/97 98/98/98
f 97/97/97 99/99/99 98/98/98
f 98/98/98 99/99/99 100/100/100
f 99/99/99 101/101/101 100/100/100
f 100/100/100 101/101/101 102/102/102
f 101/101/101 103/103/103 102/102/102
f 102/102/102 103/103/103 104/104/104
f 103/103/103 105/105/105 104/104/104
f 104/104/104 105/105/105 106/106/106
f 105/105/105 107/107/107 106/106/106
f 106/106/106 107/107/107 108/108/108
f 107/107/107 109/109/109 108/108/108
f 108/108/108 109/109/109 110/110/110
f 109/109/109 111/111/111 110/110/110
f 110/110/110 111/111/111 112/112/112
f 111/111/111 113/113/113 112/112/112
f 112/112/112 113/113/113 114/114/114
f 113/113/113 115/115/115 114/114/114
f 114/114/114 115/115/115 116/116/116
f 119/119/119 118/118/118 117/117/117
f 117/117/117 120/120/120 119/119/119
f 117/117/117 121/121/121 120/120/120
f 124/124/124 123/123/123 122/122/122
f 123/123/123 125/125/125 122/122/122
f 125/125/125 123/123/123 126/126/126
f 122/122/122 125/125/125 127/127/127
f 128/128/128 122/122/122 127/127/127
f 128/128/128 127/127/127 129/129/129
f 130/130/130 128/128/128 129/129/129
f 130/130/130 129/129/129 131/131/131
f 131/131/131 129/129/129 132/132/132
f 133/133/133 130/130/130 131/131/131
f 133/133/133 131/131/131 134/134/134
f 131/131/131 135/135/135 134/134/134
f 131/131/131 132/132/132 135/135/135
f 132/132/132 136/136/136 135/135/135
f 137/137/137 136/136/136 132/132/132
f 129/129/129 127/127/127 138/138/138
f 129/129/129 138/138/138 132/132/132
f 127/127/127 125/125/125 139/139/139
f 127/127/127 139/139/139 138/138/138
f 140/140/140 137/137/137 132/132/132
f 141/141/141 137/137/137 140/140/140
f 142/142/142 141/141/141 140/140/140
f 142/142/142 140/140/140 143/143/143
f 140/140/140 132/132/132 144/144/144
f 140/140/140 144/144/144 143/143/143
f 132/132/132 138/138/138 144/144/144
f 143/143/143 144/144/144 145/145/145
f 144/144/144 138/138/138 146/146/146
f 144/144/144 146/146/146 145/145/145
f 138/138/138 139/139/139 146/146/146
f 145/145/145 146/146/146 147/147/147
f 146/146/146 148/148/148 147/147/147
f 148/148/148 146/146/146 139/139/139
f 147/147/147 148/148/148 149/149/149
f 148/148/148 150/150/150 149/149/149
f 150/150/150 148/148/148 126/126/126
f 151/151/151 148/148/148 139/139/139
f 148/148/148 151/151/151 126/126/126
f 125/125/125 151/151/151 139/139/139
f 151/151/151 125/125/125 126/126/126
