g Object001
v 0.6816436 1.035436 7.38599
v 0.6114246 0.8576496 7.44006
v 0.9570708 0.6205747 7.342662
v 1.099667 0.7562044 7.284841
v 1.074264 0.4916875 7.368531
v 1.247911 0.8373726 7.448033
v 0.7971237 1.156704 7.545554
v 1.10273 0.8889588 7.593795
v 0.8036993 1.10875 7.660526
v 1.172777 0.8031147 7.644238
v 1.223068 0.6826016 7.797114
v 1.161065 0.7339732 7.810753
v 1.100142 0.4791457 8.13015
v 1.297653 0.6628959 7.481411
v 1.212722 0.5225684 7.342815
v 1.217379 0.3591362 7.656825
v 1.045355 0.3227745 7.62165
v 0.9757497 0.1553865 7.98837
v 1.10519 0.203364 8.099727
v 1.195751 0.3161579 8.066423
v 0.9728413 0.3432928 8.188668
v 0.9757497 0.1553865 7.98837
v 0.8396428 0.3030792 8.025476
v 1.305525 0.4986169 7.72702
v 0.04222585 1.019603 7.581328
v 0.4817635 0.9150971 7.473835
v 0.5516523 1.093116 7.417645
v 0.1141434 1.202788 7.523507
v -0.09411839 1.053882 7.704224
v -0.08768417 1.241275 7.678733
v 0.2500013 1.329877 7.686698
v 0.6687585 1.217096 7.576762
v 0.05616666 1.352927 7.797901
v -0.08976604 1.124703 8.035576
v -0.09411839 1.053882 7.704224
v -0.1107059 0.8985384 7.965379
v -0.07053114 0.8186825 8.250051
v 0.4618737 1.24329 7.71088
v 0.6753145 1.173778 7.683212
v 0.3692062 1.24615 7.810831
v 0.2570875 1.188233 8.03578
v 0.3654009 1.161693 8.006341
v 0.2736498 0.9943226 8.317961
v 0.05077387 1.230359 8.07075
v 0.04908372 1.018179 8.328104
v 0.2003503 0.8145846 8.376309
v 0.1107874 0.7284505 8.213118
v -0.05037262 0.9032477 8.388647
v 1.074264 0.4916875 7.368531
v 0.9570708 0.6205747 7.342662
v 1.045355 0.3227745 7.62165
v 0.8396428 0.3030792 8.025476
v 0.9757497 0.1553865 7.98837
v 0.596583 0.553579 8.117609
v 0.6114246 0.8576496 7.44006
v 0.4817635 0.9150971 7.473835
v 0.4757265 0.6243502 8.1482
v 0.04222585 1.019603 7.581328
v 0.1107874 0.7284505 8.213118
v -0.1107059 0.8985384 7.965379
v -0.09411839 1.053882 7.704224
v -0.07053114 0.8186825 8.250051
v 0.1107874 0.7284505 8.213118
v 0.1385138 0.7068135 8.239179
v 0.4757265 0.6243502 8.1482
v 0.5719646 0.6925027 8.309347
v 0.2295299 0.8004263 8.402724
v 0.3109329 0.9970205 8.345523
v 0.6551706 0.8499849 8.251792
v 0.3950399 1.188179 8.023692
v 0.7037171 1.085863 7.962396
v 0.3984243 1.25364 7.859993
v 0.4858497 1.251138 7.767827
v 0.6884681 1.186029 7.740425
v 0.8396428 0.3030792 8.025476
v 0.596583 0.553579 8.117609
v 0.8134811 0.3224846 8.068551
v 0.694127 0.6199309 8.280587
v 0.9552842 0.3712097 8.231873
v 1.094524 0.5198981 8.172981
v 0.7785523 0.7753714 8.224572
v 0.8302565 1.023088 7.932257
v 1.157726 0.7876518 7.843995
v 1.16874 0.839855 7.706314
v 1.102077 0.9188955 7.660595
v 0.8176079 1.122057 7.718557
v 0.8396428 0.3030792 8.025476
v 0.8134811 0.3224846 8.068551
v 0.9552842 0.3712097 8.231873
v 0.9728413 0.3432928 8.188668
v 1.094524 0.5198981 8.172981
v 1.100142 0.4791457 8.13015
v 1.157726 0.7876518 7.843995
v 1.161065 0.7339732 7.810753
v 1.16874 0.839855 7.706314
v 1.172777 0.8031147 7.644238
v 1.102077 0.9188955 7.660595
v 1.10273 0.8889588 7.593795
v 0.8176079 1.122057 7.718557
v 0.8036993 1.10875 7.660526
v 0.6753145 1.173778 7.683212
v 0.6884681 1.186029 7.740425
v 0.4858497 1.251138 7.767827
v 0.4618737 1.24329 7.71088
v 0.3984243 1.25364 7.859993
v 0.3692062 1.24615 7.810831
v 0.3950399 1.188179 8.023692
v 0.3654009 1.161693 8.006341
v 0.3109329 0.9970205 8.345523
v 0.2736498 0.9943226 8.317961
v 0.2295299 0.8004263 8.402724
v 0.2003503 0.8145846 8.376309
v 0.1385138 0.7068135 8.239179
v 0.1107874 0.7284505 8.213118
v 0.6114246 0.8576496 7.44006
v 0.548231 1.10363 7.384437
v 0.4817635 0.9150971 7.473835
v 0.6790441 1.047544 7.353253
v 0.681609 1.248617 7.568621
v 0.8103962 1.188386 7.538837
v 0.704357 1.217067 7.743457
v 0.8335395 1.153024 7.722046
v 0.7205194 1.111989 7.978524
v 0.8470263 1.048877 7.948951
v 0.6702858 0.8648127 8.27966
v 0.7933693 0.789521 8.252949
v 0.5711957 0.6784999 8.341415
v 0.6941043 0.6070029 8.313112
v 0.4757265 0.6243502 8.1482
v 0.596583 0.553579 8.117609
v 0.5719646 0.6925027 8.309347
v 0.5711957 0.6784999 8.341415
v 0.4757265 0.6243502 8.1482
v 0.6551706 0.8499849 8.251792
v 0.6702858 0.8648127 8.27966
v 0.7037171 1.085863 7.962396
v 0.7205194 1.111989 7.978524
v 0.6884681 1.186029 7.740425
v 0.704357 1.217067 7.743457
v 0.6753145 1.173778 7.683212
v 0.6687585 1.217096 7.576762
v 0.681609 1.248617 7.568621
v 0.5516523 1.093116 7.417645
v 0.548231 1.10363 7.384437
v 0.4817635 0.9150971 7.473835
v 0.596583 0.553579 8.117609
v 0.6941043 0.6070029 8.313112
v 0.694127 0.6199309 8.280587
v 0.7933693 0.789521 8.252949
v 0.7785523 0.7753714 8.224572
v 0.8470263 1.048877 7.948951
v 0.8302565 1.023088 7.932257
v 0.8335395 1.153024 7.722046
v 0.8176079 1.122057 7.718557
v 0.8036993 1.10875 7.660526
v 0.8103962 1.188386 7.538837
v 0.7971237 1.156704 7.545554
v 0.6790441 1.047544 7.353253
v 0.6816436 1.035436 7.38599
v 0.6114246 0.8576496 7.44006
vt 0.3800927 0.2496562
vt 0.3676749 0.1741496
vt 0.1907974 0.235552
vt 0.2040087 0.2951728
vt 0.05947074 0.3303164
vt 0.2031542 0.3580934
vt 0.3926421 0.3364461
vt 0.2579661 0.4010504
vt 0.3932153 0.383715
vt 0.2238961 0.4325171
vt 0.202283 0.5037823
vt 0.2305556 0.5025173
vt 0.2268763 0.6621671
vt 0.1462098 0.3869875
vt 0.07896671 0.3500994
vt 0.08169612 0.5177405
vt 0.01618585 0.5228389
vt 0.02295503 0.6867698
vt 0.129767 0.7331944
vt 0.1505485 0.6775394
vt 0.2446538 0.7398852
vt 0.1856914 0.8314524
vt 0.2759772 0.8086265
vt 0.1323901 0.5128918
vt 0.6356888 0.1400109
vt 0.4467593 0.162394
vt 0.4604712 0.240695
vt 0.6257153 0.2284357
vt 0.7145806 0.1487311
vt 0.7461038 0.2694807
vt 0.6160803 0.3244466
vt 0.4608742 0.3298613
vt 0.6991683 0.338934
vt 0.7809077 0.4594358
vt 0.8447319 0.3403042
vt 0.8715068 0.4636022
vt 0.8065658 0.6584161
vt 0.5459362 0.3643039
vt 0.4678555 0.3742166
vt 0.5883146 0.3939424
vt 0.6434379 0.4746171
vt 0.6013532 0.4763521
vt 0.6440449 0.6136242
vt 0.7186571 0.4629401
vt 0.7399598 0.5981584
vt 0.651598 0.6785663
vt 0.6603351 0.7488363
vt 0.7856665 0.6440778
vt 0.009933081 0.03309675
vt 0.03983888 0.01840539
vt 0.008510199 0.09091707
vt 0.05734881 0.1614922
vt 0.01918468 0.1675869
vt 0.1251145 0.1565295
vt 0.1209398 0.01610835
vt 0.1484815 0.01710685
vt 0.152206 0.1560378
vt 0.2358862 0.0262992
vt 0.2250338 0.1581425
vt 0.2672931 0.101524
vt 0.2665091 0.04393645
vt 0.2639953 0.157896
vt 0.6603351 0.7488363
vt 0.6368924 0.7477584
vt 0.5091935 0.7773638
vt 0.4898201 0.7016202
vt 0.6283432 0.6866191
vt 0.6190582 0.621101
vt 0.4756604 0.6288067
vt 0.5877624 0.4813641
vt 0.4670692 0.4877718
vt 0.581296 0.4151536
vt 0.5450779 0.3881811
vt 0.467928 0.3964125
vt 0.2759772 0.8086265
vt 0.4192773 0.792343
vt 0.298874 0.7978581
vt 0.4034368 0.7138067
vt 0.2667089 0.7354494
vt 0.2480517 0.6624182
vt 0.3978415 0.6383296
vt 0.3967687 0.4915508
vt 0.2489873 0.5028766
vt 0.2400175 0.4494358
vt 0.2688456 0.4220661
vt 0.397967 0.4040862
vt 0.2759772 0.8086265
vt 0.298874 0.7978581
vt 0.2667089 0.7354494
vt 0.2446538 0.7398852
vt 0.2480517 0.6624182
vt 0.2268763 0.6621671
vt 0.2489873 0.5028766
vt 0.2305556 0.5025173
vt 0.2400175 0.4494358
vt 0.2238961 0.4325171
vt 0.2688456 0.4220661
vt 0.2579661 0.4010504
vt 0.397967 0.4040862
vt 0.3932153 0.383715
vt 0.4678555 0.3742166
vt 0.467928 0.3964125
vt 0.5450779 0.3881811
vt 0.5459362 0.3643039
vt 0.581296 0.4151536
vt 0.5883146 0.3939424
vt 0.5877624 0.4813641
vt 0.6013532 0.4763521
vt 0.6190582 0.621101
vt 0.6440449 0.6136242
vt 0.6283432 0.6866191
vt 0.651598 0.6785663
vt 0.6368924 0.7477584
vt 0.6603351 0.7488363
vt 0.3676749 0.1741496
vt 0.4462267 0.2397939
vt 0.4467593 0.162394
vt 0.3933783 0.2476798
vt 0.4510852 0.3324101
vt 0.4021455 0.3379332
vt 0.4567095 0.396617
vt 0.4092713 0.4031659
vt 0.4572817 0.4885939
vt 0.4064842 0.4915334
vt 0.4634548 0.630317
vt 0.4095393 0.6374844
vt 0.4756041 0.7052827
vt 0.4181858 0.712096
vt 0.5091935 0.7773638
vt 0.4192773 0.792343
vt 0.4898201 0.7016202
vt 0.4756041 0.7052827
vt 0.5091935 0.7773638
vt 0.4756604 0.6288067
vt 0.4634548 0.630317
vt 0.4670692 0.4877718
vt 0.4572817 0.4885939
vt 0.467928 0.3964125
vt 0.4567095 0.396617
vt 0.4678555 0.3742166
vt 0.4608742 0.3298613
vt 0.4510852 0.3324101
vt 0.4604712 0.240695
vt 0.4462267 0.2397939
vt 0.4467593 0.162394
vt 0.4192773 0.792343
vt 0.4181858 0.712096
vt 0.4034368 0.7138067
vt 0.4095393 0.6374844
vt 0.3978415 0.6383296
vt 0.4064842 0.4915334
vt 0.3967687 0.4915508
vt 0.4092713 0.4031659
vt 0.397967 0.4040862
vt 0.3932153 0.383715
vt 0.4021455 0.3379332
vt 0.3926421 0.3364461
vt 0.3933783 0.2476798
vt 0.3800927 0.2496562
vt 0.3676749 0.1741496
vn 0.0115052 0.3500686 -0.9366534
vn -0.4974971 -0.4955758 -0.71197
vn -0.4541337 -0.4306495 -0.7799382
vn 0.2213148 0.186427 -0.9572172
vn -0.1965237 -0.6593384 -0.7257075
vn 0.7675597 0.5805157 -0.2717601
vn 0.5238988 0.8205103 -0.2286765
vn 0.6028916 0.728703 0.3248286
vn 0.5989431 0.73915 0.308098
vn 0.6177019 0.7035362 0.3513987
vn 0.7796043 0.4794855 0.4028782
vn 0.6144022 0.644506 0.4551066
vn 0.7122108 0.1361372 0.6886381
vn 0.9683446 0.06891515 -0.2399159
vn 0.520253 -0.4287123 -0.7386085
vn 0.6334133 -0.7244937 -0.2718392
vn -0.2220714 -0.8602707 -0.4589319
vn -0.2919609 -0.9563548 -0.01201141
vn 0.3556749 -0.76618 0.5352231
vn 0.8537438 -0.224547 0.4697874
vn 0.0258668 -0.4515108 0.8918906
vn -0.2919609 -0.9563548 -0.01201141
vn -0.6991796 -0.7089048 -0.09274641
vn 0.9884409 -0.1102191 0.1040986
vn -0.4853944 -0.4943262 -0.7211338
vn -0.3929285 -0.5750632 -0.717572
vn -0.1154835 0.4105999 -0.9044729
vn -0.3167426 0.3929353 -0.8632938
vn -0.8668545 -0.2623494 -0.423953
vn -0.7740204 0.5016447 -0.3863223
vn 0.1166629 0.9785727 -0.1696622
vn 0.2187666 0.9629863 -0.1574754
vn -0.2238558 0.9723779 0.06610516
vn -0.8717815 0.4188296 0.2541237
vn -0.8668545 -0.2623494 -0.423953
vn -0.826458 -0.5320581 -0.184069
vn -0.7660742 -0.6021077 0.2249369
vn 0.3292908 0.8882523 0.3202741
vn 0.3273739 0.884559 0.3322375
vn 0.2999704 0.8929855 0.3355511
vn 0.270578 0.841345 0.4678953
vn 0.3022173 0.8496286 0.432199
vn 0.1798753 0.6193848 0.7642037
vn -0.2125601 0.8515646 0.4792242
vn -0.1423259 0.6373935 0.7572799
vn -0.06970765 -0.2364078 0.9691502
vn -0.3489422 -0.933261 -0.08522493
vn -0.5835299 -0.05233754 0.8104034
vn -0.1965237 -0.6593384 -0.7257075
vn -0.4541337 -0.4306495 -0.7799382
vn -0.2220714 -0.8602707 -0.4589319
vn -0.6991796 -0.7089048 -0.09274641
vn -0.2919609 -0.9563548 -0.01201141
vn -0.5774726 -0.8124315 0.08050106
vn -0.4974971 -0.4955758 -0.71197
vn -0.3929285 -0.5750632 -0.717572
vn -0.3522156 -0.9346424 0.04886412
vn -0.4853944 -0.4943262 -0.7211338
vn -0.3489422 -0.933261 -0.08522493
vn -0.826458 -0.5320581 -0.184069
vn -0.8668545 -0.2623494 -0.423953
vn -0.7660742 -0.6021077 0.2249369
vn -0.3489422 -0.933261 -0.08522493
vn -0.2587248 -0.9653549 -0.03393162
vn -0.3522156 -0.9346424 0.04886412
vn 0.1586371 -0.3617436 0.9186816
vn 0.1086787 -0.4845031 0.8680125
vn 0.3771763 0.4309771 0.8197541
vn 0.3850878 0.476999 0.7900503
vn 0.3879966 0.7857973 0.4816444
vn 0.3806406 0.796089 0.4704838
vn 0.3629711 0.8677266 0.3395623
vn 0.3556906 0.8702089 0.3409113
vn 0.329203 0.8689585 0.3695085
vn -0.6991796 -0.7089048 -0.09274641
vn -0.5774726 -0.8124315 0.08050106
vn -0.6926028 -0.6989864 0.1780995
vn -0.1050282 -0.2688197 0.9574471
vn -0.09318656 -0.2572418 0.9618436
vn 0.4484496 0.3744887 0.8115732
vn 0.4674322 0.4043113 0.7861549
vn 0.5921675 0.6696267 0.4482608
vn 0.5951079 0.6587799 0.460278
vn 0.6104653 0.7195721 0.3309804
vn 0.6082336 0.7209568 0.3320741
vn 0.5936303 0.7430547 0.3089868
vn -0.183821 -0.8981314 0.3994621
vn -0.183821 -0.8981314 0.3994621
vn 0.3945742 -0.7286039 0.559864
vn 0.2462919 -0.806686 0.5372133
vn 0.8980818 -0.2451995 0.3651386
vn 0.8917375 -0.2546682 0.3740965
vn 0.9927406 -0.01728491 0.1190267
vn 0.9929704 -0.01648289 0.1172095
vn 0.9700742 0.2348576 -0.0616274
vn 0.927925 0.3490083 -0.1309522
vn 0.6598155 0.6900536 -0.2974382
vn 0.6933615 0.6605319 -0.288006
vn 0.5068628 0.7964718 -0.3297314
vn 0.5068628 0.7964718 -0.3297314
vn 0.2677839 0.9302425 -0.2508797
vn 0.2677839 0.9302425 -0.2508797
vn 0.08592699 0.9805914 -0.1762302
vn 0.1103018 0.9762299 -0.1865706
vn -0.513004 0.845578 0.1477321
vn -0.2760619 0.961126 0.005157786
vn -0.6181775 0.7335422 0.2824402
vn -0.6185788 0.7332332 0.2823638
vn -0.5522073 0.6315041 0.5443065
vn -0.5529993 0.6440253 0.528605
vn -0.6597781 0.1552295 0.7352528
vn -0.7035617 0.01430809 0.7104901
vn -0.7432098 -0.3207103 0.5871832
vn -0.7432098 -0.3207103 0.5871831
vn -0.4974971 -0.4955758 -0.71197
vn -0.1252652 0.2385272 -0.9630231
vn -0.3929285 -0.5750632 -0.717572
vn -0.1014947 0.2853694 -0.9530284
vn 0.3355961 0.8857322 -0.320708
vn 0.3417647 0.8893489 -0.3037358
vn 0.4633774 0.8585687 0.2194109
vn 0.4644827 0.8551242 0.2302576
vn 0.4852632 0.732284 0.4777863
vn 0.4854861 0.7291041 0.4824007
vn 0.4149325 0.4147157 0.8098406
vn 0.4099563 0.4018776 0.8187979
vn -0.06607339 -0.4627952 0.8839994
vn -0.0373134 -0.4215586 0.9060332
vn -0.3522156 -0.9346424 0.04886412
vn -0.5774726 -0.8124315 0.08050106
vn -0.8140864 0.5407805 0.2117066
vn -0.8153822 0.5392078 0.2107295
vn -0.7887835 0.5700209 0.229993
vn -0.853981 0.4779533 0.2056136
vn -0.8543136 0.4772501 0.2058657
vn -0.8720629 0.4306829 0.232419
vn -0.8721172 0.4304031 0.2327331
vn -0.8842353 0.4323129 0.1767303
vn -0.8894135 0.4130182 0.1958562
vn -0.9050795 0.3853105 0.1799082
vn -0.8810002 0.4133652 0.2301478
vn -0.8830791 0.410406 0.2274608
vn -0.8665513 0.4349503 0.2447596
vn -0.8659021 0.4357215 0.2456831
vn -0.8815194 0.4163551 0.2226478
vn 0.7804347 -0.5812083 -0.2304744
vn 0.8105543 -0.5470083 -0.2092453
vn 0.8072746 -0.5509171 -0.2116552
vn 0.8528455 -0.4796265 -0.2064291
vn 0.8527854 -0.4797527 -0.2063838
vn 0.8730649 -0.4286272 -0.2324574
vn 0.8730243 -0.4288228 -0.2322485
vn 0.8894493 -0.4130525 -0.1956211
vn 0.8843259 -0.4325836 -0.1756106
vn 0.904557 -0.3858186 -0.1814406
vn 0.8838835 -0.4083637 -0.2280111
vn 0.8807768 -0.4126843 -0.2322151
vn 0.8658062 -0.4344817 -0.2482038
vn 0.867296 -0.4327918 -0.2459451
vn 0.8812872 -0.4161713 -0.2239068
g Object001_0
f 3/3/3 2/2/2 1/1/1
f 4/4/4 3/3/3 1/1/1
f 3/3/3 4/4/4 5/5/5
f 4/4/4 1/1/1 6/6/6
f 1/1/1 7/7/7 6/6/6
f 8/8/8 6/6/6 7/7/7
f 9/9/9 8/8/8 7/7/7
f 10/10/10 6/6/6 8/8/8
f 11/11/11 6/6/6 10/10/10
f 12/12/12 11/11/11 10/10/10
f 11/11/11 12/12/12 13/13/13
f 4/4/4 6/6/6 14/14/14
f 6/6/6 11/11/11 14/14/14
f 4/4/4 15/15/15 5/5/5
f 15/15/15 4/4/4 14/14/14
f 15/15/15 16/16/16 5/5/5
f 16/16/16 15/15/15 14/14/14
f 16/16/16 17/17/17 5/5/5
f 17/17/17 16/16/16 18/18/18
f 16/16/16 19/19/19 18/18/18
f 11/11/11 13/13/13 20/20/20
f 19/19/19 16/16/16 20/20/20
f 13/13/13 21/21/21 20/20/20
f 21/21/21 19/19/19 20/20/20
f 19/19/19 21/21/21 22/22/22
f 21/21/21 23/23/23 22/22/22
f 24/24/24 16/16/16 14/14/14
f 11/11/11 24/24/24 14/14/14
f 16/16/16 24/24/24 20/20/20
f 24/24/24 11/11/11 20/20/20
f 27/27/27 26/26/26 25/25/25
f 28/28/28 27/27/27 25/25/25
f 28/28/28 25/25/25 29/29/29
f 30/30/30 28/28/28 29/29/29
f 28/28/28 31/31/31 27/27/27
f 31/31/31 32/32/32 27/27/27
f 28/28/28 30/30/30 33/33/33
f 31/31/31 28/28/28 33/33/33
f 30/30/30 34/34/34 33/33/33
f 34/34/34 30/30/30 35/35/35
f 36/36/36 34/34/34 35/35/35
f 34/34/34 36/36/36 37/37/37
f 32/32/32 31/31/31 38/38/38
f 39/39/39 32/32/32 38/38/38
f 38/38/38 31/31/31 40/40/40
f 40/40/40 31/31/31 41/41/41
f 41/41/41 31/31/31 33/33/33
f 42/42/42 40/40/40 41/41/41
f 41/41/41 43/43/43 42/42/42
f 44/44/44 41/41/41 33/33/33
f 34/34/34 44/44/44 33/33/33
f 43/43/43 41/41/41 45/45/45
f 41/41/41 44/44/44 45/45/45
f 44/44/44 34/34/34 45/45/45
f 46/46/46 43/43/43 45/45/45
f 47/47/47 46/46/46 37/37/37
f 48/48/48 34/34/34 37/37/37
f 34/34/34 48/48/48 45/45/45
f 48/48/48 46/46/46 45/45/45
f 46/46/46 48/48/48 37/37/37
f 51/51/51 50/50/50 49/49/49
f 52/52/52 50/50/50 51/51/51
f 52/52/52 51/51/51 53/53/53
f 52/52/52 54/54/54 50/50/50
f 54/54/54 55/55/55 50/50/50
f 55/55/55 54/54/54 56/56/56
f 54/54/54 57/57/57 56/56/56
f 58/58/58 56/56/56 57/57/57
f 59/59/59 58/58/58 57/57/57
f 59/59/59 60/60/60 58/58/58
f 58/58/58 60/60/60 61/61/61
f 60/60/60 59/59/59 62/62/62
f 65/65/65 64/64/64 63/63/63
f 64/64/64 65/65/65 66/66/66
f 67/67/67 64/64/64 66/66/66
f 67/67/67 66/66/66 68/68/68
f 66/66/66 69/69/69 68/68/68
f 70/70/70 68/68/68 69/69/69
f 71/71/71 70/70/70 69/69/69
f 70/70/70 71/71/71 72/72/72
f 71/71/71 73/73/73 72/72/72
f 74/74/74 73/73/73 71/71/71
f 77/77/77 76/76/76 75/75/75
f 78/78/78 76/76/76 77/77/77
f 79/79/79 78/78/78 77/77/77
f 79/79/79 80/80/80 78/78/78
f 80/80/80 81/81/81 78/78/78
f 81/81/81 80/80/80 82/82/82
f 80/80/80 83/83/83 82/82/82
f 83/83/83 84/84/84 82/82/82
f 82/82/82 84/84/84 85/85/85
f 86/86/86 82/82/82 85/85/85
f 89/89/89 88/88/88 87/87/87
f 90/90/90 89/89/89 87/87/87
f 91/91/91 89/89/89 90/90/90
f 92/92/92 91/91/91 90/90/90
f 93/93/93 91/91/91 92/92/92
f 94/94/94 93/93/93 92/92/92
f 95/95/95 93/93/93 94/94/94
f 96/96/96 95/95/95 94/94/94
f 97/97/97 95/95/95 96/96/96
f 98/98/98 97/97/97 96/96/96
f 99/99/99 97/97/97 98/98/98
f 100/100/100 99/99/99 98/98/98
f 103/103/103 102/102/102 101/101/101
f 104/104/104 103/103/103 101/101/101
f 105/105/105 103/103/103 104/104/104
f 106/106/106 105/105/105 104/104/104
f 107/107/107 105/105/105 106/106/106
f 108/108/108 107/107/107 106/106/106
f 109/109/109 107/107/107 108/108/108
f 110/110/110 109/109/109 108/108/108
f 111/111/111 109/109/109 110/110/110
f 112/112/112 111/111/111 110/110/110
f 113/113/113 111/111/111 112/112/112
f 114/114/114 113/113/113 112/112/112
f 117/117/117 116/116/116 115/115/115
f 116/116/116 118/118/118 115/115/115
f 118/118/118 116/116/116 119/119/119
f 120/120/120 118/118/118 119/119/119
f 119/119/119 121/121/121 120/120/120
f 121/121/121 122/122/122 120/120/120
f 121/121/121 123/123/123 122/122/122
f 123/123/123 124/124/124 122/122/122
f 124/124/124 123/123/123 125/125/125
f 126/126/126 124/124/124 125/125/125
f 125/125/125 127/127/127 126/126/126
f 127/127/127 128/128/128 126/126/126
f 128/128/128 127/127/127 129/129/129
f 130/130/130 128/128/128 129/129/129
f 133/133/133 132/132/132 131/131/131
f 131/131/131 132/132/132 134/134/134
f 132/132/132 135/135/135 134/134/134
f 134/134/134 135/135/135 136/136/136
f 135/135/135 137/137/137 136/136/136
f 136/136/136 137/137/137 138/138/138
f 137/137/137 139/139/139 138/138/138
f 138/138/138 139/139/139 140/140/140
f 140/140/140 139/139/139 141/141/141
f 139/139/139 142/142/142 141/141/141
f 141/141/141 142/142/142 143/143/143
f 142/142/142 144/144/144 143/143/143
f 143/143/143 144/144/144 145/145/145
f 148/148/148 147/147/147 146/146/146
f 149/149/149 147/147/147 148/148/148
f 150/150/150 149/149/149 148/148/148
f 151/151/151 149/149/149 150/150/150
f 152/152/152 151/151/151 150/150/150
f 153/153/153 151/151/151 152/152/152
f 154/154/154 153/153/153 152/152/152
f 155/155/155 153/153/153 154/154/154
f 156/156/156 153/153/153 155/155/155
f 157/157/157 156/156/156 155/155/155
f 158/158/158 156/156/156 157/157/157
f 159/159/159 158/158/158 157/157/157
f 160/160/160 158/158/158 159/159/159
