g ray_high
v -0.2155446 0.2155446 1.984812
v -0.002284706 0.3024283 1.984812
v -0.002284706 0.002284706 7.679643
v -0.002284706 0.3972105 0.08916837
v 0.2109752 0.2155446 1.984812
v -0.2866313 0.2866313 0.08916837
v -0.002284706 0.002284706 -0.2346708
v -0.3972105 0.002284706 0.08916837
v -0.3024283 0.002284706 1.984812
v -0.2155446 -0.2109752 1.984812
v 0.2820619 0.2866313 0.08916837
v 0.4005396 0.002284706 0.08916837
v -0.2866313 -0.2820619 0.08916837
v -0.002284706 -0.4005396 0.08916837
v -0.002284706 -0.2978589 1.984812
v 0.2978589 0.002284706 1.984812
v 0.2109752 -0.2109752 1.984812
v 0.2820619 -0.2820619 0.08916837
vn -0.7071068 0.7071068 0
vn -0.01585102 0.9986107 0.05025325
vn -0.01585102 -0.0158509 0.9997487
vn -0.01585102 0.9986107 -0.05025325
vn 0.7071068 0.7071068 0
vn -0.7071068 0.7071068 0
vn -0.6498895 0.6498895 -0.3940652
vn -0.9986107 0.01585102 -0.05025304
vn -0.9986107 0.01585102 0.05025304
vn -0.7071068 -0.7071068 0
vn 0.7071068 0.7071068 0
vn 0.9986106 0.01585102 -0.05025541
vn -0.7071068 -0.7071068 0
vn -0.01585102 -0.9986106 -0.05025562
vn -0.01585102 -0.9986106 0.05025562
vn 0.9986106 0.01585102 0.05025541
vn 0.7071068 -0.7071068 0
vn 0.7071068 -0.7071068 0
g ray_high_0
f 3/3/3 2/2/2 1/1/1
f 2/2/2 4/4/4 1/1/1
f 3/3/3 5/5/5 2/2/2
f 2/2/2 5/5/5 4/4/4
f 1/1/1 4/4/4 6/6/6
f 6/6/6 4/4/4 7/7/7
f 1/1/1 6/6/6 8/8/8
f 6/6/6 7/7/7 8/8/8
f 3/3/3 1/1/1 9/9/9
f 9/9/9 1/1/1 8/8/8
f 9/9/9 8/8/8 10/10/10
f 3/3/3 9/9/9 10/10/10
f 5/5/5 11/11/11 4/4/4
f 11/11/11 7/7/7 4/4/4
f 5/5/5 12/12/12 11/11/11
f 11/11/11 12/12/12 7/7/7
f 10/10/10 8/8/8 13/13/13
f 13/13/13 8/8/8 7/7/7
f 10/10/10 13/13/13 14/14/14
f 13/13/13 7/7/7 14/14/14
f 3/3/3 10/10/10 15/15/15
f 15/15/15 10/10/10 14/14/14
f 3/3/3 16/16/16 5/5/5
f 16/16/16 12/12/12 5/5/5
f 3/3/3 15/15/15 17/17/17
f 3/3/3 17/17/17 16/16/16
f 15/15/15 14/14/14 17/17/17
f 16/16/16 17/17/17 12/12/12
f 18/18/18 7/7/7 12/12/12
f 18/18/18 14/14/14 7/7/7
f 17/17/17 18/18/18 12/12/12
f 17/17/17 14/14/14 18/18/18
