g satelite_00
v 0.3071521 0.125203 0.0006847084
v 0.3071521 0.4486046 0.0006847084
v 0.3019639 0.4589811 -0.059845
v 0.3019639 0.1355795 -0.059845
v 0.2829402 0.4866519 -0.1169159
v 0.2829402 0.1649797 -0.1169159
v 0.2552695 0.5333462 -0.1705279
v 0.2552695 0.211674 -0.1705279
v 0.2172223 0.5973347 -0.2172223
v 0.2172223 0.2739331 -0.2172223
v 0.1705279 0.6734293 -0.2552695
v 0.1705279 0.3517571 -0.2552695
v 0.1169159 0.7616297 -0.2829402
v 0.1169159 0.4382281 -0.2829402
v 0.059845 0.8567477 -0.3019639
v 0.059845 0.5333462 -0.3019639
v -0.0006847084 0.9553248 -0.3071521
v -0.0006847084 0.6319232 -0.3071521
v -0.05948502 1.053902 -0.3019639
v -0.05948502 0.7322295 -0.3019639
v -0.1182853 1.14902 -0.2829402
v -0.1182853 0.8273476 -0.2829402
v -0.1701679 1.23722 -0.2552695
v -0.1701679 0.9138187 -0.2552695
v -0.2168623 1.313315 -0.2172223
v -0.2168623 0.9916426 -0.2172223
v -0.2549095 1.377303 -0.1705279
v -0.2549095 1.053902 -0.1705279
v -0.2843097 1.423998 -0.1169159
v -0.2843097 1.100596 -0.1169159
v -0.3016039 1.451668 -0.059845
v -0.3016039 1.129996 -0.059845
v -0.3067921 1.462045 0.0006847084
v -0.3067921 1.138643 0.0006847084
vt 0.001035301 0.1406096
vt 0.001035301 0.2630932
vt 0.04661059 0.2630932
vt 0.04661059 0.1406096
vt 0.09218588 0.2630932
vt 0.09218588 0.1406096
vt 0.1377612 0.2630932
vt 0.1377612 0.1406096
vt 0.1833365 0.2630932
vt 0.1833365 0.1406096
vt 0.2289117 0.2630932
vt 0.2289117 0.1406096
vt 0.274487 0.2630932
vt 0.274487 0.1406096
vt 0.3200623 0.2630932
vt 0.3200623 0.1406096
vt 0.3627892 0.2630932
vt 0.3627892 0.1406096
vt 0.4083644 0.2630932
vt 0.4083644 0.1406096
vt 0.4539397 0.2630932
vt 0.4539397 0.1406096
vt 0.499515 0.2630932
vt 0.499515 0.1406096
vt 0.5450903 0.2630932
vt 0.5450903 0.1406096
vt 0.5906656 0.2630932
vt 0.5906656 0.1406096
vt 0.6362408 0.2630932
vt 0.6362408 0.1406096
vt 0.6818162 0.2630932
vt 0.6818162 0.1406096
vt 0.7273914 0.2630932
vt 0.7273914 0.1406096
vn 0.9951847 0.0157966 -0.09673594
vn 0.9951847 0.0157966 -0.09673594
vn 0.9635916 0.0157966 -0.2669115
vn 0.9951847 0.0157966 -0.09673594
vn 0.9004052 0.0157966 -0.4347653
vn 0.9319984 0.0157966 -0.362118
vn 0.8056257 0.0157966 -0.5922142
vn 0.8688121 0.0157966 -0.4948899
vn 0.6792531 0.0157966 -0.7337341
vn 0.7424394 0.0157966 -0.669727
vn 0.5212873 0.0157966 -0.8532351
vn 0.6160668 0.0157966 -0.7875355
vn 0.3317283 0.0157966 -0.9432427
vn 0.4265078 0.0157966 -0.904346
vn 0.1421693 0.0157966 -0.9897163
vn 0.2685419 0.0157966 -0.9631385
vn -0.07898289 0.0157966 -0.9967508
vn 0.07898295 0.0157966 -0.9967508
vn -0.2685419 0.0157966 -0.9631385
vn -0.1421692 0.0157966 -0.9897164
vn -0.4265077 0.0157966 -0.904346
vn -0.3317282 0.0157966 -0.9432428
vn -0.6160666 0.0157966 -0.7875357
vn -0.5212871 0.0157966 -0.8532351
vn -0.7424393 0.0157966 -0.669727
vn -0.679253 0.0157966 -0.7337342
vn -0.868812 0.0157966 -0.49489
vn -0.8056256 0.0157966 -0.5922143
vn -0.9319983 0.0157966 -0.3621182
vn -0.9004051 0.0157966 -0.4347655
vn -0.9951846 0.0157966 -0.09673717
vn -0.9635915 0.0157966 -0.2669117
vn -0.9951846 0.0157966 -0.09673717
vn -0.9951846 0.0157966 -0.09673717
g satelite_00_0
f 3/3/3 2/2/2 1/1/1
f 4/4/4 3/3/3 1/1/1
f 5/5/5 3/3/3 4/4/4
f 6/6/6 5/5/5 4/4/4
f 7/7/7 5/5/5 6/6/6
f 8/8/8 7/7/7 6/6/6
f 9/9/9 7/7/7 8/8/8
f 10/10/10 9/9/9 8/8/8
f 11/11/11 9/9/9 10/10/10
f 12/12/12 11/11/11 10/10/10
f 13/13/13 11/11/11 12/12/12
f 14/14/14 13/13/13 12/12/12
f 15/15/15 13/13/13 14/14/14
f 16/16/16 15/15/15 14/14/14
f 17/17/17 15/15/15 16/16/16
f 18/18/18 17/17/17 16/16/16
f 19/19/19 17/17/17 18/18/18
f 20/20/20 19/19/19 18/18/18
f 21/21/21 19/19/19 20/20/20
f 22/22/22 21/21/21 20/20/20
f 23/23/23 21/21/21 22/22/22
f 24/24/24 23/23/23 22/22/22
f 25/25/25 23/23/23 24/24/24
f 26/26/26 25/25/25 24/24/24
f 27/27/27 25/25/25 26/26/26
f 28/28/28 27/27/27 26/26/26
f 29/29/29 27/27/27 28/28/28
f 30/30/30 29/29/29 28/28/28
f 31/31/31 29/29/29 30/30/30
f 32/32/32 31/31/31 30/30/30
f 33/33/33 31/31/31 32/32/32
f 34/34/34 33/33/33 32/32/32
