g uv_anim_mesh
v 0.001070467 -0.001816383 0.007565554
v 0.0008194685 -0.001890589 0.006876621
v 0.0005288552 -0.002029187 0.007077041
v 0.0006443375 -0.002012456 0.007693052
v 0.0009448327 -0.001783366 0.00801363
v 0.001366625 -0.001346137 0.008069145
v 0.001426844 -0.001456123 0.007663967
v 0.00126203 -0.001602951 0.007151363
v 0.0005049184 -0.002059818 0.007385168
v 0.001088174 -0.0017239 0.006995291
v 0.001387761 -0.001530522 0.007386955
v 0.0005575736 -0.0020328 0.007568529
v -0.001070469 -0.001816383 0.007565554
v -0.0005049205 -0.002059818 0.007385168
v -0.0005288573 -0.002029187 0.007077041
v -0.0006443397 -0.002012456 0.007693052
v -0.0009448349 -0.001783366 0.00801363
v -0.001366627 -0.001346137 0.008069145
v -0.0008194707 -0.001890589 0.006876621
v -0.001088176 -0.0017239 0.006995291
v -0.001262032 -0.001602951 0.007151363
v -0.001387763 -0.001530522 0.007386955
v -0.001426846 -0.001456123 0.007663967
v -0.0005575758 -0.0020328 0.007568529
vt 0.1337382 0.8845062
vt 0.0786505 0.7650939
vt 0.02364977 0.805217
vt 0.05272345 0.9153054
vt 0.1255309 0.966913
vt 0.2350394 0.9717707
vt 0.2249904 0.8960776
vt 0.1778055 0.806203
vt 0.02147468 0.8612762
vt 0.1371749 0.781436
vt 0.2071402 0.8468192
vt 0.03471372 0.8937141
vt 0.1337382 0.8845062
vt 0.02147468 0.8612762
vt 0.02364977 0.805217
vt 0.05272345 0.9153054
vt 0.1255309 0.966913
vt 0.2350394 0.9717707
vt 0.0786505 0.7650939
vt 0.1371749 0.781436
vt 0.1778055 0.806203
vt 0.2071402 0.8468192
vt 0.2249904 0.8960776
vt 0.03471372 0.8937141
vn 0.5715178 -0.8155792 0.09054227
vn 0.4518189 -0.8886422 -0.07857916
vn 0.405183 -0.9119602 -0.06446237
vn 0.4331646 -0.8979694 0.07758527
vn 0.6134902 -0.7549525 0.2316816
vn 0.6647897 -0.7005439 0.2594087
vn 0.6585716 -0.7145347 0.2360585
vn 0.63059 -0.7689433 -0.105273
vn 0.405183 -0.9135147 -0.03629986
vn 0.580845 -0.8062521 -0.1121459
vn 0.6694533 -0.7425163 -0.02240248
vn 0.3880832 -0.9212874 -0.02492148
vn -0.5710626 -0.8155792 0.0933703
vn -0.4062822 -0.9135147 -0.02063097
vn -0.4047278 -0.9119602 -0.06726152
vn -0.4342639 -0.8979694 0.07117526
vn -0.6145894 -0.7549525 0.2287499
vn -0.6643345 -0.7005439 0.2605722
vn -0.4529182 -0.8886422 -0.07197306
vn -0.5803898 -0.8062521 -0.1144783
vn -0.6316893 -0.7689433 -0.09846286
vn -0.6689981 -0.7425163 -0.03333391
vn -0.6581163 -0.7145347 0.2373249
vn -0.389137 -0.92118 0
g uv_anim_mesh_0
f 24/24/24 16/16/16 13/13/13
f 17/17/17 13/13/13 16/16/16
f 24/24/24 13/13/13 14/14/14
f 17/17/17 18/18/18 13/13/13
f 15/15/15 14/14/14 13/13/13
f 18/18/18 23/23/23 13/13/13
f 13/13/13 19/19/19 15/15/15
f 13/13/13 23/23/23 22/22/22
f 20/20/20 19/19/19 13/13/13
f 13/13/13 22/22/22 21/21/21
f 21/21/21 20/20/20 13/13/13
f 4/4/4 12/12/12 1/1/1
f 1/1/1 5/5/5 4/4/4
f 1/1/1 12/12/12 9/9/9
f 6/6/6 5/5/5 1/1/1
f 9/9/9 3/3/3 1/1/1
f 7/7/7 6/6/6 1/1/1
f 2/2/2 1/1/1 3/3/3
f 7/7/7 1/1/1 11/11/11
f 2/2/2 10/10/10 1/1/1
f 11/11/11 1/1/1 8/8/8
f 10/10/10 8/8/8 1/1/1
